M48
;Layer_Color=9474304
;FILE_FORMAT=2:4
INCH,TZ
;TYPE=PLATED
T1F00S00C0.0118
T2F00S00C0.0157
T3F00S00C0.0236
T4F00S00C0.0335
T5F00S00C0.0591
T6F00S00C0.1181
;TYPE=NON_PLATED
T7F00S00C0.0787
%
T01
X2546Y2758
X3212Y4022
X3217Y4577
X3433Y4890
X3076Y5428
X4006Y5298
X5770Y5330
X6200Y5313
X6127Y5920
X5736Y3318
X5179Y2766
X3996Y3238
X3543Y3710
X8083Y3694
X7295Y2639
X10406Y3888
X9690Y5742
X8919Y5693
X9999Y6657
X10636Y13398
X11011Y13892
X10120Y14863
X9332Y13640
X14427Y13750
X15636Y13485
X16090Y13964
X17171Y4204
X17147Y3719
X15187Y14993
X15185Y15271
X15175Y15540
X10107Y15410
X10117Y15141
T02
X588Y7066
X1192Y6586
X767Y11504
X1519Y11923
X1476Y12848
X2646Y12848
X3839Y12848
X5008Y12848
X5786Y12598
X5278Y11914
X4824Y11533
X4336Y11911
X4431Y13642
X2069
X6526Y11918
X6986Y10308
X5776Y9478
X6150Y7546
X7146Y7198
X7624Y9021
X9076Y10118
X9422Y10442
X8836Y11508
X8836Y12428
X8376Y12538
X8001Y12220
X9716Y11938
X10326Y11928
X10916Y11938
X10476Y9768
X12718Y9446
X13340Y12186
X13905Y11776
X13908Y12613
X14759Y12075
X15381Y12069
X15971Y12079
X16562Y11784
X16546Y11178
X16566Y12448
X17649Y13768
X18014Y14540
X17177Y14512
X12954Y14480
X12117Y14452
X12665Y13702
X16228Y9456
X17326Y10348
X17026Y7418
X17076Y6478
X18516Y3103
X10346Y2832
X11286Y14998
X12544Y15000
X16346Y15028
X17604Y15060
X7730Y15134
X7511Y15892
T03
X6496Y13778
X6996
Y14278
X6496
Y14778
X6996
Y15278
X6496
Y15778
X6996
T04
X1812Y3351
Y5260
T05
X631Y2922
Y5688
T06
X1969Y1181
X21654
T07
X2074Y15048
X3806
M30
