G04*
G04 #@! TF.GenerationSoftware,Altium Limited,Altium Designer,20.2.4 (192)*
G04*
G04 Layer_Physical_Order=1*
G04 Layer_Color=255*
%FSLAX25Y25*%
%MOIN*%
G70*
G04*
G04 #@! TF.SameCoordinates,E48B743E-56E7-44FA-BC68-CEDDD1A44BF1*
G04*
G04*
G04 #@! TF.FilePolarity,Positive*
G04*
G01*
G75*
%ADD11C,0.01000*%
%ADD14C,0.00600*%
G04:AMPARAMS|DCode=16|XSize=118.11mil|YSize=78.74mil|CornerRadius=19.68mil|HoleSize=0mil|Usage=FLASHONLY|Rotation=270.000|XOffset=0mil|YOffset=0mil|HoleType=Round|Shape=RoundedRectangle|*
%AMROUNDEDRECTD16*
21,1,0.11811,0.03937,0,0,270.0*
21,1,0.07874,0.07874,0,0,270.0*
1,1,0.03937,-0.01968,-0.03937*
1,1,0.03937,-0.01968,0.03937*
1,1,0.03937,0.01968,0.03937*
1,1,0.03937,0.01968,-0.03937*
%
%ADD16ROUNDEDRECTD16*%
%ADD17R,0.07480X0.07087*%
G04:AMPARAMS|DCode=18|XSize=15.75mil|YSize=78.74mil|CornerRadius=3.94mil|HoleSize=0mil|Usage=FLASHONLY|Rotation=270.000|XOffset=0mil|YOffset=0mil|HoleType=Round|Shape=RoundedRectangle|*
%AMROUNDEDRECTD18*
21,1,0.01575,0.07087,0,0,270.0*
21,1,0.00787,0.07874,0,0,270.0*
1,1,0.00787,-0.03543,-0.00394*
1,1,0.00787,-0.03543,0.00394*
1,1,0.00787,0.03543,0.00394*
1,1,0.00787,0.03543,-0.00394*
%
%ADD18ROUNDEDRECTD18*%
G04:AMPARAMS|DCode=19|XSize=39.37mil|YSize=35.43mil|CornerRadius=4.43mil|HoleSize=0mil|Usage=FLASHONLY|Rotation=90.000|XOffset=0mil|YOffset=0mil|HoleType=Round|Shape=RoundedRectangle|*
%AMROUNDEDRECTD19*
21,1,0.03937,0.02657,0,0,90.0*
21,1,0.03051,0.03543,0,0,90.0*
1,1,0.00886,0.01329,0.01526*
1,1,0.00886,0.01329,-0.01526*
1,1,0.00886,-0.01329,-0.01526*
1,1,0.00886,-0.01329,0.01526*
%
%ADD19ROUNDEDRECTD19*%
G04:AMPARAMS|DCode=20|XSize=39.37mil|YSize=11.81mil|CornerRadius=1.48mil|HoleSize=0mil|Usage=FLASHONLY|Rotation=0.000|XOffset=0mil|YOffset=0mil|HoleType=Round|Shape=RoundedRectangle|*
%AMROUNDEDRECTD20*
21,1,0.03937,0.00886,0,0,0.0*
21,1,0.03642,0.01181,0,0,0.0*
1,1,0.00295,0.01821,-0.00443*
1,1,0.00295,-0.01821,-0.00443*
1,1,0.00295,-0.01821,0.00443*
1,1,0.00295,0.01821,0.00443*
%
%ADD20ROUNDEDRECTD20*%
G04:AMPARAMS|DCode=21|XSize=39.37mil|YSize=11.81mil|CornerRadius=1.48mil|HoleSize=0mil|Usage=FLASHONLY|Rotation=90.000|XOffset=0mil|YOffset=0mil|HoleType=Round|Shape=RoundedRectangle|*
%AMROUNDEDRECTD21*
21,1,0.03937,0.00886,0,0,90.0*
21,1,0.03642,0.01181,0,0,90.0*
1,1,0.00295,0.00443,0.01821*
1,1,0.00295,0.00443,-0.01821*
1,1,0.00295,-0.00443,-0.01821*
1,1,0.00295,-0.00443,0.01821*
%
%ADD21ROUNDEDRECTD21*%
G04:AMPARAMS|DCode=22|XSize=131.89mil|YSize=131.89mil|CornerRadius=9.89mil|HoleSize=0mil|Usage=FLASHONLY|Rotation=90.000|XOffset=0mil|YOffset=0mil|HoleType=Round|Shape=RoundedRectangle|*
%AMROUNDEDRECTD22*
21,1,0.13189,0.11211,0,0,90.0*
21,1,0.11211,0.13189,0,0,90.0*
1,1,0.01978,0.05605,0.05605*
1,1,0.01978,0.05605,-0.05605*
1,1,0.01978,-0.05605,-0.05605*
1,1,0.01978,-0.05605,0.05605*
%
%ADD22ROUNDEDRECTD22*%
G04:AMPARAMS|DCode=23|XSize=23.62mil|YSize=39.37mil|CornerRadius=2.95mil|HoleSize=0mil|Usage=FLASHONLY|Rotation=0.000|XOffset=0mil|YOffset=0mil|HoleType=Round|Shape=RoundedRectangle|*
%AMROUNDEDRECTD23*
21,1,0.02362,0.03347,0,0,0.0*
21,1,0.01772,0.03937,0,0,0.0*
1,1,0.00591,0.00886,-0.01673*
1,1,0.00591,-0.00886,-0.01673*
1,1,0.00591,-0.00886,0.01673*
1,1,0.00591,0.00886,0.01673*
%
%ADD23ROUNDEDRECTD23*%
G04:AMPARAMS|DCode=24|XSize=39.37mil|YSize=35.43mil|CornerRadius=4.43mil|HoleSize=0mil|Usage=FLASHONLY|Rotation=180.000|XOffset=0mil|YOffset=0mil|HoleType=Round|Shape=RoundedRectangle|*
%AMROUNDEDRECTD24*
21,1,0.03937,0.02657,0,0,180.0*
21,1,0.03051,0.03543,0,0,180.0*
1,1,0.00886,-0.01526,0.01329*
1,1,0.00886,0.01526,0.01329*
1,1,0.00886,0.01526,-0.01329*
1,1,0.00886,-0.01526,-0.01329*
%
%ADD24ROUNDEDRECTD24*%
G04:AMPARAMS|DCode=25|XSize=31.5mil|YSize=31.5mil|CornerRadius=3.94mil|HoleSize=0mil|Usage=FLASHONLY|Rotation=180.000|XOffset=0mil|YOffset=0mil|HoleType=Round|Shape=RoundedRectangle|*
%AMROUNDEDRECTD25*
21,1,0.03150,0.02362,0,0,180.0*
21,1,0.02362,0.03150,0,0,180.0*
1,1,0.00787,-0.01181,0.01181*
1,1,0.00787,0.01181,0.01181*
1,1,0.00787,0.01181,-0.01181*
1,1,0.00787,-0.01181,-0.01181*
%
%ADD25ROUNDEDRECTD25*%
G04:AMPARAMS|DCode=26|XSize=78.74mil|YSize=35.43mil|CornerRadius=8.86mil|HoleSize=0mil|Usage=FLASHONLY|Rotation=180.000|XOffset=0mil|YOffset=0mil|HoleType=Round|Shape=RoundedRectangle|*
%AMROUNDEDRECTD26*
21,1,0.07874,0.01772,0,0,180.0*
21,1,0.06102,0.03543,0,0,180.0*
1,1,0.01772,-0.03051,0.00886*
1,1,0.01772,0.03051,0.00886*
1,1,0.01772,0.03051,-0.00886*
1,1,0.01772,-0.03051,-0.00886*
%
%ADD26ROUNDEDRECTD26*%
G04:AMPARAMS|DCode=27|XSize=78.74mil|YSize=35.43mil|CornerRadius=8.86mil|HoleSize=0mil|Usage=FLASHONLY|Rotation=270.000|XOffset=0mil|YOffset=0mil|HoleType=Round|Shape=RoundedRectangle|*
%AMROUNDEDRECTD27*
21,1,0.07874,0.01772,0,0,270.0*
21,1,0.06102,0.03543,0,0,270.0*
1,1,0.01772,-0.00886,-0.03051*
1,1,0.01772,-0.00886,0.03051*
1,1,0.01772,0.00886,0.03051*
1,1,0.01772,0.00886,-0.03051*
%
%ADD27ROUNDEDRECTD27*%
G04:AMPARAMS|DCode=28|XSize=196.85mil|YSize=196.85mil|CornerRadius=49.21mil|HoleSize=0mil|Usage=FLASHONLY|Rotation=180.000|XOffset=0mil|YOffset=0mil|HoleType=Round|Shape=RoundedRectangle|*
%AMROUNDEDRECTD28*
21,1,0.19685,0.09843,0,0,180.0*
21,1,0.09843,0.19685,0,0,180.0*
1,1,0.09843,-0.04921,0.04921*
1,1,0.09843,0.04921,0.04921*
1,1,0.09843,0.04921,-0.04921*
1,1,0.09843,-0.04921,-0.04921*
%
%ADD28ROUNDEDRECTD28*%
G04:AMPARAMS|DCode=29|XSize=133.86mil|YSize=94.49mil|CornerRadius=11.81mil|HoleSize=0mil|Usage=FLASHONLY|Rotation=90.000|XOffset=0mil|YOffset=0mil|HoleType=Round|Shape=RoundedRectangle|*
%AMROUNDEDRECTD29*
21,1,0.13386,0.07087,0,0,90.0*
21,1,0.11024,0.09449,0,0,90.0*
1,1,0.02362,0.03543,0.05512*
1,1,0.02362,0.03543,-0.05512*
1,1,0.02362,-0.03543,-0.05512*
1,1,0.02362,-0.03543,0.05512*
%
%ADD29ROUNDEDRECTD29*%
%ADD30R,0.00984X0.01181*%
G04:AMPARAMS|DCode=31|XSize=23.62mil|YSize=11.81mil|CornerRadius=1.48mil|HoleSize=0mil|Usage=FLASHONLY|Rotation=180.000|XOffset=0mil|YOffset=0mil|HoleType=Round|Shape=RoundedRectangle|*
%AMROUNDEDRECTD31*
21,1,0.02362,0.00886,0,0,180.0*
21,1,0.02067,0.01181,0,0,180.0*
1,1,0.00295,-0.01034,0.00443*
1,1,0.00295,0.01034,0.00443*
1,1,0.00295,0.01034,-0.00443*
1,1,0.00295,-0.01034,-0.00443*
%
%ADD31ROUNDEDRECTD31*%
G04:AMPARAMS|DCode=32|XSize=53.15mil|YSize=11.81mil|CornerRadius=1.48mil|HoleSize=0mil|Usage=FLASHONLY|Rotation=90.000|XOffset=0mil|YOffset=0mil|HoleType=Round|Shape=RoundedRectangle|*
%AMROUNDEDRECTD32*
21,1,0.05315,0.00886,0,0,90.0*
21,1,0.05020,0.01181,0,0,90.0*
1,1,0.00295,0.00443,0.02510*
1,1,0.00295,0.00443,-0.02510*
1,1,0.00295,-0.00443,-0.02510*
1,1,0.00295,-0.00443,0.02510*
%
%ADD32ROUNDEDRECTD32*%
G04:AMPARAMS|DCode=33|XSize=66.93mil|YSize=11.81mil|CornerRadius=1.48mil|HoleSize=0mil|Usage=FLASHONLY|Rotation=90.000|XOffset=0mil|YOffset=0mil|HoleType=Round|Shape=RoundedRectangle|*
%AMROUNDEDRECTD33*
21,1,0.06693,0.00886,0,0,90.0*
21,1,0.06398,0.01181,0,0,90.0*
1,1,0.00295,0.00443,0.03199*
1,1,0.00295,0.00443,-0.03199*
1,1,0.00295,-0.00443,-0.03199*
1,1,0.00295,-0.00443,0.03199*
%
%ADD33ROUNDEDRECTD33*%
G04:AMPARAMS|DCode=34|XSize=23.62mil|YSize=11.81mil|CornerRadius=1.48mil|HoleSize=0mil|Usage=FLASHONLY|Rotation=90.000|XOffset=0mil|YOffset=0mil|HoleType=Round|Shape=RoundedRectangle|*
%AMROUNDEDRECTD34*
21,1,0.02362,0.00886,0,0,90.0*
21,1,0.02067,0.01181,0,0,90.0*
1,1,0.00295,0.00443,0.01034*
1,1,0.00295,0.00443,-0.01034*
1,1,0.00295,-0.00443,-0.01034*
1,1,0.00295,-0.00443,0.01034*
%
%ADD34ROUNDEDRECTD34*%
G04:AMPARAMS|DCode=35|XSize=82.68mil|YSize=62.99mil|CornerRadius=3.15mil|HoleSize=0mil|Usage=FLASHONLY|Rotation=180.000|XOffset=0mil|YOffset=0mil|HoleType=Round|Shape=RoundedRectangle|*
%AMROUNDEDRECTD35*
21,1,0.08268,0.05669,0,0,180.0*
21,1,0.07638,0.06299,0,0,180.0*
1,1,0.00630,-0.03819,0.02835*
1,1,0.00630,0.03819,0.02835*
1,1,0.00630,0.03819,-0.02835*
1,1,0.00630,-0.03819,-0.02835*
%
%ADD35ROUNDEDRECTD35*%
G04:AMPARAMS|DCode=36|XSize=74.8mil|YSize=51.18mil|CornerRadius=6.4mil|HoleSize=0mil|Usage=FLASHONLY|Rotation=0.000|XOffset=0mil|YOffset=0mil|HoleType=Round|Shape=RoundedRectangle|*
%AMROUNDEDRECTD36*
21,1,0.07480,0.03839,0,0,0.0*
21,1,0.06201,0.05118,0,0,0.0*
1,1,0.01280,0.03100,-0.01919*
1,1,0.01280,-0.03100,-0.01919*
1,1,0.01280,-0.03100,0.01919*
1,1,0.01280,0.03100,0.01919*
%
%ADD36ROUNDEDRECTD36*%
G04:AMPARAMS|DCode=37|XSize=110.24mil|YSize=39.37mil|CornerRadius=4.92mil|HoleSize=0mil|Usage=FLASHONLY|Rotation=0.000|XOffset=0mil|YOffset=0mil|HoleType=Round|Shape=RoundedRectangle|*
%AMROUNDEDRECTD37*
21,1,0.11024,0.02953,0,0,0.0*
21,1,0.10039,0.03937,0,0,0.0*
1,1,0.00984,0.05020,-0.01476*
1,1,0.00984,-0.05020,-0.01476*
1,1,0.00984,-0.05020,0.01476*
1,1,0.00984,0.05020,0.01476*
%
%ADD37ROUNDEDRECTD37*%
G04:AMPARAMS|DCode=38|XSize=39.37mil|YSize=31.5mil|CornerRadius=3.94mil|HoleSize=0mil|Usage=FLASHONLY|Rotation=270.000|XOffset=0mil|YOffset=0mil|HoleType=Round|Shape=RoundedRectangle|*
%AMROUNDEDRECTD38*
21,1,0.03937,0.02362,0,0,270.0*
21,1,0.03150,0.03150,0,0,270.0*
1,1,0.00787,-0.01181,-0.01575*
1,1,0.00787,-0.01181,0.01575*
1,1,0.00787,0.01181,0.01575*
1,1,0.00787,0.01181,-0.01575*
%
%ADD38ROUNDEDRECTD38*%
G04:AMPARAMS|DCode=39|XSize=47.24mil|YSize=39.37mil|CornerRadius=4.92mil|HoleSize=0mil|Usage=FLASHONLY|Rotation=0.000|XOffset=0mil|YOffset=0mil|HoleType=Round|Shape=RoundedRectangle|*
%AMROUNDEDRECTD39*
21,1,0.04724,0.02953,0,0,0.0*
21,1,0.03740,0.03937,0,0,0.0*
1,1,0.00984,0.01870,-0.01476*
1,1,0.00984,-0.01870,-0.01476*
1,1,0.00984,-0.01870,0.01476*
1,1,0.00984,0.01870,0.01476*
%
%ADD39ROUNDEDRECTD39*%
G04:AMPARAMS|DCode=40|XSize=47.24mil|YSize=27.56mil|CornerRadius=3.45mil|HoleSize=0mil|Usage=FLASHONLY|Rotation=0.000|XOffset=0mil|YOffset=0mil|HoleType=Round|Shape=RoundedRectangle|*
%AMROUNDEDRECTD40*
21,1,0.04724,0.02067,0,0,0.0*
21,1,0.04035,0.02756,0,0,0.0*
1,1,0.00689,0.02018,-0.01034*
1,1,0.00689,-0.02018,-0.01034*
1,1,0.00689,-0.02018,0.01034*
1,1,0.00689,0.02018,0.01034*
%
%ADD40ROUNDEDRECTD40*%
G04:AMPARAMS|DCode=41|XSize=70.87mil|YSize=45.28mil|CornerRadius=5.66mil|HoleSize=0mil|Usage=FLASHONLY|Rotation=90.000|XOffset=0mil|YOffset=0mil|HoleType=Round|Shape=RoundedRectangle|*
%AMROUNDEDRECTD41*
21,1,0.07087,0.03396,0,0,90.0*
21,1,0.05955,0.04528,0,0,90.0*
1,1,0.01132,0.01698,0.02977*
1,1,0.01132,0.01698,-0.02977*
1,1,0.01132,-0.01698,-0.02977*
1,1,0.01132,-0.01698,0.02977*
%
%ADD41ROUNDEDRECTD41*%
G04:AMPARAMS|DCode=42|XSize=70.87mil|YSize=45.28mil|CornerRadius=5.66mil|HoleSize=0mil|Usage=FLASHONLY|Rotation=0.000|XOffset=0mil|YOffset=0mil|HoleType=Round|Shape=RoundedRectangle|*
%AMROUNDEDRECTD42*
21,1,0.07087,0.03396,0,0,0.0*
21,1,0.05955,0.04528,0,0,0.0*
1,1,0.01132,0.02977,-0.01698*
1,1,0.01132,-0.02977,-0.01698*
1,1,0.01132,-0.02977,0.01698*
1,1,0.01132,0.02977,0.01698*
%
%ADD42ROUNDEDRECTD42*%
%ADD75C,0.04000*%
%ADD76C,0.01500*%
%ADD77C,0.03150*%
%ADD78C,0.03100*%
%ADD79C,0.02000*%
%ADD80C,0.11811*%
%ADD81C,0.07874*%
%ADD82C,0.03937*%
G04:AMPARAMS|DCode=83|XSize=82.68mil|YSize=74.8mil|CornerRadius=18.7mil|HoleSize=0mil|Usage=FLASHONLY|Rotation=180.000|XOffset=0mil|YOffset=0mil|HoleType=Round|Shape=RoundedRectangle|*
%AMROUNDEDRECTD83*
21,1,0.08268,0.03740,0,0,180.0*
21,1,0.04528,0.07480,0,0,180.0*
1,1,0.03740,-0.02264,0.01870*
1,1,0.03740,0.02264,0.01870*
1,1,0.03740,0.02264,-0.01870*
1,1,0.03740,-0.02264,-0.01870*
%
%ADD83ROUNDEDRECTD83*%
G04:AMPARAMS|DCode=84|XSize=49.21mil|YSize=41.34mil|CornerRadius=20.67mil|HoleSize=0mil|Usage=FLASHONLY|Rotation=180.000|XOffset=0mil|YOffset=0mil|HoleType=Round|Shape=RoundedRectangle|*
%AMROUNDEDRECTD84*
21,1,0.04921,0.00000,0,0,180.0*
21,1,0.00787,0.04134,0,0,180.0*
1,1,0.04134,-0.00394,0.00000*
1,1,0.04134,0.00394,0.00000*
1,1,0.04134,0.00394,0.00000*
1,1,0.04134,-0.00394,0.00000*
%
%ADD84ROUNDEDRECTD84*%
%ADD85C,0.02362*%
%ADD86C,0.03150*%
G36*
X40568Y178693D02*
X40502Y178665D01*
X39882Y178190D01*
X39406Y177570D01*
X39107Y176848D01*
X39005Y176073D01*
Y175161D01*
X25308D01*
Y176073D01*
X25206Y176848D01*
X24907Y177570D01*
X24431Y178190D01*
X23811Y178665D01*
X23745Y178693D01*
X23844Y179193D01*
X40469D01*
X40568Y178693D01*
D02*
G37*
G36*
X234214Y179010D02*
Y2514D01*
X233819Y2119D01*
X183982D01*
Y29182D01*
X183904Y29572D01*
X183683Y29903D01*
X183352Y30124D01*
X182962Y30202D01*
X106962D01*
X106572Y30124D01*
X106241Y29903D01*
X106020Y29572D01*
X105943Y29182D01*
Y2119D01*
X3119D01*
X2008Y3231D01*
Y178169D01*
X3031Y179193D01*
X16847D01*
X16946Y178693D01*
X16880Y178665D01*
X16260Y178190D01*
X15784Y177570D01*
X15485Y176848D01*
X15383Y176073D01*
Y168199D01*
X15485Y167424D01*
X15784Y166701D01*
X16260Y166081D01*
X16880Y165605D01*
X17602Y165306D01*
X18377Y165204D01*
X22314D01*
X23089Y165306D01*
X23811Y165605D01*
X24431Y166081D01*
X24907Y166701D01*
X25206Y167424D01*
X25308Y168199D01*
Y169110D01*
X39005D01*
Y168199D01*
X39107Y167424D01*
X39406Y166701D01*
X39882Y166081D01*
X40502Y165605D01*
X41224Y165306D01*
X41999Y165204D01*
X45936D01*
X46711Y165306D01*
X47433Y165605D01*
X48053Y166081D01*
X48529Y166701D01*
X48828Y167424D01*
X48930Y168199D01*
Y169583D01*
X56938D01*
X57127Y169299D01*
X57563Y169009D01*
X58075Y168907D01*
X65713D01*
X66226Y169009D01*
X66661Y169299D01*
X66952Y169734D01*
X67054Y170247D01*
Y175917D01*
X66952Y176430D01*
X66661Y176865D01*
X66226Y177155D01*
X65713Y177257D01*
X58075D01*
X57563Y177155D01*
X57127Y176865D01*
X56837Y176430D01*
X56735Y175917D01*
Y175635D01*
X48930D01*
Y176073D01*
X48828Y176848D01*
X48529Y177570D01*
X48053Y178190D01*
X47433Y178665D01*
X47367Y178693D01*
X47466Y179193D01*
X234031D01*
X234214Y179010D01*
D02*
G37*
%LPC*%
G36*
X124262Y178379D02*
X82114D01*
X81442Y178291D01*
X80816Y178031D01*
X80278Y177619D01*
X79917Y177257D01*
X74611D01*
X74098Y177155D01*
X73663Y176865D01*
X73372Y176430D01*
X73270Y175917D01*
Y170247D01*
X73372Y169734D01*
X73663Y169299D01*
X74098Y169009D01*
X74611Y168907D01*
X77339D01*
Y167108D01*
X77428Y166435D01*
X77687Y165809D01*
X78100Y165271D01*
X78197Y165174D01*
X77951Y164713D01*
X77684Y164766D01*
X74137D01*
X74097Y164971D01*
X73778Y165448D01*
X73300Y165767D01*
X72737Y165879D01*
X70080D01*
X69517Y165767D01*
X69040Y165448D01*
X68903Y165244D01*
X67221D01*
X67085Y165448D01*
X66607Y165767D01*
X66044Y165879D01*
X63387D01*
X62824Y165767D01*
X62347Y165448D01*
X62028Y164971D01*
X61916Y164408D01*
Y164178D01*
X61679Y164130D01*
X61101Y163744D01*
X58900Y161544D01*
X58514Y160965D01*
X58378Y160282D01*
Y150582D01*
X58514Y149899D01*
X58900Y149320D01*
X61234Y146987D01*
X61234Y146987D01*
X61813Y146600D01*
X62277Y146508D01*
X62369Y146285D01*
X62845Y145665D01*
X63018Y145532D01*
Y145032D01*
X62845Y144899D01*
X62369Y144279D01*
X62341Y144211D01*
X61962D01*
X61377Y144095D01*
X60881Y143763D01*
X60081Y142963D01*
X59749Y142467D01*
X59633Y141882D01*
Y136082D01*
X59749Y135497D01*
X60081Y135001D01*
X62181Y132901D01*
X62677Y132569D01*
X63262Y132453D01*
X64229D01*
X65881Y130801D01*
X66377Y130469D01*
X66829Y130379D01*
Y129869D01*
X66817Y129867D01*
X66340Y129548D01*
X66203Y129344D01*
X64521D01*
X64385Y129548D01*
X63907Y129867D01*
X63344Y129979D01*
X60687D01*
X60124Y129867D01*
X59647Y129548D01*
X59328Y129071D01*
X59267Y128766D01*
X58862D01*
X58179Y128630D01*
X58063Y128553D01*
X57862Y128579D01*
X57190Y128490D01*
X56564Y128231D01*
X56026Y127818D01*
X55613Y127280D01*
X55354Y126654D01*
X55265Y125982D01*
X55354Y125310D01*
X55613Y124683D01*
X56026Y124146D01*
X56564Y123733D01*
X57190Y123474D01*
X57862Y123385D01*
X57900Y123390D01*
X58134Y122916D01*
X55881Y120663D01*
X55549Y120167D01*
X55433Y119582D01*
Y116416D01*
X52429Y113411D01*
X42596D01*
X41592Y114416D01*
Y118082D01*
X41475Y118667D01*
X41144Y119163D01*
X40244Y120063D01*
X39747Y120395D01*
X39162Y120511D01*
X38826D01*
X38474Y121011D01*
X38531Y121298D01*
Y124349D01*
X38419Y124912D01*
X38100Y125389D01*
X37623Y125708D01*
X37060Y125820D01*
X34403D01*
X33840Y125708D01*
X33362Y125389D01*
X33226Y125186D01*
X31544D01*
X31407Y125389D01*
X30930Y125708D01*
X30367Y125820D01*
X27710D01*
X27147Y125708D01*
X26669Y125389D01*
X26351Y124912D01*
X26239Y124349D01*
Y122384D01*
X25738Y122116D01*
X25692Y122147D01*
X25149Y122256D01*
X22786D01*
X22243Y122147D01*
X21782Y121839D01*
X21474Y121378D01*
X21365Y120835D01*
Y117685D01*
X21474Y117141D01*
X21782Y116680D01*
X22243Y116372D01*
X22786Y116264D01*
X25149D01*
X25692Y116372D01*
X26153Y116680D01*
X26461Y117141D01*
X26528Y117475D01*
X28084D01*
X28766Y117611D01*
X29345Y117998D01*
X30224Y118877D01*
X30611Y119456D01*
X30698Y119892D01*
X30930Y119939D01*
X31407Y120258D01*
X31544Y120461D01*
X33226D01*
X33362Y120258D01*
X33840Y119939D01*
X34299Y119847D01*
X34349Y119597D01*
X34681Y119101D01*
X35881Y117901D01*
X36377Y117569D01*
X36962Y117453D01*
X38529D01*
X38533Y117448D01*
Y113782D01*
X38649Y113197D01*
X38981Y112701D01*
X40881Y110801D01*
X41377Y110469D01*
X41962Y110353D01*
X53062D01*
X53647Y110469D01*
X54144Y110801D01*
X58044Y114701D01*
X58375Y115197D01*
X58491Y115782D01*
Y118948D01*
X60596Y121053D01*
X67662D01*
X67801Y121080D01*
X73698Y115183D01*
X74194Y114852D01*
X74780Y114735D01*
X77235D01*
X81459Y110511D01*
X81956Y110179D01*
X82541Y110063D01*
X82887D01*
X83079Y109601D01*
X82456Y108978D01*
X68592D01*
X68586Y109007D01*
X68289Y109451D01*
Y109777D01*
X68586Y110221D01*
X68691Y110746D01*
Y112813D01*
X68586Y113338D01*
X68289Y113782D01*
X67844Y114079D01*
X67320Y114184D01*
X63284D01*
X62760Y114079D01*
X62315Y113782D01*
X62018Y113338D01*
X61914Y112813D01*
Y110746D01*
X62018Y110221D01*
X62315Y109777D01*
Y109451D01*
X62018Y109007D01*
X61914Y108482D01*
Y106415D01*
X62018Y105891D01*
X62315Y105446D01*
X62760Y105149D01*
X63284Y105044D01*
X67320D01*
X67844Y105149D01*
X68289Y105446D01*
X68586Y105891D01*
X68592Y105919D01*
X83090D01*
X83675Y106036D01*
X84171Y106367D01*
X85299Y107495D01*
X85355Y107484D01*
X85585Y106928D01*
X85449Y106725D01*
X85333Y106139D01*
Y103115D01*
X82534Y100317D01*
X68592D01*
X68586Y100345D01*
X68289Y100790D01*
X67844Y101087D01*
X67320Y101192D01*
X63284D01*
X62760Y101087D01*
X62315Y100790D01*
X62018Y100345D01*
X61914Y99821D01*
Y97754D01*
X62018Y97229D01*
X62235Y96904D01*
X62088Y96497D01*
X62014Y96404D01*
X59763D01*
X59598Y96618D01*
X59061Y97031D01*
X58434Y97290D01*
X57762Y97379D01*
X57090Y97290D01*
X56464Y97031D01*
X55926Y96618D01*
X55513Y96080D01*
X55254Y95454D01*
X55165Y94782D01*
X55254Y94110D01*
X55513Y93484D01*
X55926Y92946D01*
X56464Y92533D01*
X57090Y92273D01*
X57762Y92185D01*
X58434Y92273D01*
X59061Y92533D01*
X59454Y92835D01*
X62060D01*
X62315Y92454D01*
Y92129D01*
X62018Y91684D01*
X61914Y91159D01*
Y89092D01*
X62018Y88568D01*
X62315Y88123D01*
Y87798D01*
X62018Y87353D01*
X61914Y86829D01*
Y84762D01*
X62018Y84237D01*
X62315Y83792D01*
Y83467D01*
X62018Y83022D01*
X61914Y82498D01*
Y80431D01*
X62018Y79906D01*
X62315Y79462D01*
X62760Y79164D01*
X63284Y79060D01*
X67320D01*
X67844Y79164D01*
X68289Y79462D01*
X68586Y79906D01*
X68691Y80431D01*
Y82498D01*
X68586Y83022D01*
X68289Y83467D01*
Y83682D01*
X68663Y84098D01*
X98823D01*
X102993Y79928D01*
X102801Y79466D01*
X99667D01*
X99631Y79650D01*
X99312Y80127D01*
X98835Y80446D01*
X98272Y80558D01*
X95614D01*
X95051Y80446D01*
X94574Y80127D01*
X94438Y79923D01*
X92755D01*
X92619Y80127D01*
X92141Y80446D01*
X91579Y80558D01*
X88921D01*
X88358Y80446D01*
X87881Y80127D01*
X87562Y79650D01*
X87450Y79087D01*
Y77488D01*
X87013Y77196D01*
X82095Y72278D01*
X81763Y71781D01*
X81647Y71196D01*
Y67111D01*
X71578D01*
X71371Y67611D01*
X73602Y69842D01*
X74083Y70469D01*
X74385Y71199D01*
X74488Y71982D01*
X74385Y72765D01*
X74083Y73495D01*
X73602Y74122D01*
X72975Y74603D01*
X72245Y74905D01*
X71462Y75008D01*
X70679Y74905D01*
X69949Y74603D01*
X69323Y74122D01*
X67709Y72508D01*
X40362D01*
X39579Y72405D01*
X38849Y72102D01*
X38223Y71622D01*
X28622Y62022D01*
X28142Y61395D01*
X27839Y60665D01*
X27736Y59882D01*
Y54282D01*
X27839Y53499D01*
X28142Y52769D01*
X28622Y52142D01*
X29233Y51674D01*
Y50616D01*
X28318Y49701D01*
X22477D01*
X22211Y49878D01*
X21668Y49986D01*
X14581D01*
X14037Y49878D01*
X13576Y49570D01*
X13268Y49109D01*
X13160Y48565D01*
Y47778D01*
X13268Y47234D01*
X13497Y46892D01*
X13268Y46550D01*
X13160Y46006D01*
Y45219D01*
X13268Y44675D01*
X13497Y44333D01*
X13268Y43991D01*
X13160Y43447D01*
Y42660D01*
X13268Y42116D01*
X13497Y41774D01*
X13268Y41432D01*
X13160Y40888D01*
Y40100D01*
X13268Y39557D01*
X13576Y39096D01*
X14037Y38788D01*
X14581Y38680D01*
X21668D01*
X22211Y38788D01*
X22672Y39096D01*
X22980Y39557D01*
X23089Y40100D01*
Y40888D01*
X23069Y40988D01*
X23479Y41488D01*
X29817D01*
X30053Y40988D01*
X29899Y40216D01*
X30068Y39365D01*
X30551Y38644D01*
X31272Y38162D01*
X32123Y37992D01*
X32945Y38156D01*
X33003Y38127D01*
X33036Y38103D01*
X33347Y37810D01*
X33205Y37095D01*
X33375Y36244D01*
X33787Y35627D01*
X33650Y35455D01*
X33640Y35448D01*
X33614Y35409D01*
X33482Y35244D01*
X31087D01*
Y30520D01*
X31087D01*
Y30044D01*
X31087D01*
Y25320D01*
X33503D01*
X33640Y25116D01*
X34117Y24797D01*
X34680Y24685D01*
X37337D01*
X37900Y24797D01*
X38378Y25116D01*
X38847D01*
X39324Y24797D01*
X39887Y24685D01*
X42544D01*
X43107Y24797D01*
X43585Y25116D01*
X43721Y25320D01*
X46137D01*
Y30044D01*
X44153D01*
X44030Y30158D01*
X43865Y30531D01*
X44020Y30758D01*
X44735D01*
X45183Y30847D01*
X45276Y30909D01*
X45370Y30847D01*
X45818Y30758D01*
X46704D01*
X47151Y30847D01*
X47245Y30909D01*
X47338Y30847D01*
X47786Y30758D01*
X48672D01*
X49120Y30847D01*
X49213Y30909D01*
X49307Y30847D01*
X49755Y30758D01*
X50641D01*
X51088Y30847D01*
X51182Y30909D01*
X51275Y30847D01*
X51723Y30758D01*
X52609D01*
X53057Y30847D01*
X53150Y30909D01*
X53244Y30847D01*
X53692Y30758D01*
X54578D01*
X55025Y30847D01*
X55405Y31100D01*
X55659Y31480D01*
X55748Y31928D01*
Y35482D01*
X59302D01*
X59750Y35571D01*
X60129Y35825D01*
X60383Y36204D01*
X60472Y36652D01*
Y37538D01*
X60383Y37986D01*
X60321Y38080D01*
X60383Y38173D01*
X60472Y38621D01*
Y39507D01*
X60383Y39954D01*
X60321Y40048D01*
X60383Y40141D01*
X60472Y40589D01*
Y41475D01*
X60383Y41923D01*
X60321Y42017D01*
X60383Y42110D01*
X60472Y42558D01*
Y43444D01*
X60383Y43891D01*
X60321Y43985D01*
X60383Y44078D01*
X60472Y44526D01*
Y45412D01*
X60383Y45860D01*
X60321Y45954D01*
X60383Y46047D01*
X60472Y46495D01*
Y47381D01*
X60383Y47828D01*
X60321Y47922D01*
X60383Y48016D01*
X60472Y48463D01*
Y49349D01*
X60383Y49797D01*
X60129Y50177D01*
X59750Y50430D01*
X59302Y50519D01*
X55748D01*
Y54074D01*
X55692Y54353D01*
X55993Y54853D01*
X59930D01*
X60197Y54353D01*
X59948Y53979D01*
X59778Y53128D01*
X59948Y52277D01*
X60430Y51556D01*
X61151Y51073D01*
X62002Y50904D01*
X62853Y51073D01*
X63575Y51556D01*
X63693Y51732D01*
X64193Y51580D01*
Y50948D01*
X63681Y50436D01*
X63349Y49940D01*
X63233Y49354D01*
Y48300D01*
X62674Y48189D01*
X62196Y47870D01*
X61877Y47393D01*
X61765Y46830D01*
Y44172D01*
X61877Y43609D01*
X62196Y43132D01*
X62400Y42996D01*
Y41313D01*
X62196Y41177D01*
X61877Y40700D01*
X61765Y40137D01*
Y37479D01*
X61877Y36916D01*
X62196Y36439D01*
X62674Y36120D01*
X63233Y36009D01*
Y35254D01*
X63349Y34669D01*
X63681Y34173D01*
X64093Y33761D01*
Y32428D01*
X63802Y32234D01*
X63516Y31806D01*
X63415Y31300D01*
Y27954D01*
X63516Y27448D01*
X63802Y27020D01*
X64231Y26733D01*
X64736Y26633D01*
X66508D01*
X67013Y26733D01*
X67333Y26947D01*
X67714Y26815D01*
X67833Y26726D01*
Y25482D01*
X67949Y24897D01*
X68281Y24401D01*
X70054Y22627D01*
X70550Y22296D01*
X71136Y22179D01*
X74789D01*
X75374Y22296D01*
X75870Y22627D01*
X77844Y24601D01*
X78175Y25097D01*
X78291Y25682D01*
Y32237D01*
X80777Y34722D01*
X80828Y34712D01*
X81679Y34882D01*
X82400Y35364D01*
X82882Y36085D01*
X83052Y36936D01*
X82882Y37787D01*
X82400Y38509D01*
X81679Y38991D01*
X80828Y39160D01*
X79977Y38991D01*
X79255Y38509D01*
X78773Y37787D01*
X78604Y36936D01*
X78614Y36885D01*
X75681Y33952D01*
X75349Y33456D01*
X75281Y33115D01*
X74807Y32869D01*
X74733Y32869D01*
X74691Y32895D01*
Y36008D01*
X75288D01*
X75851Y36120D01*
X76328Y36439D01*
X76647Y36916D01*
X76759Y37479D01*
Y40137D01*
X76647Y40700D01*
X76328Y41177D01*
X76124Y41313D01*
Y42996D01*
X76328Y43132D01*
X76647Y43609D01*
X76759Y44172D01*
Y46830D01*
X76647Y47393D01*
X76328Y47870D01*
X75851Y48189D01*
X75292Y48300D01*
Y49754D01*
X75175Y50340D01*
X74844Y50836D01*
X74732Y50948D01*
Y52081D01*
X75022Y52275D01*
X75308Y52703D01*
X75409Y53209D01*
Y56555D01*
X75585Y56770D01*
X85211D01*
X86134Y55848D01*
X86630Y55516D01*
X87215Y55400D01*
X87592D01*
X87621Y55357D01*
X88343Y54874D01*
X89194Y54705D01*
X90045Y54874D01*
X90766Y55357D01*
X91248Y56078D01*
X91417Y56929D01*
X91278Y57631D01*
X91569Y58131D01*
X91578D01*
X92141Y58243D01*
X92619Y58562D01*
X92755Y58766D01*
X94437D01*
X94573Y58562D01*
X94897Y58346D01*
X94848Y58273D01*
X94678Y57422D01*
X94848Y56571D01*
X95330Y55850D01*
X96051Y55368D01*
X96902Y55198D01*
X97753Y55368D01*
X98475Y55850D01*
X98957Y56571D01*
X99126Y57422D01*
X98957Y58273D01*
X98933Y58309D01*
X99312Y58562D01*
X99630Y59039D01*
X99742Y59602D01*
Y62653D01*
X99630Y63216D01*
X99445Y63495D01*
X99274Y63982D01*
X99572Y64427D01*
X99985Y64345D01*
X100678Y64483D01*
X101178Y64187D01*
Y50782D01*
X101314Y50099D01*
X101700Y49520D01*
X105101Y46120D01*
X105101Y46120D01*
X105679Y45733D01*
X106362Y45598D01*
X106592Y45567D01*
X107009Y44944D01*
X107016Y44939D01*
Y44439D01*
X107009Y44434D01*
X106592Y43811D01*
X106446Y43075D01*
Y41303D01*
X106592Y40567D01*
X107009Y39944D01*
X107016Y39939D01*
Y39578D01*
X106966Y39371D01*
X106761Y39064D01*
X106565Y39042D01*
X106247Y39075D01*
X106117Y39728D01*
X105635Y40450D01*
X104913Y40932D01*
X104062Y41101D01*
X103211Y40932D01*
X102490Y40450D01*
X102008Y39728D01*
X101838Y38877D01*
X102008Y38026D01*
X102490Y37305D01*
X103211Y36823D01*
X103435Y36778D01*
X103524Y36696D01*
X104300Y35920D01*
X104879Y35533D01*
X105562Y35398D01*
X106705D01*
X107009Y34944D01*
X107633Y34527D01*
X108369Y34380D01*
X114471D01*
X115207Y34527D01*
X115830Y34944D01*
X116247Y35568D01*
X116394Y36303D01*
Y38075D01*
X116247Y38811D01*
X115830Y39434D01*
X115824Y39439D01*
Y39939D01*
X115830Y39944D01*
X116247Y40567D01*
X116394Y41303D01*
Y43075D01*
X116247Y43811D01*
X115830Y44434D01*
X115824Y44439D01*
Y44939D01*
X115830Y44944D01*
X116247Y45568D01*
X116394Y46303D01*
Y48075D01*
X116247Y48811D01*
X115830Y49435D01*
X115824Y49439D01*
Y49939D01*
X115830Y49944D01*
X116247Y50568D01*
X116394Y51303D01*
Y53075D01*
X116247Y53811D01*
X115830Y54435D01*
X115824Y54439D01*
Y54939D01*
X115830Y54944D01*
X116247Y55567D01*
X116394Y56303D01*
Y58075D01*
X116247Y58811D01*
X115830Y59434D01*
X115824Y59439D01*
Y59939D01*
X115830Y59944D01*
X116247Y60567D01*
X116394Y61303D01*
Y63075D01*
X116247Y63811D01*
X115830Y64434D01*
X115824Y64439D01*
Y64939D01*
X115830Y64944D01*
X116247Y65567D01*
X116266Y65660D01*
X117194D01*
X117779Y65776D01*
X118275Y66108D01*
X120144Y67976D01*
X120475Y68472D01*
X120592Y69057D01*
Y95857D01*
X121092Y96233D01*
X121498Y96152D01*
X123270D01*
X124006Y96298D01*
X124589Y96688D01*
X124632Y96715D01*
X125139D01*
X125148Y96697D01*
X125258Y96177D01*
X124936Y95758D01*
X124677Y95131D01*
X124588Y94459D01*
X124677Y93787D01*
X124936Y93161D01*
X125349Y92623D01*
X125886Y92210D01*
X126513Y91951D01*
X127185Y91862D01*
X127857Y91951D01*
X128483Y92210D01*
X129021Y92623D01*
X129434Y93161D01*
X129693Y93787D01*
X129782Y94459D01*
X129693Y95131D01*
X129434Y95758D01*
X129300Y95932D01*
X129335Y96457D01*
X129395Y96559D01*
X129630Y96715D01*
X129634Y96722D01*
X130134D01*
X130139Y96715D01*
X130763Y96298D01*
X131498Y96152D01*
X133270D01*
X134006Y96298D01*
X134630Y96715D01*
X134634Y96722D01*
X135134D01*
X135139Y96715D01*
X135763Y96298D01*
X136498Y96152D01*
X138270D01*
X139006Y96298D01*
X139630Y96715D01*
X139634Y96722D01*
X140134D01*
X140139Y96715D01*
X140763Y96298D01*
X141498Y96152D01*
X143270D01*
X144006Y96298D01*
X144630Y96715D01*
X144634Y96722D01*
X145134D01*
X145139Y96715D01*
X145763Y96298D01*
X146498Y96152D01*
X148270D01*
X149006Y96298D01*
X149630Y96715D01*
X149634Y96722D01*
X150134D01*
X150139Y96715D01*
X150763Y96298D01*
X151498Y96152D01*
X153270D01*
X154006Y96298D01*
X154630Y96715D01*
X154634Y96722D01*
X155134D01*
X155139Y96715D01*
X155763Y96298D01*
X156498Y96152D01*
X158270D01*
X159006Y96298D01*
X159630Y96715D01*
X159634Y96722D01*
X160134D01*
X160139Y96715D01*
X160201Y96073D01*
X160036Y95857D01*
X159776Y95231D01*
X159688Y94559D01*
X159776Y93887D01*
X160036Y93260D01*
X160448Y92722D01*
X160986Y92310D01*
X161612Y92050D01*
X162285Y91962D01*
X162957Y92050D01*
X163583Y92310D01*
X164121Y92722D01*
X164534Y93260D01*
X164793Y93887D01*
X164882Y94559D01*
X164793Y95231D01*
X164534Y95857D01*
X164419Y96007D01*
X164462Y96555D01*
X164522Y96644D01*
X164630Y96715D01*
X165047Y97339D01*
X165193Y98075D01*
Y104177D01*
X165047Y104913D01*
X164630Y105537D01*
X164006Y105954D01*
X163270Y106100D01*
X161498D01*
X160763Y105954D01*
X160139Y105537D01*
X160134Y105530D01*
X159634D01*
X159630Y105537D01*
X159006Y105954D01*
X158270Y106100D01*
X156498D01*
X155763Y105954D01*
X155139Y105537D01*
X155134Y105530D01*
X154634D01*
X154630Y105537D01*
X154006Y105954D01*
X153270Y106100D01*
X151498D01*
X150763Y105954D01*
X150139Y105537D01*
X150134Y105530D01*
X149634D01*
X149630Y105537D01*
X149006Y105954D01*
X148270Y106100D01*
X146498D01*
X145763Y105954D01*
X145139Y105537D01*
X145134Y105530D01*
X144634D01*
X144630Y105537D01*
X144006Y105954D01*
X143270Y106100D01*
X141498D01*
X140763Y105954D01*
X140139Y105537D01*
X140134Y105530D01*
X139634D01*
X139630Y105537D01*
X139006Y105954D01*
X138270Y106100D01*
X136498D01*
X135763Y105954D01*
X135139Y105537D01*
X135134Y105530D01*
X134634D01*
X134630Y105537D01*
X134006Y105954D01*
X133270Y106100D01*
X131498D01*
X130763Y105954D01*
X130139Y105537D01*
X130134Y105530D01*
X129634D01*
X129630Y105537D01*
X129006Y105954D01*
X128270Y106100D01*
X126498D01*
X125763Y105954D01*
X125139Y105537D01*
X125134Y105530D01*
X124634D01*
X124630Y105537D01*
X124006Y105954D01*
X123270Y106100D01*
X121498D01*
X120763Y105954D01*
X120697Y105910D01*
X113933Y112674D01*
X113437Y113005D01*
X112852Y113122D01*
X83174D01*
X78950Y117346D01*
X78454Y117677D01*
X77868Y117794D01*
X75413D01*
X70129Y123078D01*
X70238Y123628D01*
Y124025D01*
X70600Y124097D01*
X71078Y124416D01*
X71396Y124893D01*
X71509Y125456D01*
Y128508D01*
X71396Y129071D01*
X71078Y129548D01*
X70622Y129853D01*
X70614Y129890D01*
X70762Y130353D01*
X74191D01*
X78483Y126060D01*
Y124272D01*
X78176Y124037D01*
X77763Y123499D01*
X77504Y122872D01*
X77416Y122200D01*
X77504Y121528D01*
X77763Y120902D01*
X78176Y120364D01*
X78714Y119951D01*
X79340Y119692D01*
X80013Y119603D01*
X80685Y119692D01*
X81311Y119951D01*
X81849Y120364D01*
X82262Y120902D01*
X82521Y121528D01*
X82610Y122200D01*
X82564Y122550D01*
X83022Y122902D01*
X83090Y122873D01*
X83762Y122785D01*
X84434Y122873D01*
X85061Y123133D01*
X85598Y123546D01*
X86011Y124083D01*
X86271Y124710D01*
X86359Y125382D01*
X86271Y126054D01*
X86011Y126681D01*
X85598Y127218D01*
X85061Y127631D01*
X84434Y127891D01*
X83762Y127979D01*
X83378Y127928D01*
X76771Y134536D01*
X76795Y134724D01*
X76946Y135036D01*
X78688D01*
X78875Y135073D01*
X79419Y134704D01*
X79453Y134443D01*
X79713Y133817D01*
X80126Y133279D01*
X81971Y131433D01*
X82509Y131021D01*
X83135Y130761D01*
X83728Y130683D01*
X83810Y130272D01*
X84156Y129754D01*
X84674Y129408D01*
X85285Y129287D01*
X91240D01*
X91851Y129408D01*
X92369Y129754D01*
X92715Y130272D01*
X92836Y130883D01*
Y130952D01*
X93461D01*
X93683Y130996D01*
X93759Y130974D01*
X94165Y130592D01*
Y128200D01*
X94277Y127637D01*
X94596Y127159D01*
X94800Y127023D01*
Y125341D01*
X94596Y125205D01*
X94277Y124727D01*
X94165Y124164D01*
Y121507D01*
X94277Y120944D01*
X94596Y120466D01*
X94775Y120347D01*
X94654Y120054D01*
X94565Y119382D01*
X94654Y118710D01*
X94913Y118084D01*
X95326Y117546D01*
X95864Y117133D01*
X96490Y116874D01*
X97162Y116785D01*
X97834Y116874D01*
X98461Y117133D01*
X98998Y117546D01*
X99411Y118084D01*
X99671Y118710D01*
X99759Y119382D01*
X99671Y120054D01*
X99549Y120347D01*
X99728Y120466D01*
X100047Y120944D01*
X100159Y121507D01*
Y124164D01*
X100047Y124727D01*
X99728Y125205D01*
X99524Y125341D01*
Y127023D01*
X99728Y127159D01*
X99862Y127359D01*
X100439D01*
X100510Y127288D01*
X100596Y127159D01*
X100726Y127073D01*
X100800Y126999D01*
Y124607D01*
X105524D01*
Y127023D01*
X105728Y127159D01*
X105862Y127359D01*
X106439D01*
X106510Y127288D01*
X106596Y127159D01*
X106726Y127073D01*
X106800Y126999D01*
Y124607D01*
X111524D01*
Y127023D01*
X111728Y127159D01*
X112047Y127637D01*
X112159Y128200D01*
Y129592D01*
X112659Y129859D01*
X112663Y129857D01*
X113248Y129740D01*
X113516D01*
Y129656D01*
X113628Y129093D01*
X113947Y128616D01*
X114424Y128297D01*
X114987Y128185D01*
X117645D01*
X118207Y128297D01*
X118685Y128616D01*
X118821Y128820D01*
X120503D01*
X120640Y128616D01*
X121117Y128297D01*
X121680Y128185D01*
X124337D01*
X124900Y128297D01*
X125378Y128616D01*
X125697Y129093D01*
X125809Y129656D01*
Y132708D01*
X125697Y133271D01*
X125378Y133748D01*
X124900Y134067D01*
X124337Y134179D01*
X122097D01*
X121237Y135039D01*
Y139544D01*
X118821D01*
X118685Y139748D01*
X118207Y140067D01*
X117644Y140179D01*
X115980D01*
X115882Y140313D01*
X115759Y140679D01*
X116036Y141094D01*
X116157Y141705D01*
Y147659D01*
X116036Y148270D01*
X115889Y148490D01*
Y149981D01*
X115786Y150764D01*
X115483Y151494D01*
X115003Y152121D01*
X114376Y152602D01*
X113646Y152904D01*
X112863Y153007D01*
X112080Y152904D01*
X111350Y152602D01*
X110723Y152121D01*
X110242Y151494D01*
X109940Y150764D01*
X109837Y149981D01*
Y148490D01*
X109690Y148270D01*
X109569Y147659D01*
Y145732D01*
X107720D01*
X107719Y145732D01*
X105652D01*
X105535Y145709D01*
X105289Y146170D01*
X105444Y146324D01*
X105775Y146820D01*
X105892Y147406D01*
Y153013D01*
X109020Y156141D01*
X109095Y156208D01*
X109144Y156246D01*
X116223D01*
X117074Y156416D01*
X117795Y156898D01*
X118277Y157619D01*
X118447Y158470D01*
Y169494D01*
X118277Y170345D01*
X117795Y171066D01*
X117074Y171548D01*
X116223Y171718D01*
X109136D01*
X108285Y171548D01*
X107564Y171066D01*
X107082Y170345D01*
X106912Y169494D01*
Y158470D01*
X106927Y158397D01*
X106809Y158256D01*
X103281Y154728D01*
X102949Y154232D01*
X102833Y153646D01*
Y148039D01*
X102566Y147772D01*
X102252Y147710D01*
X101872Y147456D01*
X101619Y147077D01*
X101529Y146629D01*
Y141609D01*
X101619Y141161D01*
X101872Y140782D01*
X102252Y140528D01*
X102700Y140439D01*
X103585D01*
X104033Y140528D01*
X104413Y140782D01*
X104479Y140880D01*
X104825D01*
X105204Y140627D01*
X105652Y140538D01*
X107719D01*
X107720Y140538D01*
X110093D01*
X110554Y140230D01*
X111165Y140108D01*
X111292D01*
X111293Y140097D01*
Y139767D01*
X111428Y139085D01*
X111815Y138506D01*
X113182Y137139D01*
X113182Y137139D01*
X113516Y136916D01*
Y135698D01*
X113419Y135617D01*
X113045Y135462D01*
X112244Y136263D01*
X111747Y136595D01*
X111162Y136711D01*
X110351D01*
X108889Y138173D01*
Y138656D01*
X108800Y139104D01*
X108547Y139484D01*
X108167Y139737D01*
X107719Y139827D01*
X105652D01*
X105204Y139737D01*
X104825Y139484D01*
X104571Y139104D01*
X104482Y138656D01*
Y137771D01*
X104571Y137323D01*
X104825Y136943D01*
X105204Y136689D01*
X105652Y136600D01*
X106136D01*
X107633Y135104D01*
Y132328D01*
X107074Y132216D01*
X106596Y131897D01*
X106463Y131698D01*
X105862D01*
X105728Y131897D01*
X105251Y132216D01*
X104692Y132328D01*
Y133182D01*
X104575Y133767D01*
X104244Y134263D01*
X103688Y134819D01*
Y135086D01*
X103771Y135507D01*
Y137574D01*
X103682Y138022D01*
X103428Y138401D01*
X103049Y138655D01*
X102601Y138744D01*
X101715D01*
X101268Y138655D01*
X101174Y138592D01*
X101080Y138655D01*
X100633Y138744D01*
X99747D01*
X99299Y138655D01*
X99205Y138592D01*
X99112Y138655D01*
X98664Y138744D01*
X98012D01*
X97732Y139225D01*
X97777Y139291D01*
X97866Y139739D01*
Y140227D01*
X98272Y140499D01*
X98366Y140518D01*
X98763Y140439D01*
X99648D01*
X100096Y140528D01*
X100476Y140782D01*
X100729Y141161D01*
X100819Y141609D01*
Y146629D01*
X100729Y147077D01*
X100476Y147456D01*
X100096Y147710D01*
X99782Y147772D01*
X99492Y148063D01*
Y153982D01*
X99375Y154567D01*
X99044Y155063D01*
X95727Y158380D01*
X95660Y158456D01*
X95612Y158517D01*
Y169494D01*
X95443Y170345D01*
X94961Y171066D01*
X94239Y171548D01*
X93388Y171718D01*
X86301D01*
X85451Y171548D01*
X84729Y171066D01*
X84247Y170345D01*
X84078Y169494D01*
Y167293D01*
X83616Y167101D01*
X82534Y168183D01*
Y168963D01*
X82762Y169009D01*
X83197Y169299D01*
X83487Y169734D01*
X83590Y170247D01*
Y173185D01*
X123186D01*
X129365Y167006D01*
Y148702D01*
X129453Y148030D01*
X129713Y147403D01*
X130126Y146865D01*
X131210Y145781D01*
Y137981D01*
X131299Y137309D01*
X131558Y136683D01*
X131971Y136145D01*
X133968Y134148D01*
X134162Y133999D01*
Y132865D01*
X134283Y132254D01*
X134629Y131736D01*
X135147Y131390D01*
X135758Y131269D01*
X141713D01*
X142324Y131390D01*
X142842Y131736D01*
X143188Y132254D01*
X143309Y132865D01*
Y133108D01*
X144414D01*
X144735Y132608D01*
X144665Y132257D01*
Y129600D01*
X144777Y129037D01*
X145096Y128559D01*
X145300Y128423D01*
Y126741D01*
X145096Y126605D01*
X144777Y126127D01*
X144665Y125564D01*
Y122907D01*
X144777Y122344D01*
X145096Y121867D01*
X145232Y121776D01*
X145083Y121417D01*
X144995Y120745D01*
X145083Y120073D01*
X145343Y119447D01*
X145755Y118909D01*
X146293Y118496D01*
X146920Y118237D01*
X147592Y118148D01*
X148264Y118237D01*
X148890Y118496D01*
X149428Y118909D01*
X149841Y119447D01*
X150100Y120073D01*
X150189Y120745D01*
X150100Y121417D01*
X149982Y121702D01*
X150228Y121867D01*
X150547Y122344D01*
X150659Y122907D01*
Y125564D01*
X150547Y126127D01*
X150228Y126605D01*
X150024Y126741D01*
Y128423D01*
X150228Y128559D01*
X150382Y128789D01*
X150965Y128770D01*
X151130Y128523D01*
X151333Y128386D01*
Y125970D01*
X156058D01*
Y128386D01*
X156262Y128523D01*
X156440Y128789D01*
X157009Y128785D01*
X157190Y128514D01*
X157393Y128377D01*
Y125961D01*
X162118D01*
Y128377D01*
X162321Y128514D01*
X162640Y128991D01*
X162752Y129554D01*
Y129989D01*
X163244Y130263D01*
X163516Y130102D01*
Y130056D01*
X163628Y129493D01*
X163947Y129016D01*
X164424Y128697D01*
X164987Y128585D01*
X167645D01*
X168207Y128697D01*
X168685Y129016D01*
X168821Y129220D01*
X170503D01*
X170640Y129016D01*
X171117Y128697D01*
X171680Y128585D01*
X174337D01*
X174900Y128697D01*
X175378Y129016D01*
X175697Y129493D01*
X175809Y130056D01*
Y133108D01*
X175697Y133671D01*
X175378Y134148D01*
X174900Y134467D01*
X174337Y134579D01*
X172178D01*
X171237Y135520D01*
Y140044D01*
X168821D01*
X168685Y140248D01*
X168207Y140567D01*
X167644Y140679D01*
X166704D01*
X166440Y141041D01*
X166397Y141179D01*
X166412Y141237D01*
X166443Y141335D01*
X166474Y141415D01*
X166504Y141476D01*
X166556Y141563D01*
X166565Y141588D01*
X166636Y141694D01*
X166658Y141803D01*
X166666Y141820D01*
X166669Y141861D01*
X166676Y141896D01*
X166691Y141937D01*
X166690Y141964D01*
X166757Y142305D01*
Y148259D01*
X166636Y148870D01*
X166488Y149092D01*
Y150282D01*
X166385Y151065D01*
X166083Y151795D01*
X165602Y152422D01*
X164975Y152902D01*
X164245Y153205D01*
X163462Y153308D01*
X162679Y153205D01*
X161949Y152902D01*
X161322Y152422D01*
X160842Y151795D01*
X160539Y151065D01*
X160436Y150282D01*
Y149089D01*
X160290Y148870D01*
X160169Y148259D01*
Y147032D01*
X158396D01*
X158396Y147032D01*
X156329D01*
X156212Y147009D01*
X155965Y147470D01*
X156044Y147548D01*
X156375Y148044D01*
X156492Y148629D01*
Y153049D01*
X159664Y156221D01*
X159850Y156184D01*
X166937D01*
X167788Y156353D01*
X168509Y156835D01*
X168991Y157557D01*
X169161Y158408D01*
Y169432D01*
X168991Y170283D01*
X168509Y171004D01*
X167788Y171486D01*
X166937Y171655D01*
X159850D01*
X158999Y171486D01*
X158278Y171004D01*
X157796Y170283D01*
X157626Y169432D01*
Y158509D01*
X153881Y154763D01*
X153549Y154267D01*
X153433Y153682D01*
Y149263D01*
X153243Y149072D01*
X152928Y149010D01*
X152549Y148756D01*
X152295Y148377D01*
X152206Y147929D01*
Y142909D01*
X152295Y142461D01*
X152549Y142082D01*
X152928Y141828D01*
X153376Y141739D01*
X154262D01*
X154709Y141828D01*
X155089Y142082D01*
X155155Y142180D01*
X155501D01*
X155881Y141927D01*
X156329Y141838D01*
X158396D01*
X158396Y141838D01*
X160261D01*
X160290Y141694D01*
X160636Y141176D01*
X161154Y140830D01*
X161765Y140708D01*
X162742D01*
X162744Y140692D01*
X162753Y140588D01*
Y139657D01*
X162889Y138974D01*
X163276Y138395D01*
X163465Y138207D01*
X163426Y137861D01*
X162935Y137671D01*
X162844Y137763D01*
X162347Y138095D01*
X161762Y138211D01*
X160043D01*
X159573Y138682D01*
Y139423D01*
X159566Y139458D01*
Y139956D01*
X159477Y140404D01*
X159223Y140784D01*
X158843Y141037D01*
X158396Y141127D01*
X156329D01*
X155881Y141037D01*
X155501Y140784D01*
X155248Y140404D01*
X155159Y139956D01*
Y139071D01*
X155248Y138623D01*
X155501Y138243D01*
X155881Y137989D01*
X156329Y137900D01*
X156543D01*
X156630Y137463D01*
X156962Y136967D01*
X157735Y136194D01*
Y133584D01*
X157667Y133571D01*
X157190Y133252D01*
X157011Y132985D01*
X156443Y132990D01*
X156262Y133261D01*
X155784Y133579D01*
X155225Y133691D01*
Y134348D01*
X155109Y134934D01*
X154777Y135430D01*
X154364Y135843D01*
Y136386D01*
X154448Y136807D01*
Y138874D01*
X154359Y139321D01*
X154105Y139701D01*
X153725Y139955D01*
X153278Y140044D01*
X152392D01*
X151944Y139955D01*
X151850Y139892D01*
X151757Y139955D01*
X151309Y140044D01*
X150423D01*
X149975Y139955D01*
X149882Y139892D01*
X149788Y139955D01*
X149340Y140044D01*
X148689D01*
X148409Y140525D01*
X148453Y140591D01*
X148542Y141039D01*
Y141527D01*
X148948Y141799D01*
X149042Y141818D01*
X149439Y141739D01*
X150325D01*
X150773Y141828D01*
X151152Y142082D01*
X151406Y142461D01*
X151495Y142909D01*
Y147929D01*
X151406Y148377D01*
X151152Y148756D01*
X150773Y149010D01*
X150494Y149065D01*
X150392Y149156D01*
Y154182D01*
X150275Y154767D01*
X149944Y155263D01*
X146437Y158771D01*
X146385Y158805D01*
X146326Y158864D01*
Y169432D01*
X146157Y170283D01*
X145675Y171004D01*
X144953Y171486D01*
X144102Y171655D01*
X137016D01*
X136165Y171486D01*
X135443Y171004D01*
X134961Y170283D01*
X134792Y169432D01*
Y169286D01*
X134292Y169186D01*
X134211Y169381D01*
X133799Y169919D01*
X126099Y177619D01*
X125561Y178031D01*
X124934Y178291D01*
X124262Y178379D01*
D02*
G37*
G36*
X38062Y155462D02*
X36773Y155292D01*
X35572Y154795D01*
X34541Y154003D01*
X33750Y152972D01*
X33252Y151771D01*
X33083Y150482D01*
X33252Y149193D01*
X33750Y147992D01*
X34541Y146961D01*
X35572Y146169D01*
X36773Y145672D01*
X38062Y145502D01*
X39351Y145672D01*
X40552Y146169D01*
X41583Y146961D01*
X42375Y147992D01*
X42872Y149193D01*
X43042Y150482D01*
X42872Y151771D01*
X42375Y152972D01*
X41583Y154003D01*
X40552Y154795D01*
X39351Y155292D01*
X38062Y155462D01*
D02*
G37*
G36*
X20739D02*
X19451Y155292D01*
X18249Y154795D01*
X17218Y154003D01*
X16427Y152972D01*
X15929Y151771D01*
X15760Y150482D01*
X15929Y149193D01*
X16427Y147992D01*
X17218Y146961D01*
X18249Y146169D01*
X19451Y145672D01*
X20739Y145502D01*
X22028Y145672D01*
X23229Y146169D01*
X24261Y146961D01*
X25052Y147992D01*
X25549Y149193D01*
X25719Y150482D01*
X25549Y151771D01*
X25052Y152972D01*
X24261Y154003D01*
X23229Y154795D01*
X22028Y155292D01*
X20739Y155462D01*
D02*
G37*
G36*
X178390Y127084D02*
X176028D01*
X175484Y126976D01*
X175023Y126668D01*
X174878Y126451D01*
X171894D01*
Y122513D01*
X174878D01*
X175023Y122296D01*
X175484Y121988D01*
X176028Y121880D01*
X178390D01*
X178934Y121988D01*
X179394Y122296D01*
X179663Y122698D01*
X185623D01*
X195178Y113143D01*
Y107477D01*
X194874Y107416D01*
X194528Y107185D01*
X194167Y107137D01*
X193857Y107191D01*
X193498Y107430D01*
X193220Y107486D01*
X193202Y107594D01*
X193194Y107686D01*
Y112334D01*
X193058Y113017D01*
X192672Y113596D01*
X192672Y113596D01*
X187324Y118944D01*
X186745Y119331D01*
X186062Y119466D01*
X179999D01*
X179903Y119474D01*
X179799Y119492D01*
X179756Y119707D01*
X179448Y120168D01*
X178987Y120476D01*
X178443Y120584D01*
X176081D01*
X175537Y120476D01*
X175076Y120168D01*
X174931Y119950D01*
X171947D01*
Y116014D01*
X174931D01*
X175076Y115796D01*
X175537Y115488D01*
X176081Y115380D01*
X178443D01*
X178987Y115488D01*
X179183Y115619D01*
X179188Y115621D01*
X179200Y115630D01*
X179448Y115796D01*
X179471Y115830D01*
X179509Y115841D01*
X179610Y115863D01*
X179734Y115881D01*
X179964Y115898D01*
X185323D01*
X189626Y111595D01*
Y107686D01*
X189618Y107594D01*
X189600Y107486D01*
X189321Y107430D01*
X188844Y107112D01*
X188293Y107187D01*
X187951Y107416D01*
X187672Y107472D01*
X187654Y107580D01*
X187646Y107672D01*
Y108482D01*
X187511Y109165D01*
X187124Y109744D01*
X187124Y109744D01*
X183824Y113044D01*
X183245Y113431D01*
X182562Y113566D01*
X179663D01*
X179394Y113968D01*
X178934Y114276D01*
X178390Y114384D01*
X176028D01*
X175484Y114276D01*
X175023Y113968D01*
X174878Y113751D01*
X171894D01*
Y109813D01*
X174878D01*
X175023Y109596D01*
X175484Y109288D01*
X176028Y109180D01*
X178390D01*
X178934Y109288D01*
X179394Y109596D01*
X179663Y109998D01*
X181823D01*
X183874Y107946D01*
X183785Y107475D01*
X183730Y107387D01*
X183296Y107097D01*
X182977Y106620D01*
X182865Y106057D01*
Y103400D01*
X182977Y102837D01*
X183296Y102359D01*
X183500Y102223D01*
Y100541D01*
X183296Y100405D01*
X182977Y99927D01*
X182971Y99895D01*
X182415Y99664D01*
X182136Y99851D01*
X181400Y99998D01*
X175298D01*
X174562Y99851D01*
X173938Y99435D01*
X173521Y98811D01*
X173375Y98075D01*
Y96303D01*
X173521Y95567D01*
X173938Y94944D01*
X173945Y94939D01*
Y94439D01*
X173938Y94434D01*
X173521Y93811D01*
X173375Y93075D01*
Y91303D01*
X173521Y90567D01*
X173938Y89944D01*
X173945Y89939D01*
Y89439D01*
X173938Y89434D01*
X173521Y88811D01*
X173375Y88075D01*
Y86303D01*
X173521Y85567D01*
X173938Y84944D01*
X173945Y84939D01*
Y84439D01*
X173938Y84434D01*
X173521Y83811D01*
X173375Y83075D01*
Y81303D01*
X173521Y80567D01*
X173938Y79944D01*
X173945Y79939D01*
Y79439D01*
X173938Y79435D01*
X173521Y78811D01*
X173375Y78075D01*
Y76303D01*
X173521Y75567D01*
X173938Y74944D01*
X173945Y74939D01*
Y74439D01*
X173938Y74435D01*
X173630Y73973D01*
X173301D01*
X172859Y74182D01*
X172771Y74854D01*
X172511Y75481D01*
X172099Y76018D01*
X171561Y76431D01*
X170934Y76691D01*
X170262Y76779D01*
X169590Y76691D01*
X168964Y76431D01*
X168426Y76018D01*
X168013Y75481D01*
X167754Y74854D01*
X167665Y74182D01*
X167754Y73510D01*
X168013Y72883D01*
X168426Y72346D01*
X168964Y71933D01*
X169590Y71674D01*
X170262Y71585D01*
X170327Y71594D01*
X170993Y70927D01*
X171572Y70541D01*
X172255Y70405D01*
X173630D01*
X173938Y69944D01*
X173945Y69939D01*
Y69439D01*
X173938Y69434D01*
X173521Y68811D01*
X173375Y68075D01*
Y68036D01*
X172231D01*
X172231Y68036D01*
X171549Y67900D01*
X170970Y67513D01*
X170970Y67513D01*
X170827Y67370D01*
X170762Y67379D01*
X170090Y67291D01*
X169464Y67031D01*
X168926Y66618D01*
X168513Y66080D01*
X168254Y65454D01*
X168165Y64782D01*
X168254Y64110D01*
X168513Y63484D01*
X168926Y62946D01*
X169464Y62533D01*
X170090Y62274D01*
X170762Y62185D01*
X171434Y62274D01*
X172061Y62533D01*
X172599Y62946D01*
X172924Y63369D01*
X173391Y63157D01*
X173375Y63075D01*
Y61303D01*
X173521Y60567D01*
X173938Y59944D01*
X173945Y59939D01*
Y59439D01*
X173938Y59434D01*
X173521Y58811D01*
X173375Y58075D01*
Y56303D01*
X173521Y55567D01*
X173938Y54944D01*
X173945Y54939D01*
Y54439D01*
X173938Y54435D01*
X173521Y53811D01*
X173375Y53075D01*
Y51303D01*
X173521Y50568D01*
X173938Y49944D01*
X173945Y49939D01*
Y49439D01*
X173938Y49435D01*
X173521Y48811D01*
X173375Y48075D01*
Y46303D01*
X173521Y45568D01*
X173938Y44944D01*
X173945Y44939D01*
Y44578D01*
X173895Y44371D01*
X173527Y43820D01*
X172964D01*
X172560Y44090D01*
X171709Y44259D01*
X170858Y44090D01*
X170136Y43608D01*
X169654Y42887D01*
X169485Y42035D01*
X169654Y41184D01*
X170136Y40463D01*
X170858Y39981D01*
X171310Y39891D01*
Y39381D01*
X170618Y39244D01*
X169897Y38762D01*
X169415Y38040D01*
X169245Y37189D01*
X169415Y36338D01*
X169897Y35617D01*
X170618Y35135D01*
X171469Y34965D01*
X172320Y35135D01*
X172725Y35405D01*
X173630D01*
X173938Y34944D01*
X174562Y34527D01*
X175298Y34380D01*
X181400D01*
X182136Y34527D01*
X182760Y34944D01*
X183068Y35405D01*
X184888D01*
X186622Y33671D01*
X186677Y33390D01*
X186996Y32913D01*
X187474Y32594D01*
X188037Y32482D01*
X191088D01*
X191651Y32594D01*
X192128Y32913D01*
X192447Y33390D01*
X192559Y33953D01*
Y36607D01*
X192564Y36615D01*
X192990Y37007D01*
X197524D01*
Y39423D01*
X197728Y39559D01*
X198047Y40037D01*
X198159Y40600D01*
Y43257D01*
X198047Y43820D01*
X197728Y44298D01*
X197251Y44616D01*
X196688Y44728D01*
X193637D01*
X193074Y44616D01*
X192710Y44373D01*
X192257Y44350D01*
X192058Y44391D01*
X191651Y44663D01*
X191088Y44775D01*
X188037D01*
X187474Y44663D01*
X186996Y44344D01*
X186677Y43867D01*
X186677Y43866D01*
X183412D01*
X183290Y43876D01*
X183116Y43901D01*
X182802Y44371D01*
X182753Y44578D01*
Y44939D01*
X182760Y44944D01*
X183176Y45568D01*
X183323Y46303D01*
Y48075D01*
X183176Y48811D01*
X182760Y49435D01*
X182753Y49439D01*
Y49801D01*
X182802Y50007D01*
X183037Y50359D01*
X183060Y50365D01*
X183441Y50405D01*
X186769D01*
X187452Y50541D01*
X188031Y50927D01*
X198224Y61120D01*
X198611Y61699D01*
X198746Y62382D01*
Y95287D01*
X199051Y95348D01*
X199528Y95666D01*
X199847Y96144D01*
X199959Y96707D01*
Y99364D01*
X199847Y99927D01*
X199528Y100405D01*
X199324Y100541D01*
Y102223D01*
X199528Y102359D01*
X199847Y102837D01*
X199959Y103400D01*
Y106057D01*
X199847Y106620D01*
X199528Y107097D01*
X199051Y107416D01*
X198746Y107477D01*
Y113882D01*
X198611Y114565D01*
X198224Y115144D01*
X198224Y115144D01*
X187624Y125744D01*
X187045Y126130D01*
X186362Y126266D01*
X179663D01*
X179394Y126668D01*
X178934Y126976D01*
X178390Y127084D01*
D02*
G37*
%LPD*%
G36*
X109421Y157303D02*
X109343Y157357D01*
X109252Y157384D01*
X109148Y157385D01*
X109032Y157359D01*
X108903Y157307D01*
X108762Y157228D01*
X108608Y157122D01*
X108441Y156990D01*
X108262Y156832D01*
X108070Y156647D01*
X107342Y157333D01*
X107526Y157524D01*
X107813Y157867D01*
X107916Y158018D01*
X107992Y158157D01*
X108041Y158283D01*
X108064Y158396D01*
X108059Y158495D01*
X108028Y158582D01*
X107969Y158655D01*
X109421Y157303D01*
D02*
G37*
G36*
X94503Y158711D02*
X94478Y158618D01*
X94478Y158514D01*
X94505Y158396D01*
X94559Y158266D01*
X94639Y158124D01*
X94745Y157969D01*
X94878Y157801D01*
X95037Y157621D01*
X95222Y157429D01*
X94551Y156686D01*
X94360Y156870D01*
X94019Y157156D01*
X93868Y157258D01*
X93730Y157333D01*
X93606Y157381D01*
X93494Y157402D01*
X93396Y157396D01*
X93311Y157363D01*
X93239Y157303D01*
X94555Y158791D01*
X94503Y158711D01*
D02*
G37*
G36*
X62845Y155665D02*
X63465Y155189D01*
X64187Y154890D01*
X64962Y154788D01*
X65737Y154890D01*
X66459Y155189D01*
X67079Y155665D01*
X67212Y155838D01*
X67712D01*
X67845Y155665D01*
X68465Y155189D01*
X69187Y154890D01*
X69962Y154788D01*
X70737Y154890D01*
X71459Y155189D01*
X71944Y155561D01*
X72283Y155315D01*
X72343Y155237D01*
X72233Y154682D01*
Y150412D01*
X71733Y150165D01*
X71459Y150375D01*
X70737Y150674D01*
X69962Y150776D01*
X69187Y150674D01*
X68465Y150375D01*
X67845Y149899D01*
X67712Y149726D01*
X67212D01*
X67079Y149899D01*
X66459Y150375D01*
X65737Y150674D01*
X64962Y150776D01*
X64187Y150674D01*
X63465Y150375D01*
X63141Y150126D01*
X61946Y151321D01*
Y156054D01*
X62017Y156093D01*
X62446Y156184D01*
X62845Y155665D01*
D02*
G37*
G36*
X149450Y148627D02*
X149942Y148193D01*
X150029Y148132D01*
X150103Y148089D01*
X150162Y148066D01*
X150207Y148061D01*
X150238Y148076D01*
X149292Y147130D01*
X149306Y147161D01*
X149302Y147206D01*
X149279Y147265D01*
X149236Y147338D01*
X149175Y147426D01*
X149095Y147528D01*
X148878Y147773D01*
X148585Y148076D01*
X149292Y148783D01*
X149450Y148627D01*
D02*
G37*
G36*
X135443Y156835D02*
X136165Y156353D01*
X137016Y156184D01*
X144102D01*
X144598Y156283D01*
X147333Y153549D01*
Y148506D01*
X147449Y147920D01*
X147753Y147466D01*
X147708Y147321D01*
X147489Y147009D01*
X147372Y147032D01*
X145305D01*
X145254Y147022D01*
X145123Y147039D01*
X143721D01*
X143059Y147702D01*
Y148157D01*
X142947Y148720D01*
X142628Y149197D01*
X142151Y149516D01*
X141588Y149628D01*
X138537D01*
X137974Y149516D01*
X137880Y149454D01*
X134883D01*
X134559Y149778D01*
Y157258D01*
X135059Y157410D01*
X135443Y156835D01*
D02*
G37*
G36*
X85475Y156411D02*
X86301Y156246D01*
X93388D01*
X93492Y156267D01*
X93629Y156153D01*
X96433Y153349D01*
Y147429D01*
X96549Y146844D01*
X96881Y146348D01*
X97059Y146170D01*
X96813Y145709D01*
X96696Y145732D01*
X94679D01*
X94678Y145732D01*
X92211D01*
X91859Y146084D01*
Y146857D01*
X91747Y147420D01*
X91428Y147898D01*
X90951Y148216D01*
X90388Y148328D01*
X87337D01*
X86774Y148216D01*
X86623Y148116D01*
X85728D01*
X84975Y148869D01*
Y156159D01*
X85387Y156416D01*
X85475Y156411D01*
D02*
G37*
G36*
X113570Y143691D02*
X113499Y143617D01*
X113376Y143472D01*
X113326Y143401D01*
X113282Y143332D01*
X113246Y143263D01*
X113216Y143196D01*
X113193Y143130D01*
X113177Y143065D01*
X113169Y143002D01*
X111466Y144704D01*
X111530Y144713D01*
X111594Y144729D01*
X111661Y144752D01*
X111728Y144781D01*
X111796Y144818D01*
X111866Y144861D01*
X111936Y144912D01*
X112008Y144970D01*
X112156Y145106D01*
X113570Y143691D01*
D02*
G37*
G36*
X165608Y141964D02*
X165540Y141826D01*
X165481Y141676D01*
X165430Y141513D01*
X165386Y141337D01*
X165351Y141148D01*
X165303Y140732D01*
X165291Y140505D01*
X165287Y140265D01*
X163787Y140240D01*
X163780Y140544D01*
X163758Y140815D01*
X163720Y141051D01*
X163668Y141253D01*
X163600Y141422D01*
X163517Y141556D01*
X163420Y141656D01*
X163307Y141722D01*
X163180Y141754D01*
X163038Y141752D01*
X165683Y142088D01*
X165608Y141964D01*
D02*
G37*
G36*
X114331Y141138D02*
X114225Y141096D01*
X114132Y141027D01*
X114051Y140930D01*
X113982Y140806D01*
X113926Y140653D01*
X113883Y140473D01*
X113852Y140266D01*
X113833Y140030D01*
X113827Y139767D01*
X112327D01*
X112321Y140030D01*
X112302Y140266D01*
X112271Y140473D01*
X112227Y140653D01*
X112171Y140806D01*
X112103Y140930D01*
X112022Y141027D01*
X111928Y141096D01*
X111823Y141138D01*
X111704Y141152D01*
X114449D01*
X114331Y141138D01*
D02*
G37*
G36*
X142025Y141041D02*
X142056Y140955D01*
X142106Y140881D01*
X142177Y140816D01*
X142268Y140761D01*
X142379Y140716D01*
X142511Y140681D01*
X142663Y140656D01*
X142835Y140641D01*
X143027Y140636D01*
Y139636D01*
X142835Y139630D01*
X142663Y139616D01*
X142511Y139591D01*
X142379Y139556D01*
X142268Y139511D01*
X142177Y139455D01*
X142106Y139391D01*
X142056Y139316D01*
X142025Y139231D01*
X142015Y139136D01*
Y141136D01*
X142025Y141041D01*
D02*
G37*
G36*
X158508Y138961D02*
X158515Y138937D01*
X158521Y138894D01*
X158527Y138832D01*
X158541Y138399D01*
X158542Y138071D01*
X157543Y138049D01*
X157539Y138219D01*
X157510Y138505D01*
X157483Y138620D01*
X157449Y138718D01*
X157408Y138798D01*
X157359Y138860D01*
X157303Y138903D01*
X157239Y138928D01*
X157168Y138936D01*
X158499Y138967D01*
X158508Y138961D01*
D02*
G37*
G36*
X145688Y138746D02*
X145604Y138657D01*
X145533Y138569D01*
X145473Y138482D01*
X145425Y138395D01*
X145389Y138309D01*
X145365Y138224D01*
X145352Y138139D01*
X145351Y138056D01*
X145362Y137972D01*
X145385Y137890D01*
X143902Y138621D01*
X143976Y138648D01*
X144052Y138682D01*
X144129Y138722D01*
X144207Y138768D01*
X144368Y138880D01*
X144450Y138945D01*
X144620Y139095D01*
X144707Y139179D01*
X145688Y138746D01*
D02*
G37*
G36*
X90825Y139787D02*
X90856Y139702D01*
X90906Y139627D01*
X90977Y139562D01*
X91068Y139507D01*
X91179Y139462D01*
X91311Y139427D01*
X91463Y139402D01*
X91635Y139387D01*
X91827Y139382D01*
Y138382D01*
X91635Y138377D01*
X91463Y138362D01*
X91311Y138337D01*
X91179Y138302D01*
X91068Y138257D01*
X90977Y138202D01*
X90906Y138137D01*
X90856Y138062D01*
X90825Y137977D01*
X90815Y137882D01*
Y139882D01*
X90825Y139787D01*
D02*
G37*
G36*
X94918Y137352D02*
X94835Y137265D01*
X94762Y137177D01*
X94697Y137089D01*
X94642Y137000D01*
X94596Y136911D01*
X94560Y136822D01*
X94532Y136732D01*
X94514Y136641D01*
X94505Y136550D01*
X94504Y136459D01*
X93290Y137581D01*
X93380Y137588D01*
X93471Y137603D01*
X93561Y137627D01*
X93651Y137659D01*
X93740Y137699D01*
X93829Y137748D01*
X93917Y137806D01*
X94005Y137872D01*
X94092Y137946D01*
X94179Y138028D01*
X94918Y137352D01*
D02*
G37*
G36*
X168013Y138130D02*
X168002Y137962D01*
X168041Y137767D01*
X168128Y137543D01*
X168264Y137292D01*
X168448Y137013D01*
X168682Y136706D01*
X169294Y136010D01*
X169674Y135620D01*
X168516Y134656D01*
X168188Y134974D01*
X167609Y135469D01*
X167359Y135646D01*
X167133Y135777D01*
X166934Y135861D01*
X166761Y135898D01*
X166613Y135888D01*
X166491Y135832D01*
X166395Y135729D01*
X168072Y138271D01*
X168013Y138130D01*
D02*
G37*
G36*
X118014Y137649D02*
X118004Y137480D01*
X118043Y137284D01*
X118131Y137060D01*
X118266Y136809D01*
X118451Y136530D01*
X118684Y136223D01*
X119296Y135527D01*
X119675Y135138D01*
X118535Y134156D01*
X118206Y134475D01*
X117627Y134971D01*
X117375Y135149D01*
X117150Y135279D01*
X116951Y135363D01*
X116778Y135400D01*
X116631Y135390D01*
X116509Y135333D01*
X116414Y135229D01*
X118072Y137790D01*
X118014Y137649D01*
D02*
G37*
G36*
X142276Y135543D02*
X142306Y135458D01*
X142357Y135383D01*
X142428Y135318D01*
X142519Y135263D01*
X142630Y135218D01*
X142762Y135183D01*
X142913Y135158D01*
X143085Y135143D01*
X143278Y135138D01*
Y134138D01*
X143085Y134133D01*
X142913Y134118D01*
X142762Y134093D01*
X142630Y134058D01*
X142519Y134013D01*
X142428Y133958D01*
X142357Y133893D01*
X142306Y133818D01*
X142276Y133733D01*
X142266Y133638D01*
Y135638D01*
X142276Y135543D01*
D02*
G37*
G36*
X148167Y133504D02*
X148182Y133332D01*
X148207Y133180D01*
X148242Y133049D01*
X148287Y132938D01*
X148342Y132846D01*
X148407Y132776D01*
X148482Y132725D01*
X148567Y132695D01*
X148662Y132685D01*
X146662D01*
X146757Y132695D01*
X146842Y132725D01*
X146917Y132776D01*
X146982Y132846D01*
X147037Y132938D01*
X147082Y133049D01*
X147117Y133180D01*
X147142Y133332D01*
X147157Y133504D01*
X147162Y133696D01*
X148162D01*
X148167Y133504D01*
D02*
G37*
G36*
X154201Y133467D02*
X154216Y133295D01*
X154241Y133143D01*
X154276Y133012D01*
X154321Y132901D01*
X154376Y132809D01*
X154441Y132739D01*
X154516Y132688D01*
X154601Y132658D01*
X154696Y132648D01*
X152696D01*
X152791Y132658D01*
X152876Y132688D01*
X152951Y132739D01*
X153016Y132809D01*
X153071Y132901D01*
X153116Y133012D01*
X153151Y133143D01*
X153176Y133295D01*
X153191Y133467D01*
X153196Y133660D01*
X154196D01*
X154201Y133467D01*
D02*
G37*
G36*
X159770Y133458D02*
X159785Y133286D01*
X159810Y133135D01*
X159845Y133003D01*
X159890Y132892D01*
X159945Y132801D01*
X160010Y132730D01*
X160085Y132679D01*
X160170Y132649D01*
X160265Y132639D01*
X158265D01*
X158360Y132649D01*
X158445Y132679D01*
X158520Y132730D01*
X158585Y132801D01*
X158640Y132892D01*
X158685Y133003D01*
X158720Y133135D01*
X158745Y133286D01*
X158760Y133458D01*
X158765Y133651D01*
X159765D01*
X159770Y133458D01*
D02*
G37*
G36*
X91802Y133386D02*
X91833Y133301D01*
X91883Y133226D01*
X91954Y133161D01*
X92045Y133106D01*
X92157Y133061D01*
X92288Y133026D01*
X92440Y133001D01*
X92612Y132986D01*
X92804Y132981D01*
Y131981D01*
X92612Y131976D01*
X92440Y131961D01*
X92288Y131936D01*
X92157Y131901D01*
X92045Y131856D01*
X91954Y131801D01*
X91883Y131736D01*
X91833Y131661D01*
X91802Y131576D01*
X91792Y131481D01*
Y133481D01*
X91802Y133386D01*
D02*
G37*
G36*
X109667Y132104D02*
X109682Y131932D01*
X109707Y131780D01*
X109742Y131649D01*
X109787Y131538D01*
X109842Y131447D01*
X109907Y131376D01*
X109982Y131325D01*
X110067Y131295D01*
X110162Y131284D01*
X108162D01*
X108257Y131295D01*
X108342Y131325D01*
X108417Y131376D01*
X108482Y131447D01*
X108537Y131538D01*
X108582Y131649D01*
X108617Y131780D01*
X108642Y131932D01*
X108657Y132104D01*
X108662Y132297D01*
X109662D01*
X109667Y132104D01*
D02*
G37*
G36*
X103667D02*
X103682Y131932D01*
X103707Y131780D01*
X103742Y131649D01*
X103787Y131538D01*
X103842Y131447D01*
X103907Y131376D01*
X103982Y131325D01*
X104067Y131295D01*
X104162Y131284D01*
X102162D01*
X102257Y131295D01*
X102342Y131325D01*
X102417Y131376D01*
X102482Y131447D01*
X102537Y131538D01*
X102582Y131649D01*
X102617Y131780D01*
X102642Y131932D01*
X102657Y132104D01*
X102662Y132297D01*
X103662D01*
X103667Y132104D01*
D02*
G37*
G36*
X97667Y132104D02*
X97682Y131932D01*
X97707Y131780D01*
X97742Y131649D01*
X97787Y131537D01*
X97842Y131447D01*
X97907Y131376D01*
X97982Y131325D01*
X98067Y131295D01*
X98162Y131284D01*
X96162D01*
X96257Y131295D01*
X96342Y131325D01*
X96417Y131376D01*
X96482Y131447D01*
X96537Y131537D01*
X96582Y131649D01*
X96617Y131780D01*
X96642Y131932D01*
X96657Y132104D01*
X96662Y132297D01*
X97662D01*
X97667Y132104D01*
D02*
G37*
G36*
X114560Y130269D02*
X114550Y130364D01*
X114519Y130449D01*
X114469Y130524D01*
X114398Y130589D01*
X114307Y130644D01*
X114195Y130689D01*
X114064Y130724D01*
X113912Y130749D01*
X113740Y130764D01*
X113548Y130769D01*
Y131769D01*
X113740Y131774D01*
X113912Y131789D01*
X114064Y131814D01*
X114195Y131849D01*
X114307Y131894D01*
X114398Y131949D01*
X114469Y132014D01*
X114519Y132089D01*
X114550Y132174D01*
X114560Y132269D01*
Y130269D01*
D02*
G37*
G36*
X148345Y122908D02*
X148373Y122606D01*
X148396Y122482D01*
X149092Y122479D01*
X148949Y122465D01*
X148822Y122420D01*
X148709Y122344D01*
X148612Y122239D01*
X148529Y122102D01*
X148528Y122099D01*
X148567Y122029D01*
X148627Y121944D01*
X148694Y121870D01*
X148444D01*
X148409Y121739D01*
X148372Y121512D01*
X148349Y121255D01*
X148342Y120967D01*
X146842D01*
X146834Y121256D01*
X146812Y121514D01*
X146774Y121742D01*
X146740Y121870D01*
X146489D01*
X146556Y121944D01*
X146616Y122029D01*
X146657Y122102D01*
X146655Y122107D01*
X146572Y122244D01*
X146475Y122350D01*
X146363Y122427D01*
X146236Y122473D01*
X146094Y122488D01*
X146788Y122486D01*
X146810Y122606D01*
X146828Y122752D01*
X146838Y122908D01*
X146842Y123075D01*
X148342D01*
X148345Y122908D01*
D02*
G37*
G36*
X97916Y121545D02*
X97944Y121242D01*
X97969Y121106D01*
X97975Y121079D01*
X98662D01*
X98520Y121064D01*
X98392Y121019D01*
X98280Y120943D01*
X98182Y120837D01*
X98109Y120717D01*
X98138Y120665D01*
X98198Y120581D01*
X98264Y120507D01*
X98024D01*
X97980Y120339D01*
X97942Y120112D01*
X97920Y119855D01*
X97912Y119568D01*
X96412D01*
X96405Y119855D01*
X96382Y120112D01*
X96345Y120339D01*
X96300Y120507D01*
X96060D01*
X96127Y120581D01*
X96187Y120665D01*
X96215Y120717D01*
X96142Y120837D01*
X96045Y120943D01*
X95932Y121019D01*
X95805Y121064D01*
X95662Y121079D01*
X96349D01*
X96356Y121106D01*
X96380Y121242D01*
X96398Y121388D01*
X96409Y121545D01*
X96412Y121712D01*
X97912D01*
X97916Y121545D01*
D02*
G37*
G36*
X115602Y100479D02*
X115573Y100207D01*
X115471Y100108D01*
X115076Y99877D01*
X114471Y99998D01*
X108369D01*
X107633Y99851D01*
X107009Y99435D01*
X106509Y99587D01*
X106061Y99931D01*
X105434Y100190D01*
X104762Y100279D01*
X104090Y100190D01*
X103464Y99931D01*
X102926Y99518D01*
X102513Y98980D01*
X102254Y98354D01*
X102165Y97682D01*
X102254Y97010D01*
X102513Y96384D01*
X102926Y95846D01*
X103464Y95433D01*
X104090Y95174D01*
X104762Y95085D01*
X105434Y95174D01*
X105823Y95334D01*
X105902Y95352D01*
X105916Y95359D01*
X106011Y95381D01*
X106044Y95385D01*
X106337Y95405D01*
X106371D01*
X106502Y95395D01*
X106691Y95368D01*
X106731Y95359D01*
X106966Y95007D01*
X107016Y94801D01*
Y94439D01*
X107009Y94434D01*
X106592Y93811D01*
X106446Y93075D01*
Y91303D01*
X106592Y90567D01*
X107009Y89944D01*
X107016Y89939D01*
Y89439D01*
X107009Y89434D01*
X106758Y89060D01*
X106240Y89027D01*
X96001Y99267D01*
Y102545D01*
X96053Y102585D01*
X96466Y103123D01*
X96725Y103749D01*
X96814Y104421D01*
X96725Y105093D01*
X96558Y105496D01*
X96843Y105996D01*
X110085D01*
X115602Y100479D01*
D02*
G37*
G36*
X107738Y95696D02*
X107720Y95837D01*
X107668Y95963D01*
X107579Y96075D01*
X107456Y96171D01*
X107298Y96253D01*
X107104Y96320D01*
X106875Y96372D01*
X106611Y96409D01*
X106360Y96428D01*
X105933Y96400D01*
X105820Y96383D01*
X105629Y96339D01*
X105552Y96313D01*
X105485Y96283D01*
X105977Y97777D01*
Y97939D01*
X106031Y97940D01*
X106175Y98377D01*
X106225Y98294D01*
X106288Y98219D01*
X106363Y98154D01*
X106452Y98097D01*
X106554Y98049D01*
X106669Y98009D01*
X106742Y97992D01*
X106875Y98006D01*
X107104Y98058D01*
X107298Y98125D01*
X107456Y98207D01*
X107579Y98303D01*
X107668Y98415D01*
X107720Y98541D01*
X107738Y98682D01*
Y95696D01*
D02*
G37*
G36*
X163736Y97427D02*
X163610Y97374D01*
X163498Y97286D01*
X163402Y97163D01*
X163320Y97004D01*
X163253Y96811D01*
X163201Y96582D01*
X163167Y96337D01*
X163186Y96222D01*
X163215Y96095D01*
X163250Y95978D01*
X163292Y95871D01*
X163340Y95775D01*
X163395Y95688D01*
X163456Y95611D01*
X162311Y95684D01*
X161634D01*
X161633Y95727D01*
X161256Y95751D01*
X161328Y95822D01*
X161392Y95903D01*
X161449Y95995D01*
X161498Y96098D01*
X161540Y96211D01*
X161574Y96335D01*
X161586Y96400D01*
X161567Y96582D01*
X161515Y96811D01*
X161448Y97004D01*
X161367Y97163D01*
X161270Y97286D01*
X161159Y97374D01*
X161032Y97427D01*
X160891Y97444D01*
X163877D01*
X163736Y97427D01*
D02*
G37*
G36*
X128778Y97378D02*
X128637Y97364D01*
X128510Y97316D01*
X128399Y97233D01*
X128302Y97115D01*
X128220Y96963D01*
X128154Y96776D01*
X128102Y96555D01*
X128064Y96299D01*
X128062Y96273D01*
X128064Y96259D01*
X128086Y96122D01*
X128115Y95995D01*
X128150Y95878D01*
X128192Y95772D01*
X128241Y95675D01*
X128295Y95588D01*
X128356Y95512D01*
X126156Y95651D01*
X126228Y95722D01*
X126292Y95803D01*
X126349Y95895D01*
X126398Y95998D01*
X126440Y96111D01*
X126474Y96236D01*
X126488Y96307D01*
X126475Y96395D01*
X126428Y96597D01*
X126368Y96782D01*
X126295Y96949D01*
X126208Y97100D01*
X126108Y97232D01*
X125995Y97347D01*
X125868Y97445D01*
X128778Y97378D01*
D02*
G37*
G36*
X88196Y100946D02*
X88254Y100510D01*
X88513Y99884D01*
X88878Y99408D01*
Y98682D01*
X89014Y97999D01*
X89401Y97420D01*
X98693Y88128D01*
X98501Y87666D01*
X77969D01*
X77799Y88166D01*
X78073Y88377D01*
X78486Y88915D01*
X78745Y89541D01*
X78834Y90213D01*
X78745Y90885D01*
X78486Y91512D01*
X78073Y92050D01*
X77535Y92462D01*
X76909Y92722D01*
X76237Y92810D01*
X75565Y92722D01*
X74938Y92462D01*
X74400Y92050D01*
X74327Y91954D01*
X68441D01*
X68313Y92093D01*
X68289Y92129D01*
Y92454D01*
X68586Y92899D01*
X68691Y93423D01*
Y95490D01*
X68586Y96015D01*
X68289Y96459D01*
Y96785D01*
X68586Y97229D01*
X68592Y97258D01*
X83167D01*
X83753Y97374D01*
X84249Y97706D01*
X87673Y101130D01*
X88196Y100946D01*
D02*
G37*
G36*
X115247Y73396D02*
X115285Y73312D01*
X115345Y73238D01*
X115426Y73174D01*
X115528Y73119D01*
X115652Y73075D01*
X115797Y73041D01*
X115964Y73016D01*
X116152Y73001D01*
X116362Y72996D01*
Y71996D01*
X116164Y71991D01*
X115988Y71976D01*
X115833Y71951D01*
X115700Y71916D01*
X115588Y71871D01*
X115497Y71816D01*
X115428Y71751D01*
X115381Y71676D01*
X115355Y71591D01*
X115350Y71496D01*
X115230Y73489D01*
X115247Y73396D01*
D02*
G37*
G36*
X98695Y73440D02*
X98740Y73312D01*
X98816Y73199D01*
X98922Y73102D01*
X99058Y73019D01*
X99224Y72952D01*
X99421Y72900D01*
X99647Y72862D01*
X99904Y72839D01*
X100192Y72832D01*
Y71332D01*
X99904Y71324D01*
X99647Y71302D01*
X99421Y71264D01*
X99224Y71212D01*
X99058Y71144D01*
X98922Y71062D01*
X98816Y70964D01*
X98740Y70852D01*
X98695Y70724D01*
X98680Y70582D01*
Y73582D01*
X98695Y73440D01*
D02*
G37*
G36*
X88505Y70401D02*
X88497Y70529D01*
X88473Y70627D01*
X88435Y70696D01*
X88382Y70736D01*
X88314Y70747D01*
X88232Y70730D01*
X88135Y70683D01*
X88023Y70607D01*
X87897Y70502D01*
X87756Y70368D01*
X87402Y71429D01*
X87607Y71641D01*
X87952Y72041D01*
X88092Y72230D01*
X88210Y72411D01*
X88307Y72584D01*
X88381Y72749D01*
X88434Y72906D01*
X88465Y73055D01*
X88475Y73196D01*
X88505Y70401D01*
D02*
G37*
G36*
X115338Y68092D02*
X115369Y68008D01*
X115420Y67933D01*
X115493Y67868D01*
X115586Y67813D01*
X115700Y67769D01*
X115834Y67734D01*
X115989Y67709D01*
X116165Y67694D01*
X116362Y67689D01*
Y66689D01*
X116165Y66684D01*
X115989Y66669D01*
X115834Y66644D01*
X115700Y66610D01*
X115586Y66565D01*
X115493Y66510D01*
X115420Y66445D01*
X115369Y66371D01*
X115338Y66286D01*
X115327Y66191D01*
Y68187D01*
X115338Y68092D01*
D02*
G37*
G36*
X98674Y67774D02*
X98714Y67679D01*
X98780Y67594D01*
X98873Y67521D01*
X98992Y67459D01*
X99138Y67409D01*
X99310Y67370D01*
X99509Y67341D01*
X99734Y67325D01*
X99985Y67319D01*
Y65819D01*
X99734Y65813D01*
X99509Y65796D01*
X99310Y65768D01*
X99138Y65729D01*
X98992Y65678D01*
X98873Y65616D01*
X98780Y65543D01*
X98714Y65459D01*
X98674Y65363D01*
X98661Y65256D01*
Y65814D01*
X98620Y65816D01*
X98364Y65819D01*
Y67319D01*
X98498Y67320D01*
X98661Y67331D01*
Y67881D01*
X98674Y67774D01*
D02*
G37*
G36*
X88581Y64720D02*
X88569Y64756D01*
X88542Y64789D01*
X88499Y64817D01*
X88439Y64841D01*
X88364Y64862D01*
X88273Y64879D01*
X88165Y64893D01*
X87903Y64908D01*
X87748Y64909D01*
Y65909D01*
X87886Y65912D01*
X88116Y65927D01*
X88209Y65941D01*
X88288Y65958D01*
X88351Y65980D01*
X88399Y66005D01*
X88433Y66035D01*
X88452Y66068D01*
X88456Y66105D01*
X88581Y64720D01*
D02*
G37*
G36*
X98400Y59201D02*
X98258Y59187D01*
X98131Y59142D01*
X98019Y59066D01*
X97922Y58959D01*
X97839Y58821D01*
X97772Y58651D01*
X97720Y58451D01*
X97700Y58328D01*
X97702Y58321D01*
X97715Y58287D01*
X97729Y58266D01*
X97690D01*
X97682Y58219D01*
X97660Y57957D01*
X97652Y57663D01*
X96152D01*
X96145Y57960D01*
X96123Y58226D01*
X96116Y58266D01*
X96076D01*
X96090Y58287D01*
X96103Y58321D01*
X96106Y58332D01*
X96085Y58461D01*
X96033Y58665D01*
X95967Y58838D01*
X95885Y58980D01*
X95788Y59090D01*
X95677Y59170D01*
X95550Y59218D01*
X95409Y59235D01*
X98400Y59201D01*
D02*
G37*
G36*
X57911Y65994D02*
X56029Y64111D01*
X49162D01*
X48577Y63995D01*
X48081Y63663D01*
X45179Y60762D01*
X44848Y60266D01*
X44731Y59680D01*
Y55244D01*
X43849D01*
X43401Y55155D01*
X43308Y55092D01*
X43214Y55155D01*
X42766Y55244D01*
X41881D01*
X41433Y55155D01*
X41085Y54922D01*
X40913Y55036D01*
X40062Y55206D01*
X39211Y55036D01*
X38490Y54554D01*
X38008Y53833D01*
X37838Y52982D01*
X38008Y52131D01*
X38490Y51410D01*
X39074Y51019D01*
X38922Y50519D01*
X37156D01*
X36709Y50430D01*
X36329Y50177D01*
X36075Y49797D01*
X35986Y49349D01*
Y48463D01*
X36075Y48016D01*
X36138Y47922D01*
X36075Y47828D01*
X35986Y47381D01*
Y46495D01*
X36075Y46047D01*
X36329Y45667D01*
X36709Y45414D01*
X37156Y45325D01*
X40798D01*
X41246Y45414D01*
X41625Y45667D01*
X41879Y46047D01*
X41968Y46495D01*
Y47381D01*
X41879Y47828D01*
X41817Y47922D01*
X41879Y48016D01*
X41968Y48463D01*
Y49262D01*
X42766D01*
X43214Y49351D01*
X43308Y49413D01*
X43401Y49351D01*
X43849Y49262D01*
X44735D01*
X45183Y49351D01*
X45276Y49413D01*
X45370Y49351D01*
X45818Y49262D01*
X46704D01*
X47151Y49351D01*
X47245Y49413D01*
X47338Y49351D01*
X47786Y49262D01*
X48672D01*
X49120Y49351D01*
X49213Y49413D01*
X49307Y49351D01*
X49755Y49262D01*
X50641D01*
X51088Y49351D01*
X51182Y49413D01*
X51275Y49351D01*
X51723Y49262D01*
X52609D01*
X53057Y49351D01*
X53150Y49413D01*
X53244Y49351D01*
X53692Y49262D01*
X54490D01*
Y48463D01*
X54579Y48016D01*
X54642Y47922D01*
X54579Y47828D01*
X54490Y47381D01*
Y46495D01*
X54579Y46047D01*
X54642Y45954D01*
X54579Y45860D01*
X54490Y45412D01*
Y44526D01*
X54579Y44078D01*
X54642Y43985D01*
X54579Y43891D01*
X54490Y43444D01*
Y42558D01*
X54579Y42110D01*
X54642Y42017D01*
X54579Y41923D01*
X54490Y41475D01*
Y40589D01*
X54579Y40141D01*
X54642Y40048D01*
X54579Y39954D01*
X54490Y39507D01*
Y38621D01*
X54579Y38173D01*
X54642Y38080D01*
X54579Y37986D01*
X54490Y37538D01*
Y36740D01*
X53692D01*
X53244Y36651D01*
X53150Y36588D01*
X53057Y36651D01*
X52609Y36740D01*
X51723D01*
X51275Y36651D01*
X51182Y36588D01*
X51088Y36651D01*
X50641Y36740D01*
X49755D01*
X49307Y36651D01*
X49213Y36588D01*
X49120Y36651D01*
X48672Y36740D01*
X47786D01*
X47338Y36651D01*
X47245Y36588D01*
X47151Y36651D01*
X46704Y36740D01*
X45818D01*
X45370Y36651D01*
X45276Y36588D01*
X45183Y36651D01*
X44735Y36740D01*
X43849D01*
X43401Y36651D01*
X43308Y36588D01*
X43214Y36651D01*
X42766Y36740D01*
X41968D01*
Y37538D01*
X41879Y37986D01*
X41817Y38080D01*
X41879Y38173D01*
X41968Y38621D01*
Y39507D01*
X41879Y39954D01*
X41817Y40048D01*
X41879Y40141D01*
X41968Y40589D01*
Y41475D01*
X41879Y41923D01*
X41817Y42017D01*
X41879Y42110D01*
X41968Y42558D01*
Y43444D01*
X41879Y43891D01*
X41625Y44271D01*
X41246Y44525D01*
X40798Y44614D01*
X37156D01*
X36821Y44547D01*
X34530D01*
X34247Y45047D01*
X34390Y45766D01*
X34220Y46617D01*
X33738Y47338D01*
X33017Y47820D01*
X32166Y47989D01*
X31509Y47859D01*
X31263Y48320D01*
X31844Y48901D01*
X32175Y49397D01*
X32292Y49982D01*
Y51674D01*
X32902Y52142D01*
X33383Y52769D01*
X33685Y53499D01*
X33788Y54282D01*
Y58629D01*
X41616Y66456D01*
X57720D01*
X57911Y65994D01*
D02*
G37*
G36*
X107497Y46269D02*
X107489Y46338D01*
X107457Y46400D01*
X107402Y46454D01*
X107324Y46501D01*
X107222Y46541D01*
X107097Y46574D01*
X106948Y46599D01*
X106776Y46617D01*
X106362Y46632D01*
Y48132D01*
X106596Y48136D01*
X106991Y48164D01*
X107152Y48189D01*
X107289Y48222D01*
X107401Y48261D01*
X107490Y48308D01*
X107554Y48362D01*
X107594Y48423D01*
X107610Y48491D01*
X107497Y46269D01*
D02*
G37*
G36*
X105235Y38696D02*
X105247Y38658D01*
X105269Y38612D01*
X105301Y38560D01*
X105344Y38500D01*
X105460Y38359D01*
X105616Y38190D01*
X105710Y38094D01*
X104486Y37198D01*
X103936Y37703D01*
X105234Y38728D01*
X105235Y38696D01*
D02*
G37*
G36*
X178827Y119038D02*
X178869Y118911D01*
X178942Y118798D01*
X179046Y118701D01*
X179182Y118619D01*
X179349Y118552D01*
X179548Y118499D01*
X179778Y118462D01*
X180040Y118439D01*
X180332Y118432D01*
Y116932D01*
X180075Y116928D01*
X179623Y116895D01*
X179430Y116867D01*
X179258Y116830D01*
X179107Y116786D01*
X178978Y116733D01*
X178870Y116672D01*
X178784Y116603D01*
X178718Y116526D01*
X178817Y119180D01*
X178827Y119038D01*
D02*
G37*
G36*
X192167Y107723D02*
X192190Y107466D01*
X192227Y107239D01*
X192280Y107043D01*
X192347Y106877D01*
X192430Y106740D01*
X192527Y106635D01*
X192640Y106559D01*
X192767Y106514D01*
X192910Y106499D01*
X189910D01*
X190052Y106514D01*
X190180Y106559D01*
X190292Y106635D01*
X190390Y106740D01*
X190472Y106877D01*
X190540Y107043D01*
X190592Y107239D01*
X190630Y107466D01*
X190652Y107723D01*
X190660Y108011D01*
X192160D01*
X192167Y107723D01*
D02*
G37*
G36*
X186620Y107709D02*
X186642Y107452D01*
X186680Y107225D01*
X186732Y107029D01*
X186800Y106863D01*
X186882Y106727D01*
X186980Y106621D01*
X187092Y106545D01*
X187220Y106500D01*
X187362Y106484D01*
X184362D01*
X184505Y106500D01*
X184632Y106545D01*
X184745Y106621D01*
X184842Y106727D01*
X184925Y106863D01*
X184992Y107029D01*
X185045Y107225D01*
X185082Y107452D01*
X185105Y107709D01*
X185112Y107997D01*
X186612D01*
X186620Y107709D01*
D02*
G37*
G36*
X192767Y96278D02*
X192640Y96233D01*
X192527Y96157D01*
X192430Y96052D01*
X192347Y95916D01*
X192280Y95749D01*
X192227Y95553D01*
X192190Y95326D01*
X192167Y95069D01*
X192160Y94782D01*
X190660D01*
X190652Y95069D01*
X190630Y95326D01*
X190592Y95553D01*
X190540Y95749D01*
X190472Y95916D01*
X190390Y96052D01*
X190292Y96157D01*
X190180Y96233D01*
X190052Y96278D01*
X189910Y96293D01*
X192910D01*
X192767Y96278D01*
D02*
G37*
G36*
X187220Y96264D02*
X187092Y96219D01*
X186980Y96143D01*
X186882Y96038D01*
X186800Y95902D01*
X186732Y95735D01*
X186680Y95539D01*
X186642Y95312D01*
X186620Y95055D01*
X186612Y94767D01*
X185112D01*
X185105Y95055D01*
X185082Y95312D01*
X185045Y95539D01*
X184992Y95735D01*
X184925Y95902D01*
X184842Y96038D01*
X184745Y96143D01*
X184632Y96219D01*
X184505Y96264D01*
X184362Y96280D01*
X187362D01*
X187220Y96264D01*
D02*
G37*
G36*
X183643Y95435D02*
X183774Y95348D01*
X184052Y95292D01*
X184070Y95184D01*
X184078Y95092D01*
Y65307D01*
X183265Y64494D01*
X183039Y64531D01*
X182937Y64683D01*
X182843Y64952D01*
X182841Y65065D01*
X183176Y65567D01*
X183323Y66303D01*
Y68075D01*
X183176Y68811D01*
X182760Y69434D01*
X182753Y69439D01*
Y69939D01*
X182760Y69944D01*
X183176Y70567D01*
X183323Y71303D01*
Y73075D01*
X183176Y73811D01*
X182760Y74435D01*
X182753Y74439D01*
Y74939D01*
X182760Y74944D01*
X183176Y75567D01*
X183323Y76303D01*
Y78075D01*
X183176Y78811D01*
X182760Y79435D01*
X182753Y79439D01*
Y79939D01*
X182760Y79944D01*
X183176Y80567D01*
X183323Y81303D01*
Y83075D01*
X183176Y83811D01*
X182760Y84434D01*
X182753Y84439D01*
Y84939D01*
X182760Y84944D01*
X183176Y85567D01*
X183323Y86303D01*
Y88075D01*
X183176Y88811D01*
X182760Y89434D01*
X182753Y89439D01*
Y89939D01*
X182760Y89944D01*
X183176Y90567D01*
X183323Y91303D01*
Y93075D01*
X183176Y93811D01*
X182760Y94434D01*
X182753Y94439D01*
Y94939D01*
X182760Y94944D01*
X183002Y95307D01*
X183208Y95559D01*
X183643Y95435D01*
D02*
G37*
G36*
X182231Y63296D02*
X182269Y63221D01*
X182332Y63155D01*
X182421Y63098D01*
X182535Y63049D01*
X182674Y63010D01*
X182838Y62979D01*
X183028Y62957D01*
X183243Y62944D01*
X183484Y62939D01*
Y61439D01*
X183243Y61435D01*
X182838Y61400D01*
X182674Y61369D01*
X182535Y61329D01*
X182421Y61281D01*
X182332Y61223D01*
X182269Y61157D01*
X182231Y61083D01*
X182218Y60999D01*
Y63379D01*
X182231Y63296D01*
D02*
G37*
G36*
X188979Y95591D02*
X189321Y95362D01*
X189600Y95306D01*
X189618Y95198D01*
X189626Y95106D01*
Y64869D01*
X183797Y59040D01*
X183500D01*
X183433Y59046D01*
X183291Y59069D01*
X183174Y59097D01*
X183082Y59129D01*
X183012Y59161D01*
X182963Y59191D01*
X182927Y59218D01*
X182901Y59244D01*
X182840Y59325D01*
X182824Y59339D01*
X182802Y59371D01*
X182760Y59549D01*
Y59940D01*
X182788Y59986D01*
X183061Y60395D01*
X183169Y60405D01*
X183484D01*
X184166Y60541D01*
X184745Y60927D01*
X187124Y63306D01*
X187511Y63885D01*
X187646Y64568D01*
Y95092D01*
X187654Y95184D01*
X187672Y95292D01*
X187951Y95348D01*
X188428Y95666D01*
X188979Y95591D01*
D02*
G37*
G36*
X182132Y58572D02*
X182250Y58453D01*
X182385Y58348D01*
X182536Y58257D01*
X182704Y58180D01*
X182888Y58118D01*
X183089Y58069D01*
X183307Y58034D01*
X183540Y58013D01*
X183791Y58006D01*
Y56506D01*
X183463Y56498D01*
X183169Y56476D01*
X182911Y56439D01*
X182687Y56387D01*
X182498Y56320D01*
X182344Y56238D01*
X182225Y56141D01*
X182140Y56030D01*
X182090Y55904D01*
X182075Y55762D01*
X182030Y58705D01*
X182132Y58572D01*
D02*
G37*
G36*
X194396Y95666D02*
X194874Y95348D01*
X195178Y95287D01*
Y63121D01*
X186030Y53973D01*
X183397D01*
X183266Y53983D01*
X183078Y54010D01*
X183037Y54019D01*
X182802Y54371D01*
X182753Y54578D01*
Y54939D01*
X182760Y54944D01*
X183086Y55433D01*
X183099Y55436D01*
X183281Y55462D01*
X183406Y55471D01*
X184536D01*
X185219Y55607D01*
X185798Y55994D01*
X192672Y62868D01*
X193058Y63447D01*
X193194Y64130D01*
Y95106D01*
X193202Y95198D01*
X193220Y95306D01*
X193498Y95362D01*
X193976Y95680D01*
X194387D01*
X194396Y95666D01*
D02*
G37*
G36*
X182048Y53541D02*
X182101Y53415D01*
X182189Y53303D01*
X182312Y53207D01*
X182471Y53125D01*
X182664Y53058D01*
X182893Y53006D01*
X183157Y52969D01*
X183456Y52947D01*
X183791Y52939D01*
Y51439D01*
X183456Y51432D01*
X182893Y51372D01*
X182664Y51320D01*
X182471Y51253D01*
X182312Y51171D01*
X182189Y51075D01*
X182101Y50963D01*
X182048Y50837D01*
X182030Y50696D01*
Y53682D01*
X182048Y53541D01*
D02*
G37*
G36*
X182116Y43434D02*
X182164Y43308D01*
X182246Y43196D01*
X182363Y43100D01*
X182515Y43018D01*
X182701Y42951D01*
X182922Y42899D01*
X183177Y42862D01*
X183467Y42839D01*
X183791Y42832D01*
Y41332D01*
X183536Y41325D01*
X183298Y41306D01*
X183078Y41273D01*
X182875Y41227D01*
X182690Y41167D01*
X182523Y41095D01*
X182373Y41009D01*
X182241Y40910D01*
X182127Y40798D01*
X182030Y40673D01*
X182102Y43575D01*
X182116Y43434D01*
D02*
G37*
G36*
X191500Y43307D02*
X191546Y43180D01*
X191622Y43068D01*
X191730Y42971D01*
X191869Y42889D01*
X192038Y42821D01*
X192239Y42769D01*
X192366Y42749D01*
X192491Y42769D01*
X192694Y42821D01*
X192866Y42887D01*
X193006Y42969D01*
X193116Y43066D01*
X193194Y43177D01*
X193242Y43304D01*
X193258Y43445D01*
X193238Y40454D01*
X193224Y40596D01*
X193178Y40723D01*
X193102Y40835D01*
X192994Y40933D01*
X192856Y41015D01*
X192686Y41082D01*
X192485Y41134D01*
X192359Y41155D01*
X192233Y41135D01*
X192030Y41083D01*
X191859Y41016D01*
X191718Y40934D01*
X191609Y40837D01*
X191530Y40726D01*
X191483Y40600D01*
X191466Y40458D01*
X191486Y43449D01*
X191500Y43307D01*
D02*
G37*
D11*
X73762Y154682D02*
X75107Y156027D01*
Y158922D01*
X66962Y131882D02*
X74824D01*
X63262Y133982D02*
X64862D01*
X66962Y131882D01*
X73762Y137659D02*
Y154682D01*
X77868Y116265D02*
X82541Y111592D01*
X112852D01*
X68062Y122982D02*
X74780Y116265D01*
X77868D01*
X122384Y101126D02*
Y103006D01*
X121142Y104249D02*
X122384Y103006D01*
X120196Y104249D02*
X121142D01*
X112852Y111592D02*
X120196Y104249D01*
X41962Y111882D02*
X53062D01*
X56962Y115782D02*
Y119582D01*
X53062Y111882D02*
X56962Y115782D01*
X40062Y113782D02*
Y118082D01*
Y113782D02*
X41962Y111882D01*
X59962Y122582D02*
X67662D01*
X56962Y119582D02*
X59962Y122582D01*
X39162Y118982D02*
X40062Y118082D01*
X36962Y118982D02*
X39162D01*
X35762Y120182D02*
X36962Y118982D01*
X35762Y120182D02*
Y122793D01*
X35731Y122823D02*
X35762Y122793D01*
X64862Y142682D02*
X64962Y142782D01*
X61962Y142682D02*
X64862D01*
X61162Y136082D02*
Y141882D01*
X61962Y142682D01*
X61162Y136082D02*
X63262Y133982D01*
X64962Y137782D02*
X65524Y137220D01*
Y135720D02*
Y137220D01*
Y135720D02*
X65962Y135282D01*
X65979D01*
X67762Y133499D01*
X67662Y122582D02*
X68062Y122982D01*
X68709Y123628D01*
Y126982D01*
X65302Y107449D02*
X83090D01*
X84975Y109334D01*
X65302Y98787D02*
X83167D01*
X86862Y102482D01*
Y106139D01*
X176261Y145081D02*
X176581Y145402D01*
X176061Y145281D02*
X176261Y145081D01*
X125661Y144482D02*
X125982Y144802D01*
X125441Y144704D02*
X125462Y144683D01*
X139076Y121930D02*
Y126130D01*
X133397Y121861D02*
X138756D01*
X88261Y119782D02*
X88362Y119883D01*
X88149Y119894D02*
X88261Y119782D01*
X47909Y27682D02*
X51816D01*
X21162Y45689D02*
X32089D01*
X76762Y32871D02*
X80828Y36936D01*
X76762Y25682D02*
Y32871D01*
X74789Y23709D02*
X76762Y25682D01*
X71136Y23709D02*
X74789D01*
X69362Y25482D02*
Y38682D01*
Y25482D02*
X71136Y23709D01*
X59919Y60239D02*
X61475Y61795D01*
X58362Y58682D02*
X59919Y60239D01*
X60958Y59199D02*
X61269D01*
X59919Y60239D02*
X60958Y59199D01*
X62393Y56382D02*
X64293Y58282D01*
X52748Y56382D02*
X62393D01*
X64293Y58282D02*
X66162D01*
X63756Y54882D02*
X65722D01*
X62002Y53128D02*
X63756Y54882D01*
X52162Y52257D02*
Y55796D01*
X52748Y56382D01*
X66162Y58282D02*
X67862Y59982D01*
X61475Y61795D02*
X86576D01*
X52162Y58682D02*
X58362D01*
X50288Y56808D02*
X52162Y58682D01*
X50288Y52343D02*
Y56808D01*
X69462Y57714D02*
X70048Y58299D01*
X85845D01*
X87215Y56929D02*
X89194D01*
X85845Y58299D02*
X87215Y56929D01*
X69462Y45827D02*
Y57714D01*
X59662Y65582D02*
X82591D01*
X83176Y66168D02*
Y71196D01*
X88095Y76114D01*
X82591Y65582D02*
X83176Y66168D01*
X56662Y62582D02*
X59662Y65582D01*
X57761Y60981D02*
X60562Y63782D01*
X67862Y59982D02*
X90241D01*
X91034Y60775D01*
X25562Y27682D02*
X29316D01*
X25462Y27582D02*
X25562Y27682D01*
X29347Y32913D02*
Y37349D01*
X28761Y37935D02*
X29347Y37349D01*
X29316Y32882D02*
X29347Y32913D01*
X32089Y45689D02*
X32166Y45766D01*
X30762Y49982D02*
Y54282D01*
X37109Y31582D02*
X37264Y31427D01*
X36009Y27682D02*
X36088Y27603D01*
X35781Y37095D02*
X38977D01*
X35429Y38201D02*
X36202Y38973D01*
X38887D01*
X38977Y39064D01*
X35429Y37095D02*
Y38201D01*
Y37095D02*
X35462Y37062D01*
Y35782D02*
Y37062D01*
Y35782D02*
X36162Y35082D01*
Y33035D02*
Y35082D01*
X36009Y32882D02*
X36162Y33035D01*
X38175Y43018D02*
X38210Y42982D01*
X35629Y45555D02*
X36215Y44969D01*
X38977D01*
X35629Y45555D02*
Y47232D01*
X33815Y41032D02*
X38977D01*
X42233Y33658D02*
X42324Y33749D01*
X50198Y52253D02*
X50288Y52343D01*
X52162Y52257D02*
X52166Y52253D01*
X28951Y48171D02*
X30762Y49982D01*
X39962Y31482D02*
Y32382D01*
X36609Y32282D02*
X36662Y32335D01*
X34329Y48532D02*
X35629Y47232D01*
X34329Y48532D02*
Y48901D01*
X42233Y31153D02*
Y33658D01*
X48229Y52253D02*
Y58749D01*
X46261Y52253D02*
Y59680D01*
X20562Y37935D02*
X28761D01*
X41262Y30182D02*
X42233Y31153D01*
X41262Y27729D02*
Y30182D01*
X41136Y27603D02*
X41216Y27682D01*
X41262Y27729D01*
X39962Y31482D02*
X41262Y30182D01*
X38977Y44969D02*
X46261D01*
X40791Y52253D02*
X42324D01*
X40062Y52982D02*
X40791Y52253D01*
X50461Y60981D02*
X57761D01*
X48229Y58749D02*
X50461Y60981D01*
X46261Y59680D02*
X49162Y62582D01*
X56662D01*
X19962Y48171D02*
X28951D01*
X32123Y40216D02*
X32999D01*
X33815Y41032D01*
X36088Y27603D02*
X41136D01*
X20426Y43018D02*
X38175D01*
X64762Y35254D02*
Y38808D01*
X72952Y26390D02*
X73162Y26600D01*
X73202Y50314D02*
Y54882D01*
X86576Y61795D02*
X87162Y62381D01*
X85438Y68758D02*
X88555Y71875D01*
X90168Y65409D02*
X91083Y66324D01*
X87748Y65409D02*
X90168D01*
X89662Y76798D02*
Y77682D01*
X88978Y76114D02*
X89662Y76798D01*
X88095Y76114D02*
X88978D01*
X64762Y45501D02*
Y49354D01*
X84852Y63782D02*
X85438Y64368D01*
X87162Y62381D02*
Y64824D01*
X87748Y65409D01*
X111420Y72189D02*
X111727Y72496D01*
X116679D02*
X117265Y73082D01*
X73162Y29627D02*
Y38208D01*
Y26600D02*
Y38208D01*
X85438Y64368D02*
Y68758D01*
X117265Y73082D02*
Y100979D01*
X64762Y35254D02*
X65622Y34395D01*
X65722Y50314D02*
Y54882D01*
X64762Y49354D02*
X65722Y50314D01*
X73162Y38208D02*
X73762Y38808D01*
X73202Y50314D02*
X73762Y49754D01*
X88555Y71875D02*
X91331D01*
X65622Y29627D02*
Y34395D01*
X73762Y45501D02*
Y49754D01*
X60562Y63782D02*
X84852D01*
X111420Y67189D02*
X117194D01*
X111727Y72496D02*
X116679D01*
X67762Y133499D02*
X75645D01*
X80013Y122200D02*
Y126694D01*
X74824Y131882D02*
X80013Y126694D01*
X75645Y133499D02*
X83762Y125382D01*
X84975Y109334D02*
X111910D01*
X110719Y107525D02*
X117265Y100979D01*
X88248Y107525D02*
X110719D01*
X86862Y106139D02*
X88248Y107525D01*
X111910Y109334D02*
X119062Y102182D01*
Y69057D02*
Y102182D01*
X117194Y67189D02*
X119062Y69057D01*
X88362Y115082D02*
Y119883D01*
X157362Y141482D02*
X157453Y141392D01*
X158990D01*
X160742Y139639D01*
X160898D01*
X145323Y134638D02*
X146675Y135990D01*
X138810Y134638D02*
X145323D01*
X146675Y135990D02*
X147638D01*
X154894Y137159D02*
X155709D01*
X156295Y134915D02*
X156361Y134849D01*
X155709Y137159D02*
X156295Y136573D01*
Y134915D02*
Y136573D01*
X154803Y137250D02*
X154894Y137159D01*
X154803Y137250D02*
Y137840D01*
X159265Y131374D02*
Y136682D01*
X158043Y138049D02*
Y139423D01*
Y138049D02*
X159410Y136682D01*
X161762D01*
X159265Y131374D02*
X159756Y130883D01*
X157953Y139514D02*
X158043Y139423D01*
X157362Y139514D02*
X157953D01*
X145748D02*
X146338D01*
X144532Y138297D02*
X145748Y139514D01*
X144532Y137759D02*
Y138297D01*
X144271Y137499D02*
X144532Y137759D01*
X138736Y134563D02*
X138810Y134638D01*
X147638Y135990D02*
X148807Y137159D01*
Y137750D01*
X148898Y137840D01*
X147662Y133782D02*
X148362Y134482D01*
X149762D01*
X147662Y130928D02*
Y133782D01*
X173009Y137682D02*
X176494D01*
X172848Y137843D02*
X173009Y137682D01*
X139054Y117764D02*
Y121562D01*
X138982Y121836D02*
X138982Y121836D01*
X138982Y121836D02*
X139076Y121930D01*
X138756Y121861D02*
X139054Y121562D01*
X176061Y145281D02*
X176061Y145282D01*
X176040Y145304D02*
X176061Y145282D01*
X176040Y145304D02*
Y150603D01*
X176581Y145402D02*
X180136D01*
X171770Y145120D02*
X175899D01*
X176061Y145281D01*
X140062Y140136D02*
X143316D01*
X144572Y141392D02*
X146248D01*
X143316Y140136D02*
X144572Y141392D01*
X161762Y136682D02*
X163462Y134982D01*
X164048Y131782D02*
X166116D01*
X163462Y132368D02*
X164048Y131782D01*
X163462Y132368D02*
Y134982D01*
X166116Y131782D02*
X166316Y131582D01*
X148862Y148506D02*
Y154182D01*
X140745Y162282D02*
Y163882D01*
Y162282D02*
X145338Y157689D01*
X145355D02*
X148862Y154182D01*
X145338Y157689D02*
X145355D01*
X149791Y145510D02*
X149882Y145419D01*
X149791Y145510D02*
Y147576D01*
X148862Y148506D02*
X149791Y147576D01*
X154962Y148629D02*
Y153682D01*
X163779Y162482D02*
Y164082D01*
X158986Y157689D02*
X163779Y162482D01*
X158969Y157689D02*
X158986D01*
X154962Y153682D02*
X158969Y157689D01*
X153909Y147576D02*
X154962Y148629D01*
X153909Y145510D02*
Y147576D01*
X153819Y145419D02*
X153909Y145510D01*
X151845Y149901D02*
X151871Y149928D01*
X151845Y144736D02*
Y149901D01*
X151847Y152707D02*
X151871Y152682D01*
Y149928D02*
Y152682D01*
X151797Y152757D02*
X151847Y152707D01*
X151797Y152757D02*
Y155350D01*
X151747Y155399D02*
X151797Y155350D01*
X146248Y141392D02*
X146338Y141482D01*
X149762Y134482D02*
X150776Y135495D01*
Y137750D02*
X150866Y137840D01*
X150776Y135495D02*
Y137750D01*
X139129Y133581D02*
X140444D01*
X152835Y135210D02*
Y137840D01*
X153696Y130892D02*
Y134348D01*
X152835Y135210D02*
X153696Y134348D01*
X104362Y147406D02*
Y153646D01*
X112680Y161964D02*
Y163982D01*
X104362Y153646D02*
X112680Y161964D01*
X90163Y161781D02*
X97962Y153982D01*
Y147429D02*
Y153982D01*
X101071Y154099D02*
X101120Y154050D01*
Y151457D02*
Y154050D01*
Y151457D02*
X101170Y151407D01*
X101195Y148628D02*
Y151382D01*
X101170Y151407D02*
X101195Y151382D01*
X101168Y143436D02*
Y148601D01*
X101195Y148628D01*
X101168Y143436D02*
X101174Y143430D01*
X123009Y137182D02*
X123169Y137021D01*
X126654D01*
X125300Y144520D02*
X125461Y144682D01*
X121171Y144520D02*
X125300D01*
X125982Y144802D02*
X129537D01*
X125461Y144682D02*
X125661Y144482D01*
X125441Y144704D02*
Y150004D01*
X125461Y144682D02*
X125462Y144683D01*
X88356Y120077D02*
Y124277D01*
X109656Y138921D02*
X110114D01*
X108395Y140182D02*
X109656Y138921D01*
X103233Y146276D02*
X104362Y147406D01*
X103142Y144119D02*
X103233Y144210D01*
Y146276D01*
X97962Y147429D02*
X99115Y146276D01*
X106686Y140182D02*
X108395D01*
X99115Y144210D02*
X99205Y144119D01*
X99115Y144210D02*
Y146276D01*
X93325Y136467D02*
X95072Y138214D01*
X93325Y136400D02*
Y136467D01*
X95072Y138214D02*
X95662D01*
X104127Y136540D02*
X104217Y136450D01*
Y136336D02*
Y136450D01*
Y136336D02*
X105753D01*
X106338Y135750D01*
Y134006D02*
Y135750D01*
Y134006D02*
X106362Y133982D01*
X106686Y138214D02*
X109162Y135737D01*
X89162Y138836D02*
X89209Y138882D01*
X91962D01*
X93262Y140182D02*
X95662D01*
X91962Y138882D02*
X93262Y140182D01*
X93461Y132481D02*
X95826Y134846D01*
X89162Y132481D02*
X93461D01*
X98131Y135859D02*
X98131D01*
X95826Y134846D02*
X97117D01*
X98131Y135859D01*
X98221Y135950D02*
Y136540D01*
X98131Y135859D02*
X98221Y135950D01*
X88862Y139345D02*
X89625Y140107D01*
X88862Y138836D02*
Y139345D01*
X100190Y134237D02*
Y136540D01*
X99068Y133115D02*
X100190Y134237D01*
X102158Y134186D02*
X103162Y133182D01*
X102158Y134186D02*
Y136187D01*
X103162Y129528D02*
Y133182D01*
X97162Y129528D02*
Y132529D01*
X97748Y133115D01*
X99068D01*
X100099Y136450D02*
X100190Y136540D01*
X111162Y135182D02*
X112662Y133682D01*
X113248Y131269D02*
X116228D01*
X112662Y131855D02*
X113248Y131269D01*
X112662Y131855D02*
Y133682D01*
X109717Y135182D02*
X111162D01*
X109162Y135737D02*
X109717Y135182D01*
X116228Y131269D02*
X116316Y131182D01*
X109162Y129528D02*
Y135737D01*
D14*
X234651Y112D02*
X236221Y1683D01*
X1Y179001D02*
X2200Y181200D01*
X2288Y112D02*
X234651D01*
X1Y2399D02*
X2288Y112D01*
X2200Y181200D02*
X234862D01*
X236221Y179841D01*
X1Y2399D02*
Y179001D01*
X236221Y1683D02*
Y179841D01*
D16*
X20346Y128829D02*
D03*
X43968D02*
D03*
Y172135D02*
D03*
X20346D02*
D03*
D17*
X6313Y38526D02*
D03*
Y47581D02*
D03*
D18*
X18124Y48171D02*
D03*
Y45612D02*
D03*
Y43053D02*
D03*
Y40494D02*
D03*
Y37935D02*
D03*
D19*
X36009Y27682D02*
D03*
X29316D02*
D03*
X29039Y122823D02*
D03*
X35731D02*
D03*
X41216Y27682D02*
D03*
X47909D02*
D03*
X71409Y162882D02*
D03*
X64716D02*
D03*
X36009Y32882D02*
D03*
X29316D02*
D03*
X96943Y61128D02*
D03*
X90250D02*
D03*
X96924Y72081D02*
D03*
X90231D02*
D03*
X96905Y66548D02*
D03*
X90212D02*
D03*
X96943Y77561D02*
D03*
X90250D02*
D03*
X123009Y131182D02*
D03*
X116316D02*
D03*
X173009Y137682D02*
D03*
X166316D02*
D03*
X62016Y126982D02*
D03*
X68709D02*
D03*
X173009Y131582D02*
D03*
X166316D02*
D03*
X123009Y137182D02*
D03*
X116316D02*
D03*
D20*
X38977Y48906D02*
D03*
Y46938D02*
D03*
Y44969D02*
D03*
Y43001D02*
D03*
Y41032D02*
D03*
Y39064D02*
D03*
Y37095D02*
D03*
X57481D02*
D03*
Y39064D02*
D03*
Y41032D02*
D03*
Y43001D02*
D03*
Y44969D02*
D03*
Y46938D02*
D03*
Y48906D02*
D03*
D21*
X42324Y33749D02*
D03*
X44292D02*
D03*
X46261D02*
D03*
X48229D02*
D03*
X50198D02*
D03*
X52166D02*
D03*
X54135D02*
D03*
Y52253D02*
D03*
X52166D02*
D03*
X50198D02*
D03*
X48229D02*
D03*
X46261D02*
D03*
X44292D02*
D03*
X42324D02*
D03*
D22*
X48229Y43001D02*
D03*
D23*
X65622Y29627D02*
D03*
X73102D02*
D03*
X69362Y38682D02*
D03*
X73202Y54882D02*
D03*
X65722D02*
D03*
X69462Y45827D02*
D03*
D24*
X64762Y38808D02*
D03*
Y45501D02*
D03*
X73762Y45501D02*
D03*
Y38808D02*
D03*
X97162Y122836D02*
D03*
Y129528D02*
D03*
X88862Y145528D02*
D03*
Y138836D02*
D03*
X159756Y130883D02*
D03*
Y124190D02*
D03*
X140062Y146828D02*
D03*
Y140136D02*
D03*
X189562Y41975D02*
D03*
Y35282D02*
D03*
X191410Y104743D02*
D03*
Y98050D02*
D03*
X185862Y104728D02*
D03*
Y98036D02*
D03*
X195162Y35236D02*
D03*
Y41928D02*
D03*
X196962Y104728D02*
D03*
Y98036D02*
D03*
X77162Y144528D02*
D03*
Y137836D02*
D03*
X147662Y124235D02*
D03*
Y130928D02*
D03*
X153696Y124199D02*
D03*
Y130892D02*
D03*
X103162Y122836D02*
D03*
Y129528D02*
D03*
X109162D02*
D03*
Y122836D02*
D03*
D25*
X170569Y117982D02*
D03*
X177262D02*
D03*
X170516Y124482D02*
D03*
X177209D02*
D03*
X170516Y111782D02*
D03*
X177209D02*
D03*
D26*
X178349Y32189D02*
D03*
Y37189D02*
D03*
Y42189D02*
D03*
Y47189D02*
D03*
Y52189D02*
D03*
Y57189D02*
D03*
Y62189D02*
D03*
Y67189D02*
D03*
Y72189D02*
D03*
Y77189D02*
D03*
Y82189D02*
D03*
Y87189D02*
D03*
Y92189D02*
D03*
Y97189D02*
D03*
X111420D02*
D03*
Y92189D02*
D03*
Y87189D02*
D03*
Y82189D02*
D03*
Y77189D02*
D03*
Y72189D02*
D03*
Y67189D02*
D03*
Y62189D02*
D03*
Y57189D02*
D03*
Y52189D02*
D03*
Y47189D02*
D03*
Y42189D02*
D03*
Y37189D02*
D03*
Y32189D02*
D03*
D27*
X167384Y101126D02*
D03*
X162384D02*
D03*
X157384D02*
D03*
X152384D02*
D03*
X147384D02*
D03*
X142384D02*
D03*
X137384D02*
D03*
X132384D02*
D03*
X127384D02*
D03*
X122384D02*
D03*
D28*
X145662Y63282D02*
D03*
D29*
X163394Y163920D02*
D03*
X140559D02*
D03*
X112680Y163982D02*
D03*
X89845D02*
D03*
D30*
X147028Y144435D02*
D03*
X156673D02*
D03*
X96351Y143135D02*
D03*
X105997D02*
D03*
D31*
X146338Y139514D02*
D03*
Y141482D02*
D03*
Y143450D02*
D03*
Y145419D02*
D03*
X157362D02*
D03*
Y143450D02*
D03*
Y141482D02*
D03*
Y139514D02*
D03*
X95662Y138214D02*
D03*
Y140182D02*
D03*
Y142150D02*
D03*
Y144119D02*
D03*
X106686D02*
D03*
Y142150D02*
D03*
Y140182D02*
D03*
Y138214D02*
D03*
D32*
X149882Y145419D02*
D03*
X153819D02*
D03*
X99205Y144119D02*
D03*
X103142D02*
D03*
D33*
X151850Y144730D02*
D03*
X101174Y143430D02*
D03*
D34*
X154803Y137840D02*
D03*
X152835D02*
D03*
X150866D02*
D03*
X148898D02*
D03*
X104127Y136540D02*
D03*
X102158D02*
D03*
X100190D02*
D03*
X98221D02*
D03*
D35*
X78430Y173082D02*
D03*
X61894D02*
D03*
D36*
X5853Y66110D02*
D03*
D37*
X7629Y119260D02*
D03*
D38*
X23968D02*
D03*
D39*
X48373D02*
D03*
X65302Y75362D02*
D03*
D40*
Y115520D02*
D03*
Y111779D02*
D03*
Y107449D02*
D03*
Y103118D02*
D03*
Y98787D02*
D03*
Y94457D02*
D03*
Y90126D02*
D03*
Y85795D02*
D03*
Y81464D02*
D03*
D41*
X176061Y145282D02*
D03*
X163463D02*
D03*
X125461Y144682D02*
D03*
X112863D02*
D03*
D42*
X138736Y121965D02*
D03*
Y134563D02*
D03*
X88262Y119983D02*
D03*
Y132581D02*
D03*
D75*
X20069Y129105D02*
X20622Y128552D01*
X43944Y128952D02*
X45882Y130889D01*
X43968Y172135D02*
X44441Y172609D01*
X60437D01*
X60910Y173082D01*
X20346Y172135D02*
X43968D01*
X60910Y173082D02*
X61894D01*
X68962Y69482D02*
X71462Y71982D01*
X40362Y69482D02*
X68962D01*
X30762Y59882D02*
X40362Y69482D01*
X30762Y54282D02*
Y59882D01*
X5761Y65880D02*
X6436D01*
X11028Y58116D02*
X12262Y56882D01*
X6436Y65880D02*
X6995Y65321D01*
X163462Y145283D02*
X163463Y145282D01*
X163462Y145283D02*
Y150282D01*
X112863Y144682D02*
Y149981D01*
D76*
X43898Y128205D02*
X43944Y128952D01*
X43950Y136905D02*
X44245Y136611D01*
X43944Y128952D02*
X44245Y136611D01*
X43618Y128485D02*
X43898Y128205D01*
X38386Y128485D02*
X43618D01*
X50018Y128552D02*
X50085Y128485D01*
X43944Y128952D02*
X50018Y128552D01*
X20622D02*
X26396D01*
X26463Y128485D01*
X14764Y128485D02*
X19996D01*
X20276Y128205D01*
X20622Y128552D02*
Y136611D01*
X20328Y136905D02*
X20622Y136611D01*
X20276Y128205D02*
X20622Y128552D01*
X171469Y37189D02*
X178349D01*
X171462Y37182D02*
X171469Y37189D01*
X171709Y42035D02*
X177963D01*
X178009Y42082D01*
X189455D01*
X76562Y150382D02*
X78562Y152382D01*
X76562Y144340D02*
Y150382D01*
X71062Y137659D02*
X73762D01*
X76662D01*
X78562Y152382D02*
Y162103D01*
X71509Y162982D02*
X77684D01*
X78562Y162103D01*
X71409Y162882D02*
X71509Y162982D01*
X65255Y75409D02*
X65302Y75362D01*
X61550Y75409D02*
X65255D01*
X61503Y75456D02*
X61550Y75409D01*
X64316Y162482D02*
X64716Y162882D01*
X62362Y162482D02*
X64316D01*
X60162Y150582D02*
Y160282D01*
X62362Y162482D01*
X60162Y150582D02*
X62496Y148248D01*
X64496D02*
X64962Y147782D01*
X62496Y148248D02*
X64496D01*
X28962Y120138D02*
Y122747D01*
X23968Y119260D02*
X28084D01*
X28962Y120138D01*
Y122747D02*
X29039Y122823D01*
X23968Y119260D02*
X24145Y119082D01*
X65139Y94619D02*
X65302Y94782D01*
X65557Y94527D01*
X57925Y94619D02*
X65139D01*
X57762Y94782D02*
X57925Y94619D01*
X7294Y118787D02*
X7673Y118407D01*
X58862Y126982D02*
X62016D01*
X57862Y125982D02*
X58862Y126982D01*
X65302Y115520D02*
Y119142D01*
X65262Y119182D02*
X65302Y119142D01*
Y103118D02*
X65321Y103099D01*
X69839D01*
X69859Y103079D01*
X65302Y85795D02*
X65389Y85882D01*
X65302Y90126D02*
X65346Y90170D01*
X76193D01*
X76237Y90213D01*
X65389Y85882D02*
X99562D01*
X107462Y77982D01*
X153706Y124240D02*
X153806Y124140D01*
X109162Y122736D02*
X109212Y122785D01*
X48216Y119195D02*
X52722D01*
X48166Y119145D02*
X48305Y119006D01*
X7537Y119030D02*
X7802Y119295D01*
X6986Y119095D02*
X7784Y119893D01*
X6986Y119095D02*
X7673Y118407D01*
X5878Y66462D02*
X6470Y65870D01*
X5529Y66113D02*
X5878Y66462D01*
X5529Y66113D02*
X5761Y65880D01*
X147592Y124120D02*
X147685Y124213D01*
X5878Y66462D02*
Y70659D01*
X7673Y115042D02*
Y118407D01*
X15123Y119295D02*
X15188Y119229D01*
X43358Y119115D02*
X43380Y119137D01*
X48166Y119145D02*
X48216Y119195D01*
X48241Y115333D02*
X48305Y115397D01*
Y119006D01*
X6470Y65870D02*
X11903D01*
X11917Y65856D01*
X7802Y119295D02*
X15123D01*
X52722Y119195D02*
X52779Y119138D01*
X5186Y65770D02*
X5529Y66113D01*
X90662Y101082D02*
X90762Y101182D01*
X90662Y98682D02*
Y101082D01*
X96902Y57422D02*
Y61088D01*
X96943Y61128D01*
X96939Y66582D02*
X97017Y66505D01*
X97081Y66569D01*
X96905Y66548D02*
X96939Y66582D01*
X103774Y28632D02*
Y30549D01*
X103458Y28316D02*
X103774Y28632D01*
X103962Y38782D02*
X105562Y37182D01*
X104162Y77682D02*
X105462Y76382D01*
X111413Y37182D02*
X111420Y37189D01*
X111227Y47382D02*
X111420Y47189D01*
X110482Y53127D02*
X111420Y52189D01*
X110627Y77982D02*
X111420Y77189D01*
X110482Y83127D02*
X111420Y82189D01*
X103774Y30549D02*
X105413Y32189D01*
X102962Y50782D02*
X106362Y47382D01*
X104762Y97682D02*
X105255Y97189D01*
X102084Y72082D02*
X102962Y71203D01*
X94217Y98527D02*
Y104421D01*
X102962Y50782D02*
Y71203D01*
X105462Y54682D02*
Y76382D01*
X107017Y53127D02*
X110482D01*
X105462Y54682D02*
X107017Y53127D01*
X97081Y66569D02*
X99985D01*
X107462Y77982D02*
X110627D01*
X98034Y77682D02*
X104162D01*
X106217Y83127D02*
X110482D01*
X94217Y98527D02*
X105555Y87189D01*
X90662Y98682D02*
X106217Y83127D01*
X98034Y72082D02*
X102084D01*
X105562Y37182D02*
X111413D01*
X106362Y47382D02*
X111227D01*
X105555Y87189D02*
X111420D01*
X105413Y32189D02*
X111420D01*
X105255Y97189D02*
X111420D01*
X177411Y66251D02*
X178349Y67189D01*
X172231Y66251D02*
X177411D01*
X170762Y64782D02*
X172231Y66251D01*
X172255Y72189D02*
X178349D01*
X170262Y74182D02*
X172255Y72189D01*
X187962Y34854D02*
X190409D01*
X186862Y31035D02*
X193378D01*
X185162D02*
X186862D01*
X178349Y32189D02*
X184008D01*
X185162Y31035D01*
X189562Y41975D02*
X189585Y41952D01*
X189455Y42082D02*
X189562Y41975D01*
X195139Y41952D02*
X195162Y41928D01*
X189585Y41952D02*
X195139D01*
X178349Y37189D02*
X185627D01*
X178349Y52189D02*
X186769D01*
X196962Y62382D02*
Y98036D01*
X186769Y52189D02*
X196962Y62382D01*
X191410Y64130D02*
Y98050D01*
X184536Y57256D02*
X191410Y64130D01*
X178349Y57189D02*
X178415Y57256D01*
X184536D01*
X178349Y62189D02*
X183484D01*
X185862Y64568D02*
Y98036D01*
X183484Y62189D02*
X185862Y64568D01*
Y104728D02*
Y108482D01*
X182562Y111782D02*
X185862Y108482D01*
X177209Y111782D02*
X182562D01*
X177262Y117982D02*
X177562Y117682D01*
X186062D01*
X191410Y104743D02*
Y112334D01*
X186062Y117682D02*
X191410Y112334D01*
X196962Y104728D02*
Y113882D01*
X186362Y124482D02*
X196962Y113882D01*
X177209Y124482D02*
X186362D01*
X165462Y111782D02*
X170516D01*
X165662Y117982D02*
X170569D01*
X165662Y124482D02*
X170516D01*
X177209D02*
X177309Y124382D01*
X177209Y111782D02*
X177259Y111732D01*
X162384Y94658D02*
Y101126D01*
X127285Y101026D02*
X127384Y101126D01*
X127285Y94559D02*
Y101026D01*
X127185Y94459D02*
X127285Y94559D01*
X194671Y35081D02*
X194771Y35181D01*
X194671Y32328D02*
Y35081D01*
X193378Y31035D02*
X194671Y32328D01*
X185627Y37189D02*
X187962Y34854D01*
X190409D02*
X190462Y34907D01*
X147592Y120745D02*
Y124120D01*
X147662Y124235D02*
X147685Y124213D01*
X112862Y149982D02*
X112863Y149981D01*
X97162Y119382D02*
Y122836D01*
X166316Y137682D02*
Y137879D01*
Y137485D02*
Y137682D01*
X116316Y137182D02*
Y137379D01*
Y136985D02*
Y137182D01*
X164538Y139657D02*
X166316Y137879D01*
X163463Y145282D02*
X164538Y144208D01*
Y139657D02*
Y144208D01*
X172848Y137843D02*
Y138040D01*
X159706Y124240D02*
X159756Y124190D01*
X153806Y120686D02*
Y124140D01*
X159706D02*
X159756Y124190D01*
X159706Y120786D02*
Y124140D01*
X166316Y137485D02*
X167337Y136463D01*
X167770D01*
X171433Y132800D01*
X171987D01*
X173009Y131779D01*
Y131582D02*
Y131779D01*
X109162Y119382D02*
Y122736D01*
X103262Y119282D02*
Y122736D01*
X103162Y122836D02*
X103262Y122736D01*
X115294Y138400D02*
X116316Y137379D01*
X113077Y139767D02*
X114444Y138400D01*
X115294D01*
X113077Y139767D02*
Y144185D01*
X112863Y144398D02*
X113077Y144185D01*
X109162Y122836D02*
X109212Y122785D01*
X117337Y135963D02*
X117789D01*
X121352Y132401D02*
X121987D01*
X117789Y135963D02*
X121352Y132401D01*
X116316Y136985D02*
X117337Y135963D01*
X121987Y132401D02*
X123009Y131379D01*
Y131182D02*
Y131379D01*
X123009Y137182D02*
Y137379D01*
X124386Y138756D01*
X124583D01*
X125461Y139635D01*
Y144682D01*
D77*
X79937Y167108D02*
X82378Y164667D01*
Y147793D02*
X84652Y145519D01*
X82378Y147793D02*
Y164667D01*
X81962Y142829D02*
X84652Y145519D01*
X87573Y133270D02*
X88262Y132581D01*
X83807Y133270D02*
X87573D01*
X81962Y135115D02*
Y142829D01*
Y135115D02*
X83807Y133270D01*
X78430Y173082D02*
X79937Y171575D01*
Y167108D02*
Y171575D01*
X78430Y173082D02*
X79414D01*
X82114Y175782D02*
X124262D01*
X131962Y168082D01*
X79414Y173082D02*
X82114Y175782D01*
X140062Y146828D02*
X140259D01*
X139697D02*
X140062D01*
X133807Y137981D02*
Y146857D01*
Y137981D02*
X135804Y135984D01*
X131962Y148702D02*
Y168082D01*
X139669Y146857D02*
X139697Y146828D01*
X133807Y146857D02*
X139669D01*
X131962Y148702D02*
X133807Y146857D01*
X84652Y145519D02*
X88853D01*
X88862Y145528D01*
X89059D01*
X142605Y144442D02*
X145123D01*
X140259Y146828D02*
X142605Y144482D01*
X157862Y144435D02*
X162724D01*
X162749Y144410D01*
X89256Y145015D02*
X91135Y143135D01*
X89256Y145015D02*
Y145332D01*
X91135Y143135D02*
X94678D01*
X89059Y145528D02*
X89256Y145332D01*
X107162Y143135D02*
X111599D01*
D78*
X163463Y145124D02*
Y145282D01*
X162749Y144410D02*
X163463Y145124D01*
D79*
X111599Y143135D02*
X112863Y144398D01*
Y144682D01*
D80*
X216535Y11811D02*
D03*
X19685D02*
D03*
D81*
X38062Y150482D02*
D03*
X20739D02*
D03*
D82*
X69962Y137782D02*
D03*
X64962D02*
D03*
X69962Y142782D02*
D03*
X64962D02*
D03*
X69962Y147782D02*
D03*
X64962D02*
D03*
X69962Y152782D02*
D03*
X64962D02*
D03*
X69962Y157782D02*
D03*
X64962D02*
D03*
D83*
X6313Y56882D02*
D03*
Y29225D02*
D03*
D84*
X18124Y52601D02*
D03*
Y33506D02*
D03*
D85*
X57700Y53300D02*
D03*
X171469Y37189D02*
D03*
X171709Y42035D02*
D03*
X80828Y36936D02*
D03*
X61269Y59199D02*
D03*
X62002Y53128D02*
D03*
X30762Y54282D02*
D03*
X35429Y37095D02*
D03*
X51794Y27660D02*
D03*
X34329Y48901D02*
D03*
X25462Y27582D02*
D03*
X32166Y45766D02*
D03*
X40062Y52982D02*
D03*
X32123Y40216D02*
D03*
X57362Y33182D02*
D03*
X39962Y32382D02*
D03*
X104062Y38877D02*
D03*
X89194Y56929D02*
D03*
X96902Y57422D02*
D03*
X72952Y26390D02*
D03*
X99985Y66569D02*
D03*
X160898Y139639D02*
D03*
X156361Y134849D02*
D03*
X144271Y137499D02*
D03*
X151747Y155399D02*
D03*
X151871Y149928D02*
D03*
X151847Y152707D02*
D03*
X101170Y151407D02*
D03*
X101195Y148628D02*
D03*
X101071Y154099D02*
D03*
X110114Y138921D02*
D03*
X93325Y136400D02*
D03*
X106362Y133982D02*
D03*
D86*
X44314Y136421D02*
D03*
X38386Y128485D02*
D03*
X50085Y128485D02*
D03*
X26463D02*
D03*
X14764Y128485D02*
D03*
X20692Y136421D02*
D03*
X75107Y158922D02*
D03*
X173262Y103482D02*
D03*
X185162Y31035D02*
D03*
X77297Y151338D02*
D03*
X61503Y75456D02*
D03*
X57762Y94782D02*
D03*
X57862Y125982D02*
D03*
X65262Y119182D02*
D03*
X76237Y90213D02*
D03*
X71462Y71982D02*
D03*
X69859Y103079D02*
D03*
X7673Y115042D02*
D03*
X15188Y119229D02*
D03*
X48241Y115333D02*
D03*
X5878Y70659D02*
D03*
X52779Y119138D02*
D03*
X43358Y119115D02*
D03*
X11917Y65856D02*
D03*
X103458Y28316D02*
D03*
X104762Y97682D02*
D03*
X90762Y101182D02*
D03*
X170762Y64782D02*
D03*
X170262Y74182D02*
D03*
X80013Y122200D02*
D03*
X83762Y125382D02*
D03*
X94217Y104421D02*
D03*
X165462Y111782D02*
D03*
X165616Y117835D02*
D03*
X165662Y124482D02*
D03*
X162285Y94559D02*
D03*
X127185Y94459D02*
D03*
X147592Y120745D02*
D03*
X163462Y150282D02*
D03*
X112862Y149982D02*
D03*
X97162Y119382D02*
D03*
X88362Y115082D02*
D03*
X176494Y137682D02*
D03*
X153806Y120686D02*
D03*
X159706Y120786D02*
D03*
X139054Y117764D02*
D03*
X139076Y126130D02*
D03*
X133397Y121861D02*
D03*
X176040Y150603D02*
D03*
X180136Y145402D02*
D03*
X171770Y145120D02*
D03*
X126654Y137021D02*
D03*
X121171Y144520D02*
D03*
X129537Y144802D02*
D03*
X125441Y150004D02*
D03*
X88356Y124277D02*
D03*
X109162Y119382D02*
D03*
X103262Y119282D02*
D03*
M02*
