G04*
G04 #@! TF.GenerationSoftware,Altium Limited,Altium Designer,20.2.4 (192)*
G04*
G04 Layer_Color=16711935*
%FSLAX25Y25*%
%MOIN*%
G70*
G04*
G04 #@! TF.SameCoordinates,E48B743E-56E7-44FA-BC68-CEDDD1A44BF1*
G04*
G04*
G04 #@! TF.FilePolarity,Negative*
G04*
G01*
G75*
%ADD14C,0.00600*%
%ADD70C,0.12611*%
%ADD71C,0.08674*%
%ADD72C,0.04737*%
G04:AMPARAMS|DCode=73|XSize=90.68mil|YSize=82.8mil|CornerRadius=22.7mil|HoleSize=0mil|Usage=FLASHONLY|Rotation=180.000|XOffset=0mil|YOffset=0mil|HoleType=Round|Shape=RoundedRectangle|*
%AMROUNDEDRECTD73*
21,1,0.09068,0.03740,0,0,180.0*
21,1,0.04528,0.08280,0,0,180.0*
1,1,0.04540,-0.02264,0.01870*
1,1,0.04540,0.02264,0.01870*
1,1,0.04540,0.02264,-0.01870*
1,1,0.04540,-0.02264,-0.01870*
%
%ADD73ROUNDEDRECTD73*%
G04:AMPARAMS|DCode=74|XSize=57.21mil|YSize=49.34mil|CornerRadius=24.67mil|HoleSize=0mil|Usage=FLASHONLY|Rotation=180.000|XOffset=0mil|YOffset=0mil|HoleType=Round|Shape=RoundedRectangle|*
%AMROUNDEDRECTD74*
21,1,0.05721,0.00000,0,0,180.0*
21,1,0.00787,0.04934,0,0,180.0*
1,1,0.04934,-0.00394,0.00000*
1,1,0.04934,0.00394,0.00000*
1,1,0.04934,0.00394,0.00000*
1,1,0.04934,-0.00394,0.00000*
%
%ADD74ROUNDEDRECTD74*%
D14*
X234651Y112D02*
X236221Y1683D01*
X1Y179001D02*
X2200Y181200D01*
X2288Y112D02*
X234651D01*
X1Y2399D02*
X2288Y112D01*
X2200Y181200D02*
X234862D01*
X236221Y179841D01*
X1Y2399D02*
Y179001D01*
X236221Y1683D02*
Y179841D01*
D70*
X216535Y11811D02*
D03*
X19685D02*
D03*
D71*
X38062Y150482D02*
D03*
X20739D02*
D03*
D72*
X69962Y137782D02*
D03*
X64962D02*
D03*
X69962Y142782D02*
D03*
X64962D02*
D03*
X69962Y147782D02*
D03*
X64962D02*
D03*
X69962Y152782D02*
D03*
X64962D02*
D03*
X69962Y157782D02*
D03*
X64962D02*
D03*
D73*
X6313Y56882D02*
D03*
Y29225D02*
D03*
D74*
X18124Y52601D02*
D03*
Y33506D02*
D03*
M02*
