G04*
G04 #@! TF.GenerationSoftware,Altium Limited,Altium Designer,20.2.4 (192)*
G04*
G04 Layer_Color=8388736*
%FSLAX25Y25*%
%MOIN*%
G70*
G04*
G04 #@! TF.SameCoordinates,E48B743E-56E7-44FA-BC68-CEDDD1A44BF1*
G04*
G04*
G04 #@! TF.FilePolarity,Negative*
G04*
G01*
G75*
%ADD14C,0.00600*%
G04:AMPARAMS|DCode=43|XSize=126.11mil|YSize=86.74mil|CornerRadius=23.68mil|HoleSize=0mil|Usage=FLASHONLY|Rotation=270.000|XOffset=0mil|YOffset=0mil|HoleType=Round|Shape=RoundedRectangle|*
%AMROUNDEDRECTD43*
21,1,0.12611,0.03937,0,0,270.0*
21,1,0.07874,0.08674,0,0,270.0*
1,1,0.04737,-0.01968,-0.03937*
1,1,0.04737,-0.01968,0.03937*
1,1,0.04737,0.01968,0.03937*
1,1,0.04737,0.01968,-0.03937*
%
%ADD43ROUNDEDRECTD43*%
%ADD44R,0.08280X0.07887*%
G04:AMPARAMS|DCode=45|XSize=23.75mil|YSize=86.74mil|CornerRadius=7.94mil|HoleSize=0mil|Usage=FLASHONLY|Rotation=270.000|XOffset=0mil|YOffset=0mil|HoleType=Round|Shape=RoundedRectangle|*
%AMROUNDEDRECTD45*
21,1,0.02375,0.07087,0,0,270.0*
21,1,0.00787,0.08674,0,0,270.0*
1,1,0.01587,-0.03543,-0.00394*
1,1,0.01587,-0.03543,0.00394*
1,1,0.01587,0.03543,0.00394*
1,1,0.01587,0.03543,-0.00394*
%
%ADD45ROUNDEDRECTD45*%
G04:AMPARAMS|DCode=46|XSize=47.37mil|YSize=43.43mil|CornerRadius=8.43mil|HoleSize=0mil|Usage=FLASHONLY|Rotation=90.000|XOffset=0mil|YOffset=0mil|HoleType=Round|Shape=RoundedRectangle|*
%AMROUNDEDRECTD46*
21,1,0.04737,0.02657,0,0,90.0*
21,1,0.03051,0.04343,0,0,90.0*
1,1,0.01686,0.01329,0.01526*
1,1,0.01686,0.01329,-0.01526*
1,1,0.01686,-0.01329,-0.01526*
1,1,0.01686,-0.01329,0.01526*
%
%ADD46ROUNDEDRECTD46*%
G04:AMPARAMS|DCode=47|XSize=47.37mil|YSize=19.81mil|CornerRadius=5.48mil|HoleSize=0mil|Usage=FLASHONLY|Rotation=0.000|XOffset=0mil|YOffset=0mil|HoleType=Round|Shape=RoundedRectangle|*
%AMROUNDEDRECTD47*
21,1,0.04737,0.00886,0,0,0.0*
21,1,0.03642,0.01981,0,0,0.0*
1,1,0.01095,0.01821,-0.00443*
1,1,0.01095,-0.01821,-0.00443*
1,1,0.01095,-0.01821,0.00443*
1,1,0.01095,0.01821,0.00443*
%
%ADD47ROUNDEDRECTD47*%
G04:AMPARAMS|DCode=48|XSize=47.37mil|YSize=19.81mil|CornerRadius=5.48mil|HoleSize=0mil|Usage=FLASHONLY|Rotation=90.000|XOffset=0mil|YOffset=0mil|HoleType=Round|Shape=RoundedRectangle|*
%AMROUNDEDRECTD48*
21,1,0.04737,0.00886,0,0,90.0*
21,1,0.03642,0.01981,0,0,90.0*
1,1,0.01095,0.00443,0.01821*
1,1,0.01095,0.00443,-0.01821*
1,1,0.01095,-0.00443,-0.01821*
1,1,0.01095,-0.00443,0.01821*
%
%ADD48ROUNDEDRECTD48*%
G04:AMPARAMS|DCode=49|XSize=139.89mil|YSize=139.89mil|CornerRadius=13.89mil|HoleSize=0mil|Usage=FLASHONLY|Rotation=90.000|XOffset=0mil|YOffset=0mil|HoleType=Round|Shape=RoundedRectangle|*
%AMROUNDEDRECTD49*
21,1,0.13989,0.11211,0,0,90.0*
21,1,0.11211,0.13989,0,0,90.0*
1,1,0.02778,0.05605,0.05605*
1,1,0.02778,0.05605,-0.05605*
1,1,0.02778,-0.05605,-0.05605*
1,1,0.02778,-0.05605,0.05605*
%
%ADD49ROUNDEDRECTD49*%
G04:AMPARAMS|DCode=50|XSize=31.62mil|YSize=47.37mil|CornerRadius=6.95mil|HoleSize=0mil|Usage=FLASHONLY|Rotation=0.000|XOffset=0mil|YOffset=0mil|HoleType=Round|Shape=RoundedRectangle|*
%AMROUNDEDRECTD50*
21,1,0.03162,0.03347,0,0,0.0*
21,1,0.01772,0.04737,0,0,0.0*
1,1,0.01391,0.00886,-0.01673*
1,1,0.01391,-0.00886,-0.01673*
1,1,0.01391,-0.00886,0.01673*
1,1,0.01391,0.00886,0.01673*
%
%ADD50ROUNDEDRECTD50*%
G04:AMPARAMS|DCode=51|XSize=47.37mil|YSize=43.43mil|CornerRadius=8.43mil|HoleSize=0mil|Usage=FLASHONLY|Rotation=180.000|XOffset=0mil|YOffset=0mil|HoleType=Round|Shape=RoundedRectangle|*
%AMROUNDEDRECTD51*
21,1,0.04737,0.02657,0,0,180.0*
21,1,0.03051,0.04343,0,0,180.0*
1,1,0.01686,-0.01526,0.01329*
1,1,0.01686,0.01526,0.01329*
1,1,0.01686,0.01526,-0.01329*
1,1,0.01686,-0.01526,-0.01329*
%
%ADD51ROUNDEDRECTD51*%
G04:AMPARAMS|DCode=52|XSize=39.5mil|YSize=39.5mil|CornerRadius=7.94mil|HoleSize=0mil|Usage=FLASHONLY|Rotation=180.000|XOffset=0mil|YOffset=0mil|HoleType=Round|Shape=RoundedRectangle|*
%AMROUNDEDRECTD52*
21,1,0.03950,0.02362,0,0,180.0*
21,1,0.02362,0.03950,0,0,180.0*
1,1,0.01587,-0.01181,0.01181*
1,1,0.01587,0.01181,0.01181*
1,1,0.01587,0.01181,-0.01181*
1,1,0.01587,-0.01181,-0.01181*
%
%ADD52ROUNDEDRECTD52*%
G04:AMPARAMS|DCode=53|XSize=86.74mil|YSize=43.43mil|CornerRadius=12.86mil|HoleSize=0mil|Usage=FLASHONLY|Rotation=180.000|XOffset=0mil|YOffset=0mil|HoleType=Round|Shape=RoundedRectangle|*
%AMROUNDEDRECTD53*
21,1,0.08674,0.01772,0,0,180.0*
21,1,0.06102,0.04343,0,0,180.0*
1,1,0.02572,-0.03051,0.00886*
1,1,0.02572,0.03051,0.00886*
1,1,0.02572,0.03051,-0.00886*
1,1,0.02572,-0.03051,-0.00886*
%
%ADD53ROUNDEDRECTD53*%
G04:AMPARAMS|DCode=54|XSize=86.74mil|YSize=43.43mil|CornerRadius=12.86mil|HoleSize=0mil|Usage=FLASHONLY|Rotation=270.000|XOffset=0mil|YOffset=0mil|HoleType=Round|Shape=RoundedRectangle|*
%AMROUNDEDRECTD54*
21,1,0.08674,0.01772,0,0,270.0*
21,1,0.06102,0.04343,0,0,270.0*
1,1,0.02572,-0.00886,-0.03051*
1,1,0.02572,-0.00886,0.03051*
1,1,0.02572,0.00886,0.03051*
1,1,0.02572,0.00886,-0.03051*
%
%ADD54ROUNDEDRECTD54*%
G04:AMPARAMS|DCode=55|XSize=204.85mil|YSize=204.85mil|CornerRadius=53.21mil|HoleSize=0mil|Usage=FLASHONLY|Rotation=180.000|XOffset=0mil|YOffset=0mil|HoleType=Round|Shape=RoundedRectangle|*
%AMROUNDEDRECTD55*
21,1,0.20485,0.09843,0,0,180.0*
21,1,0.09843,0.20485,0,0,180.0*
1,1,0.10642,-0.04921,0.04921*
1,1,0.10642,0.04921,0.04921*
1,1,0.10642,0.04921,-0.04921*
1,1,0.10642,-0.04921,-0.04921*
%
%ADD55ROUNDEDRECTD55*%
G04:AMPARAMS|DCode=56|XSize=141.86mil|YSize=102.49mil|CornerRadius=15.81mil|HoleSize=0mil|Usage=FLASHONLY|Rotation=90.000|XOffset=0mil|YOffset=0mil|HoleType=Round|Shape=RoundedRectangle|*
%AMROUNDEDRECTD56*
21,1,0.14186,0.07087,0,0,90.0*
21,1,0.11024,0.10249,0,0,90.0*
1,1,0.03162,0.03543,0.05512*
1,1,0.03162,0.03543,-0.05512*
1,1,0.03162,-0.03543,-0.05512*
1,1,0.03162,-0.03543,0.05512*
%
%ADD56ROUNDEDRECTD56*%
%ADD57R,0.01784X0.01981*%
G04:AMPARAMS|DCode=58|XSize=31.62mil|YSize=19.81mil|CornerRadius=5.48mil|HoleSize=0mil|Usage=FLASHONLY|Rotation=180.000|XOffset=0mil|YOffset=0mil|HoleType=Round|Shape=RoundedRectangle|*
%AMROUNDEDRECTD58*
21,1,0.03162,0.00886,0,0,180.0*
21,1,0.02067,0.01981,0,0,180.0*
1,1,0.01095,-0.01034,0.00443*
1,1,0.01095,0.01034,0.00443*
1,1,0.01095,0.01034,-0.00443*
1,1,0.01095,-0.01034,-0.00443*
%
%ADD58ROUNDEDRECTD58*%
G04:AMPARAMS|DCode=59|XSize=61.15mil|YSize=19.81mil|CornerRadius=5.48mil|HoleSize=0mil|Usage=FLASHONLY|Rotation=90.000|XOffset=0mil|YOffset=0mil|HoleType=Round|Shape=RoundedRectangle|*
%AMROUNDEDRECTD59*
21,1,0.06115,0.00886,0,0,90.0*
21,1,0.05020,0.01981,0,0,90.0*
1,1,0.01095,0.00443,0.02510*
1,1,0.01095,0.00443,-0.02510*
1,1,0.01095,-0.00443,-0.02510*
1,1,0.01095,-0.00443,0.02510*
%
%ADD59ROUNDEDRECTD59*%
G04:AMPARAMS|DCode=60|XSize=74.93mil|YSize=19.81mil|CornerRadius=5.48mil|HoleSize=0mil|Usage=FLASHONLY|Rotation=90.000|XOffset=0mil|YOffset=0mil|HoleType=Round|Shape=RoundedRectangle|*
%AMROUNDEDRECTD60*
21,1,0.07493,0.00886,0,0,90.0*
21,1,0.06398,0.01981,0,0,90.0*
1,1,0.01095,0.00443,0.03199*
1,1,0.01095,0.00443,-0.03199*
1,1,0.01095,-0.00443,-0.03199*
1,1,0.01095,-0.00443,0.03199*
%
%ADD60ROUNDEDRECTD60*%
G04:AMPARAMS|DCode=61|XSize=31.62mil|YSize=19.81mil|CornerRadius=5.48mil|HoleSize=0mil|Usage=FLASHONLY|Rotation=90.000|XOffset=0mil|YOffset=0mil|HoleType=Round|Shape=RoundedRectangle|*
%AMROUNDEDRECTD61*
21,1,0.03162,0.00886,0,0,90.0*
21,1,0.02067,0.01981,0,0,90.0*
1,1,0.01095,0.00443,0.01034*
1,1,0.01095,0.00443,-0.01034*
1,1,0.01095,-0.00443,-0.01034*
1,1,0.01095,-0.00443,0.01034*
%
%ADD61ROUNDEDRECTD61*%
G04:AMPARAMS|DCode=62|XSize=90.68mil|YSize=70.99mil|CornerRadius=7.15mil|HoleSize=0mil|Usage=FLASHONLY|Rotation=180.000|XOffset=0mil|YOffset=0mil|HoleType=Round|Shape=RoundedRectangle|*
%AMROUNDEDRECTD62*
21,1,0.09068,0.05669,0,0,180.0*
21,1,0.07638,0.07099,0,0,180.0*
1,1,0.01430,-0.03819,0.02835*
1,1,0.01430,0.03819,0.02835*
1,1,0.01430,0.03819,-0.02835*
1,1,0.01430,-0.03819,-0.02835*
%
%ADD62ROUNDEDRECTD62*%
G04:AMPARAMS|DCode=63|XSize=82.8mil|YSize=59.18mil|CornerRadius=10.4mil|HoleSize=0mil|Usage=FLASHONLY|Rotation=0.000|XOffset=0mil|YOffset=0mil|HoleType=Round|Shape=RoundedRectangle|*
%AMROUNDEDRECTD63*
21,1,0.08280,0.03839,0,0,0.0*
21,1,0.06201,0.05918,0,0,0.0*
1,1,0.02080,0.03100,-0.01919*
1,1,0.02080,-0.03100,-0.01919*
1,1,0.02080,-0.03100,0.01919*
1,1,0.02080,0.03100,0.01919*
%
%ADD63ROUNDEDRECTD63*%
G04:AMPARAMS|DCode=64|XSize=118.24mil|YSize=47.37mil|CornerRadius=8.92mil|HoleSize=0mil|Usage=FLASHONLY|Rotation=0.000|XOffset=0mil|YOffset=0mil|HoleType=Round|Shape=RoundedRectangle|*
%AMROUNDEDRECTD64*
21,1,0.11824,0.02953,0,0,0.0*
21,1,0.10039,0.04737,0,0,0.0*
1,1,0.01784,0.05020,-0.01476*
1,1,0.01784,-0.05020,-0.01476*
1,1,0.01784,-0.05020,0.01476*
1,1,0.01784,0.05020,0.01476*
%
%ADD64ROUNDEDRECTD64*%
G04:AMPARAMS|DCode=65|XSize=47.37mil|YSize=39.5mil|CornerRadius=7.94mil|HoleSize=0mil|Usage=FLASHONLY|Rotation=270.000|XOffset=0mil|YOffset=0mil|HoleType=Round|Shape=RoundedRectangle|*
%AMROUNDEDRECTD65*
21,1,0.04737,0.02362,0,0,270.0*
21,1,0.03150,0.03950,0,0,270.0*
1,1,0.01587,-0.01181,-0.01575*
1,1,0.01587,-0.01181,0.01575*
1,1,0.01587,0.01181,0.01575*
1,1,0.01587,0.01181,-0.01575*
%
%ADD65ROUNDEDRECTD65*%
G04:AMPARAMS|DCode=66|XSize=55.24mil|YSize=47.37mil|CornerRadius=8.92mil|HoleSize=0mil|Usage=FLASHONLY|Rotation=0.000|XOffset=0mil|YOffset=0mil|HoleType=Round|Shape=RoundedRectangle|*
%AMROUNDEDRECTD66*
21,1,0.05524,0.02953,0,0,0.0*
21,1,0.03740,0.04737,0,0,0.0*
1,1,0.01784,0.01870,-0.01476*
1,1,0.01784,-0.01870,-0.01476*
1,1,0.01784,-0.01870,0.01476*
1,1,0.01784,0.01870,0.01476*
%
%ADD66ROUNDEDRECTD66*%
G04:AMPARAMS|DCode=67|XSize=55.24mil|YSize=35.56mil|CornerRadius=7.45mil|HoleSize=0mil|Usage=FLASHONLY|Rotation=0.000|XOffset=0mil|YOffset=0mil|HoleType=Round|Shape=RoundedRectangle|*
%AMROUNDEDRECTD67*
21,1,0.05524,0.02067,0,0,0.0*
21,1,0.04035,0.03556,0,0,0.0*
1,1,0.01489,0.02018,-0.01034*
1,1,0.01489,-0.02018,-0.01034*
1,1,0.01489,-0.02018,0.01034*
1,1,0.01489,0.02018,0.01034*
%
%ADD67ROUNDEDRECTD67*%
G04:AMPARAMS|DCode=68|XSize=78.87mil|YSize=53.28mil|CornerRadius=9.66mil|HoleSize=0mil|Usage=FLASHONLY|Rotation=90.000|XOffset=0mil|YOffset=0mil|HoleType=Round|Shape=RoundedRectangle|*
%AMROUNDEDRECTD68*
21,1,0.07887,0.03396,0,0,90.0*
21,1,0.05955,0.05328,0,0,90.0*
1,1,0.01932,0.01698,0.02977*
1,1,0.01932,0.01698,-0.02977*
1,1,0.01932,-0.01698,-0.02977*
1,1,0.01932,-0.01698,0.02977*
%
%ADD68ROUNDEDRECTD68*%
G04:AMPARAMS|DCode=69|XSize=78.87mil|YSize=53.28mil|CornerRadius=9.66mil|HoleSize=0mil|Usage=FLASHONLY|Rotation=0.000|XOffset=0mil|YOffset=0mil|HoleType=Round|Shape=RoundedRectangle|*
%AMROUNDEDRECTD69*
21,1,0.07887,0.03396,0,0,0.0*
21,1,0.05955,0.05328,0,0,0.0*
1,1,0.01932,0.02977,-0.01698*
1,1,0.01932,-0.02977,-0.01698*
1,1,0.01932,-0.02977,0.01698*
1,1,0.01932,0.02977,0.01698*
%
%ADD69ROUNDEDRECTD69*%
%ADD70C,0.12611*%
%ADD71C,0.08674*%
%ADD72C,0.04737*%
G04:AMPARAMS|DCode=73|XSize=90.68mil|YSize=82.8mil|CornerRadius=22.7mil|HoleSize=0mil|Usage=FLASHONLY|Rotation=180.000|XOffset=0mil|YOffset=0mil|HoleType=Round|Shape=RoundedRectangle|*
%AMROUNDEDRECTD73*
21,1,0.09068,0.03740,0,0,180.0*
21,1,0.04528,0.08280,0,0,180.0*
1,1,0.04540,-0.02264,0.01870*
1,1,0.04540,0.02264,0.01870*
1,1,0.04540,0.02264,-0.01870*
1,1,0.04540,-0.02264,-0.01870*
%
%ADD73ROUNDEDRECTD73*%
G04:AMPARAMS|DCode=74|XSize=57.21mil|YSize=49.34mil|CornerRadius=24.67mil|HoleSize=0mil|Usage=FLASHONLY|Rotation=180.000|XOffset=0mil|YOffset=0mil|HoleType=Round|Shape=RoundedRectangle|*
%AMROUNDEDRECTD74*
21,1,0.05721,0.00000,0,0,180.0*
21,1,0.00787,0.04934,0,0,180.0*
1,1,0.04934,-0.00394,0.00000*
1,1,0.04934,0.00394,0.00000*
1,1,0.04934,0.00394,0.00000*
1,1,0.04934,-0.00394,0.00000*
%
%ADD74ROUNDEDRECTD74*%
G36*
X22187Y37553D02*
Y48553D01*
X14187D01*
Y37553D01*
X22187D01*
D02*
G37*
D14*
X234651Y112D02*
X236221Y1683D01*
X1Y179001D02*
X2200Y181200D01*
X2288Y112D02*
X234651D01*
X1Y2399D02*
X2288Y112D01*
X2200Y181200D02*
X234862D01*
X236221Y179841D01*
X1Y2399D02*
Y179001D01*
X236221Y1683D02*
Y179841D01*
D43*
X20346Y128829D02*
D03*
X43968D02*
D03*
Y172135D02*
D03*
X20346D02*
D03*
D44*
X6313Y38526D02*
D03*
Y47581D02*
D03*
D45*
X18124Y48171D02*
D03*
Y45612D02*
D03*
Y43053D02*
D03*
Y40494D02*
D03*
Y37935D02*
D03*
D46*
X36009Y27682D02*
D03*
X29316D02*
D03*
X29039Y122823D02*
D03*
X35731D02*
D03*
X41216Y27682D02*
D03*
X47909D02*
D03*
X71409Y162882D02*
D03*
X64716D02*
D03*
X36009Y32882D02*
D03*
X29316D02*
D03*
X96943Y61128D02*
D03*
X90250D02*
D03*
X96924Y72081D02*
D03*
X90231D02*
D03*
X96905Y66548D02*
D03*
X90212D02*
D03*
X96943Y77561D02*
D03*
X90250D02*
D03*
X123009Y131182D02*
D03*
X116316D02*
D03*
X173009Y137682D02*
D03*
X166316D02*
D03*
X62016Y126982D02*
D03*
X68709D02*
D03*
X173009Y131582D02*
D03*
X166316D02*
D03*
X123009Y137182D02*
D03*
X116316D02*
D03*
D47*
X38977Y48906D02*
D03*
Y46938D02*
D03*
Y44969D02*
D03*
Y43001D02*
D03*
Y41032D02*
D03*
Y39064D02*
D03*
Y37095D02*
D03*
X57481D02*
D03*
Y39064D02*
D03*
Y41032D02*
D03*
Y43001D02*
D03*
Y44969D02*
D03*
Y46938D02*
D03*
Y48906D02*
D03*
D48*
X42324Y33749D02*
D03*
X44292D02*
D03*
X46261D02*
D03*
X48229D02*
D03*
X50198D02*
D03*
X52166D02*
D03*
X54135D02*
D03*
Y52253D02*
D03*
X52166D02*
D03*
X50198D02*
D03*
X48229D02*
D03*
X46261D02*
D03*
X44292D02*
D03*
X42324D02*
D03*
D49*
X48229Y43001D02*
D03*
D50*
X65622Y29627D02*
D03*
X73102D02*
D03*
X69362Y38682D02*
D03*
X73202Y54882D02*
D03*
X65722D02*
D03*
X69462Y45827D02*
D03*
D51*
X64762Y38808D02*
D03*
Y45501D02*
D03*
X73762Y45501D02*
D03*
Y38808D02*
D03*
X97162Y122836D02*
D03*
Y129528D02*
D03*
X88862Y145528D02*
D03*
Y138836D02*
D03*
X159756Y130883D02*
D03*
Y124190D02*
D03*
X140062Y146828D02*
D03*
Y140136D02*
D03*
X189562Y41975D02*
D03*
Y35282D02*
D03*
X191410Y104743D02*
D03*
Y98050D02*
D03*
X185862Y104728D02*
D03*
Y98036D02*
D03*
X195162Y35236D02*
D03*
Y41928D02*
D03*
X196962Y104728D02*
D03*
Y98036D02*
D03*
X77162Y144528D02*
D03*
Y137836D02*
D03*
X147662Y124235D02*
D03*
Y130928D02*
D03*
X153696Y124199D02*
D03*
Y130892D02*
D03*
X103162Y122836D02*
D03*
Y129528D02*
D03*
X109162D02*
D03*
Y122836D02*
D03*
D52*
X170569Y117982D02*
D03*
X177262D02*
D03*
X170516Y124482D02*
D03*
X177209D02*
D03*
X170516Y111782D02*
D03*
X177209D02*
D03*
D53*
X178349Y32189D02*
D03*
Y37189D02*
D03*
Y42189D02*
D03*
Y47189D02*
D03*
Y52189D02*
D03*
Y57189D02*
D03*
Y62189D02*
D03*
Y67189D02*
D03*
Y72189D02*
D03*
Y77189D02*
D03*
Y82189D02*
D03*
Y87189D02*
D03*
Y92189D02*
D03*
Y97189D02*
D03*
X111420D02*
D03*
Y92189D02*
D03*
Y87189D02*
D03*
Y82189D02*
D03*
Y77189D02*
D03*
Y72189D02*
D03*
Y67189D02*
D03*
Y62189D02*
D03*
Y57189D02*
D03*
Y52189D02*
D03*
Y47189D02*
D03*
Y42189D02*
D03*
Y37189D02*
D03*
Y32189D02*
D03*
D54*
X167384Y101126D02*
D03*
X162384D02*
D03*
X157384D02*
D03*
X152384D02*
D03*
X147384D02*
D03*
X142384D02*
D03*
X137384D02*
D03*
X132384D02*
D03*
X127384D02*
D03*
X122384D02*
D03*
D55*
X145662Y63282D02*
D03*
D56*
X163394Y163920D02*
D03*
X140559D02*
D03*
X112680Y163982D02*
D03*
X89845D02*
D03*
D57*
X147028Y144435D02*
D03*
X156673D02*
D03*
X96351Y143135D02*
D03*
X105997D02*
D03*
D58*
X146338Y139514D02*
D03*
Y141482D02*
D03*
Y143450D02*
D03*
Y145419D02*
D03*
X157362D02*
D03*
Y143450D02*
D03*
Y141482D02*
D03*
Y139514D02*
D03*
X95662Y138214D02*
D03*
Y140182D02*
D03*
Y142150D02*
D03*
Y144119D02*
D03*
X106686D02*
D03*
Y142150D02*
D03*
Y140182D02*
D03*
Y138214D02*
D03*
D59*
X149882Y145419D02*
D03*
X153819D02*
D03*
X99205Y144119D02*
D03*
X103142D02*
D03*
D60*
X151850Y144730D02*
D03*
X101174Y143430D02*
D03*
D61*
X154803Y137840D02*
D03*
X152835D02*
D03*
X150866D02*
D03*
X148898D02*
D03*
X104127Y136540D02*
D03*
X102158D02*
D03*
X100190D02*
D03*
X98221D02*
D03*
D62*
X78430Y173082D02*
D03*
X61894D02*
D03*
D63*
X5853Y66110D02*
D03*
D64*
X7629Y119260D02*
D03*
D65*
X23968D02*
D03*
D66*
X48373D02*
D03*
X65302Y75362D02*
D03*
D67*
Y115520D02*
D03*
Y111779D02*
D03*
Y107449D02*
D03*
Y103118D02*
D03*
Y98787D02*
D03*
Y94457D02*
D03*
Y90126D02*
D03*
Y85795D02*
D03*
Y81464D02*
D03*
D68*
X176061Y145282D02*
D03*
X163463D02*
D03*
X125461Y144682D02*
D03*
X112863D02*
D03*
D69*
X138736Y121965D02*
D03*
Y134563D02*
D03*
X88262Y119983D02*
D03*
Y132581D02*
D03*
D70*
X216535Y11811D02*
D03*
X19685D02*
D03*
D71*
X38062Y150482D02*
D03*
X20739D02*
D03*
D72*
X69962Y137782D02*
D03*
X64962D02*
D03*
X69962Y142782D02*
D03*
X64962D02*
D03*
X69962Y147782D02*
D03*
X64962D02*
D03*
X69962Y152782D02*
D03*
X64962D02*
D03*
X69962Y157782D02*
D03*
X64962D02*
D03*
D73*
X6313Y56882D02*
D03*
Y29225D02*
D03*
D74*
X18124Y52601D02*
D03*
Y33506D02*
D03*
M02*
