G04*
G04 #@! TF.GenerationSoftware,Altium Limited,Altium Designer,20.2.4 (192)*
G04*
G04 Layer_Physical_Order=2*
G04 Layer_Color=16711680*
%FSLAX25Y25*%
%MOIN*%
G70*
G04*
G04 #@! TF.SameCoordinates,E48B743E-56E7-44FA-BC68-CEDDD1A44BF1*
G04*
G04*
G04 #@! TF.FilePolarity,Positive*
G04*
G01*
G75*
%ADD11C,0.01000*%
%ADD14C,0.00600*%
%ADD75C,0.04000*%
%ADD76C,0.01500*%
%ADD79C,0.02000*%
%ADD80C,0.11811*%
%ADD81C,0.07874*%
%ADD82C,0.03937*%
G04:AMPARAMS|DCode=83|XSize=82.68mil|YSize=74.8mil|CornerRadius=18.7mil|HoleSize=0mil|Usage=FLASHONLY|Rotation=180.000|XOffset=0mil|YOffset=0mil|HoleType=Round|Shape=RoundedRectangle|*
%AMROUNDEDRECTD83*
21,1,0.08268,0.03740,0,0,180.0*
21,1,0.04528,0.07480,0,0,180.0*
1,1,0.03740,-0.02264,0.01870*
1,1,0.03740,0.02264,0.01870*
1,1,0.03740,0.02264,-0.01870*
1,1,0.03740,-0.02264,-0.01870*
%
%ADD83ROUNDEDRECTD83*%
G04:AMPARAMS|DCode=84|XSize=49.21mil|YSize=41.34mil|CornerRadius=20.67mil|HoleSize=0mil|Usage=FLASHONLY|Rotation=180.000|XOffset=0mil|YOffset=0mil|HoleType=Round|Shape=RoundedRectangle|*
%AMROUNDEDRECTD84*
21,1,0.04921,0.00000,0,0,180.0*
21,1,0.00787,0.04134,0,0,180.0*
1,1,0.04134,-0.00394,0.00000*
1,1,0.04134,0.00394,0.00000*
1,1,0.04134,0.00394,0.00000*
1,1,0.04134,-0.00394,0.00000*
%
%ADD84ROUNDEDRECTD84*%
%ADD85C,0.02362*%
%ADD86C,0.03150*%
G36*
X234214Y179010D02*
Y2514D01*
X233819Y2119D01*
X183982D01*
Y29182D01*
X183904Y29572D01*
X183683Y29903D01*
X183352Y30124D01*
X182962Y30202D01*
X106962D01*
X106572Y30124D01*
X106241Y29903D01*
X106020Y29572D01*
X105943Y29182D01*
Y2119D01*
X3119D01*
X2008Y3231D01*
Y178169D01*
X3031Y179193D01*
X234031D01*
X234214Y179010D01*
D02*
G37*
%LPC*%
G36*
X175945Y164066D02*
X62762Y164066D01*
X62762Y164066D01*
X62079Y163930D01*
X61501Y163544D01*
X61501Y163544D01*
X58900Y160944D01*
X58514Y160365D01*
X58378Y159682D01*
Y150682D01*
X58514Y149999D01*
X58900Y149420D01*
X61334Y146987D01*
X61334Y146987D01*
X61913Y146600D01*
X62268Y146529D01*
X62369Y146285D01*
X62845Y145665D01*
X63018Y145532D01*
Y145032D01*
X62845Y144899D01*
X62369Y144279D01*
X62070Y143557D01*
X61968Y142782D01*
X62070Y142007D01*
X62369Y141285D01*
X62845Y140665D01*
X63018Y140532D01*
Y140032D01*
X62845Y139899D01*
X62369Y139279D01*
X62070Y138557D01*
X61968Y137782D01*
X62070Y137007D01*
X62369Y136285D01*
X62845Y135665D01*
X63465Y135189D01*
X64187Y134890D01*
X64962Y134788D01*
X65737Y134890D01*
X66459Y135189D01*
X67079Y135665D01*
X67212Y135838D01*
X67712D01*
X67845Y135665D01*
X68465Y135189D01*
X69187Y134890D01*
X69962Y134788D01*
X70737Y134890D01*
X71459Y135189D01*
X72079Y135665D01*
X72555Y136285D01*
X72854Y137007D01*
X72956Y137782D01*
X72854Y138557D01*
X72555Y139279D01*
X72079Y139899D01*
X71906Y140032D01*
Y140532D01*
X72079Y140665D01*
X72555Y141285D01*
X72854Y142007D01*
X72956Y142782D01*
X72854Y143557D01*
X72555Y144279D01*
X72079Y144899D01*
X71906Y145032D01*
Y145532D01*
X72079Y145665D01*
X72555Y146285D01*
X72854Y147007D01*
X72956Y147782D01*
X72854Y148557D01*
X72555Y149279D01*
X72079Y149899D01*
X71459Y150375D01*
X70737Y150674D01*
X69962Y150776D01*
X69187Y150674D01*
X68465Y150375D01*
X67845Y149899D01*
X67712Y149726D01*
X67212D01*
X67079Y149899D01*
X66459Y150375D01*
X65737Y150674D01*
X64962Y150776D01*
X64187Y150674D01*
X63465Y150375D01*
X63198Y150170D01*
X61946Y151421D01*
Y156054D01*
X62017Y156093D01*
X62446Y156184D01*
X62845Y155665D01*
X63465Y155189D01*
X64187Y154890D01*
X64962Y154788D01*
X65737Y154890D01*
X66459Y155189D01*
X67079Y155665D01*
X67169Y155782D01*
X67755D01*
X67845Y155665D01*
X68465Y155189D01*
X69187Y154890D01*
X69962Y154788D01*
X70737Y154890D01*
X71086Y155034D01*
X72201Y153920D01*
X72779Y153533D01*
X73462Y153398D01*
X75002D01*
X75248Y152898D01*
X75047Y152636D01*
X74788Y152010D01*
X74699Y151338D01*
X74788Y150665D01*
X75047Y150039D01*
X75460Y149501D01*
X75678Y149334D01*
Y148882D01*
X75814Y148199D01*
X76200Y147620D01*
X78878Y144943D01*
Y134356D01*
X78749Y134302D01*
X78123Y133822D01*
X78123Y133822D01*
X72316Y128015D01*
X71835Y127388D01*
X71532Y126658D01*
X71429Y125875D01*
Y118129D01*
X67121Y113821D01*
X60888D01*
Y125982D01*
X60785Y126765D01*
X60483Y127495D01*
X60002Y128122D01*
X59375Y128603D01*
X58645Y128905D01*
X57862Y129008D01*
X57079Y128905D01*
X56349Y128603D01*
X55722Y128122D01*
X55242Y127495D01*
X54939Y126765D01*
X54836Y125982D01*
Y110682D01*
Y95542D01*
X54736Y94782D01*
X54839Y93999D01*
X55142Y93269D01*
X55623Y92642D01*
X55723Y92565D01*
Y72782D01*
X55878Y72002D01*
X56320Y71340D01*
X75423Y52237D01*
Y34154D01*
X75578Y33373D01*
X76020Y32712D01*
X77142Y31590D01*
X77142Y31590D01*
X77142Y31590D01*
X77192Y31540D01*
X77192Y31540D01*
X77323Y31452D01*
Y27727D01*
X75611Y26014D01*
X75150Y26261D01*
X75175Y26390D01*
X75006Y27241D01*
X74524Y27962D01*
X73803Y28444D01*
X72952Y28613D01*
X72101Y28444D01*
X71379Y27962D01*
X71350Y27919D01*
X69820D01*
X69747Y27967D01*
X69369Y28043D01*
X63091Y34320D01*
Y48000D01*
X66204Y51113D01*
X66536Y51609D01*
X66652Y52194D01*
Y55459D01*
X66536Y56045D01*
X66204Y56541D01*
X63479Y59266D01*
X63323Y60050D01*
X62841Y60772D01*
X62120Y61254D01*
X61269Y61423D01*
X60417Y61254D01*
X59696Y60772D01*
X59214Y60050D01*
X59045Y59199D01*
X59214Y58348D01*
X59696Y57627D01*
X60417Y57145D01*
X61269Y56975D01*
X61415Y57004D01*
X62695Y55724D01*
X62449Y55263D01*
X62002Y55352D01*
X61151Y55183D01*
X60430Y54701D01*
X59948Y53979D01*
X59778Y53128D01*
X59789Y53077D01*
X58341Y51630D01*
X43577D01*
X42276Y52931D01*
X42286Y52982D01*
X42117Y53833D01*
X41635Y54554D01*
X40913Y55036D01*
X40062Y55206D01*
X39211Y55036D01*
X38490Y54554D01*
X38008Y53833D01*
X37920Y53394D01*
X37378Y53229D01*
X35244Y55363D01*
X34747Y55695D01*
X34162Y55811D01*
X32364D01*
X32335Y55854D01*
X31613Y56336D01*
X30762Y56506D01*
X29911Y56336D01*
X29190Y55854D01*
X28708Y55133D01*
X28538Y54282D01*
X28708Y53431D01*
X29190Y52710D01*
X29911Y52227D01*
X30762Y52058D01*
X31613Y52227D01*
X32335Y52710D01*
X32364Y52753D01*
X33529D01*
X38974Y47308D01*
X39470Y46976D01*
X40055Y46860D01*
X41347D01*
Y37444D01*
X39141Y35238D01*
X38810Y34742D01*
X38693Y34157D01*
X38390Y33955D01*
X37968Y33324D01*
X37525Y33385D01*
X37468Y33407D01*
Y36221D01*
X37484Y36244D01*
X37653Y37095D01*
X37484Y37946D01*
X37002Y38668D01*
X36280Y39150D01*
X35429Y39319D01*
X34607Y39156D01*
X34549Y39184D01*
X34516Y39208D01*
X34205Y39502D01*
X34347Y40216D01*
X34178Y41067D01*
X33696Y41789D01*
X33517Y41908D01*
Y44045D01*
X33738Y44193D01*
X34220Y44915D01*
X34390Y45766D01*
X34220Y46617D01*
X33738Y47338D01*
X33017Y47820D01*
X32166Y47989D01*
X31315Y47820D01*
X30593Y47338D01*
X30111Y46617D01*
X29942Y45766D01*
X30111Y44915D01*
X30458Y44395D01*
Y41651D01*
X30068Y41067D01*
X29899Y40216D01*
X30068Y39365D01*
X30551Y38644D01*
X31272Y38162D01*
X32123Y37992D01*
X32945Y38156D01*
X33003Y38127D01*
X33036Y38103D01*
X33347Y37810D01*
X33205Y37095D01*
X33375Y36244D01*
X33390Y36221D01*
Y27472D01*
X33545Y26692D01*
X33987Y26030D01*
X38477Y21540D01*
X39139Y21098D01*
X39919Y20943D01*
X75462D01*
X76243Y21098D01*
X76904Y21540D01*
X80804Y25440D01*
X81246Y26102D01*
X81401Y26882D01*
Y30993D01*
X167412D01*
X168193Y31148D01*
X168854Y31590D01*
X172556Y35292D01*
X173042Y35617D01*
X173524Y36338D01*
X173693Y37189D01*
X173524Y38040D01*
X173042Y38762D01*
X172320Y39244D01*
X171868Y39334D01*
Y39843D01*
X172560Y39981D01*
X173281Y40463D01*
X173763Y41184D01*
X173932Y42035D01*
X173763Y42887D01*
X173281Y43608D01*
X172560Y44090D01*
X171709Y44259D01*
X170858Y44090D01*
X170342Y43745D01*
X170033Y43684D01*
X169454Y43297D01*
X169454Y43297D01*
X163887Y37731D01*
X106475D01*
X106157Y38230D01*
X106286Y38877D01*
X106117Y39728D01*
X105635Y40450D01*
X104913Y40932D01*
X104062Y41101D01*
X103211Y40932D01*
X102807Y40662D01*
X84106D01*
X82646Y42121D01*
Y54382D01*
X82647Y54382D01*
X82511Y55065D01*
X82124Y55644D01*
X82124Y55644D01*
X78021Y59746D01*
Y88337D01*
X78073Y88377D01*
X78486Y88915D01*
X78745Y89541D01*
X78834Y90213D01*
X78745Y90885D01*
X78486Y91512D01*
X78183Y91906D01*
X78380Y92406D01*
X91656D01*
X91863Y91906D01*
X87932Y87975D01*
X87545Y87396D01*
X87409Y86713D01*
Y58184D01*
X87139Y57780D01*
X86970Y56929D01*
X87139Y56078D01*
X87621Y55357D01*
X88343Y54874D01*
X89194Y54705D01*
X90045Y54874D01*
X90766Y55357D01*
X91248Y56078D01*
X91417Y56929D01*
X91248Y57780D01*
X90983Y58178D01*
X90978Y58246D01*
Y60170D01*
X91440Y60361D01*
X94753Y57048D01*
X94848Y56571D01*
X95330Y55850D01*
X96051Y55368D01*
X96902Y55198D01*
X97753Y55368D01*
X98475Y55850D01*
X98957Y56571D01*
X99126Y57422D01*
X98957Y58273D01*
X98475Y58995D01*
X97753Y59477D01*
X97284Y59570D01*
X97233Y59615D01*
X93446Y63401D01*
Y66121D01*
X93908Y66312D01*
X94914Y65307D01*
X95493Y64920D01*
X96175Y64785D01*
X96175Y64785D01*
X98730D01*
X99134Y64514D01*
X99985Y64345D01*
X100836Y64514D01*
X101558Y64996D01*
X102040Y65718D01*
X102209Y66569D01*
X102040Y67420D01*
X101558Y68141D01*
X100836Y68623D01*
X99985Y68793D01*
X99134Y68623D01*
X98737Y68358D01*
X98668Y68353D01*
X96914D01*
X96146Y69121D01*
Y83443D01*
X101401Y88698D01*
X160762D01*
X161445Y88833D01*
X162024Y89220D01*
X163231Y90427D01*
X163231Y90427D01*
X163617Y91006D01*
X163753Y91689D01*
X163753Y91689D01*
Y92440D01*
X164121Y92722D01*
X164534Y93260D01*
X164793Y93887D01*
X164882Y94559D01*
X164793Y95231D01*
X164534Y95857D01*
X164121Y96395D01*
X163583Y96808D01*
X162957Y97067D01*
X162285Y97156D01*
X161612Y97067D01*
X160986Y96808D01*
X160448Y96395D01*
X160036Y95857D01*
X159776Y95231D01*
X159688Y94559D01*
X159776Y93887D01*
X160036Y93260D01*
X160185Y93066D01*
Y92428D01*
X160023Y92266D01*
X129328D01*
X129131Y92766D01*
X129434Y93161D01*
X129693Y93787D01*
X129782Y94459D01*
X129693Y95131D01*
X129434Y95758D01*
X129021Y96295D01*
X128483Y96708D01*
X127857Y96968D01*
X127185Y97056D01*
X126513Y96968D01*
X125886Y96708D01*
X125349Y96295D01*
X124936Y95758D01*
X124774Y95366D01*
X106795D01*
X106629Y95771D01*
X106614Y95866D01*
X107011Y96384D01*
X107271Y97010D01*
X107359Y97682D01*
X107271Y98354D01*
X107011Y98980D01*
X106598Y99518D01*
X106061Y99931D01*
X105434Y100190D01*
X104762Y100279D01*
X104090Y100190D01*
X103464Y99931D01*
X102926Y99518D01*
X102886Y99466D01*
X101179D01*
X100988Y99928D01*
X102515Y101456D01*
X134362D01*
X135145Y101559D01*
X135875Y101862D01*
X136502Y102342D01*
X149731Y115572D01*
X149731Y115572D01*
X150212Y116199D01*
X150514Y116928D01*
X150618Y117711D01*
X150618Y117712D01*
Y120745D01*
Y123258D01*
X153002Y125642D01*
X153483Y126269D01*
X153785Y126999D01*
X153888Y127782D01*
X153888Y127782D01*
Y140229D01*
X160916Y147256D01*
X163462D01*
X164245Y147359D01*
X164975Y147661D01*
X165602Y148142D01*
X166083Y148769D01*
X166385Y149499D01*
X166488Y150282D01*
X166385Y151065D01*
X166083Y151795D01*
X165602Y152422D01*
X164975Y152902D01*
X164245Y153205D01*
X163462Y153308D01*
X159662D01*
X158879Y153205D01*
X158149Y152902D01*
X157522Y152422D01*
X148723Y143622D01*
X148373Y143166D01*
X140601D01*
X125977Y157791D01*
X126168Y158253D01*
X173729D01*
X184133Y147848D01*
Y87515D01*
X177281Y80664D01*
X177281Y80663D01*
X173053Y76436D01*
X171568D01*
X171556Y76433D01*
X170934Y76691D01*
X170262Y76779D01*
X169590Y76691D01*
X168964Y76431D01*
X168426Y76018D01*
X168013Y75481D01*
X167754Y74854D01*
X167665Y74182D01*
X167754Y73510D01*
X168013Y72883D01*
X168426Y72346D01*
X168964Y71933D01*
X169590Y71674D01*
X170262Y71585D01*
X170461Y71611D01*
X170694Y71138D01*
X169655Y70098D01*
X169268Y69519D01*
X169132Y68836D01*
Y66777D01*
X168926Y66618D01*
X168513Y66080D01*
X168254Y65454D01*
X168165Y64782D01*
X168254Y64110D01*
X168513Y63484D01*
X168926Y62946D01*
X169464Y62533D01*
X170090Y62274D01*
X170762Y62185D01*
X171434Y62274D01*
X172061Y62533D01*
X172599Y62946D01*
X173011Y63484D01*
X173271Y64110D01*
X173359Y64782D01*
X173271Y65454D01*
X173011Y66080D01*
X172701Y66485D01*
Y68098D01*
X189124Y84520D01*
X189124Y84520D01*
X189511Y85099D01*
X189646Y85782D01*
X189646Y85782D01*
Y150365D01*
X189646Y150365D01*
X189511Y151048D01*
X189124Y151627D01*
X189124Y151627D01*
X177207Y163544D01*
X176628Y163930D01*
X175945Y164066D01*
D02*
G37*
G36*
X38062Y155462D02*
X36773Y155292D01*
X35572Y154795D01*
X34541Y154003D01*
X33750Y152972D01*
X33252Y151771D01*
X33083Y150482D01*
X33252Y149193D01*
X33750Y147992D01*
X34541Y146961D01*
X35572Y146169D01*
X36773Y145672D01*
X38062Y145502D01*
X39351Y145672D01*
X40552Y146169D01*
X41583Y146961D01*
X42375Y147992D01*
X42872Y149193D01*
X43042Y150482D01*
X42872Y151771D01*
X42375Y152972D01*
X41583Y154003D01*
X40552Y154795D01*
X39351Y155292D01*
X38062Y155462D01*
D02*
G37*
G36*
X20739D02*
X19451Y155292D01*
X18249Y154795D01*
X17218Y154003D01*
X16427Y152972D01*
X15929Y151771D01*
X15760Y150482D01*
X15929Y149193D01*
X16427Y147992D01*
X17218Y146961D01*
X18249Y146169D01*
X19451Y145672D01*
X20739Y145502D01*
X22028Y145672D01*
X23229Y146169D01*
X24261Y146961D01*
X25052Y147992D01*
X25549Y149193D01*
X25719Y150482D01*
X25549Y151771D01*
X25052Y152972D01*
X24261Y154003D01*
X23229Y154795D01*
X22028Y155292D01*
X20739Y155462D01*
D02*
G37*
%LPD*%
G36*
X97648Y157791D02*
X96823Y156966D01*
X77482D01*
X77235Y157466D01*
X77356Y157624D01*
X77615Y158250D01*
X77616Y158253D01*
X97456D01*
X97648Y157791D01*
D02*
G37*
G36*
X138601Y140120D02*
X138601Y140120D01*
X139179Y139734D01*
X139862Y139598D01*
X147836D01*
Y129035D01*
X145452Y126651D01*
X144971Y126024D01*
X144669Y125295D01*
X144566Y124512D01*
Y120745D01*
Y118965D01*
X133109Y107508D01*
X101262D01*
X100479Y107405D01*
X99749Y107103D01*
X99123Y106622D01*
X97272Y104771D01*
X96744Y104950D01*
X96725Y105093D01*
X96466Y105720D01*
X96053Y106258D01*
X95515Y106670D01*
X94889Y106930D01*
X94217Y107018D01*
X94152Y107010D01*
X85546Y115615D01*
Y123506D01*
X85598Y123546D01*
X86011Y124083D01*
X86271Y124710D01*
X86359Y125382D01*
X86271Y126054D01*
X86011Y126681D01*
X85598Y127218D01*
X85061Y127631D01*
X84434Y127891D01*
X83762Y127979D01*
X83090Y127891D01*
X82464Y127631D01*
X81926Y127218D01*
X81513Y126681D01*
X81254Y126054D01*
X81165Y125382D01*
X81211Y125032D01*
X80753Y124680D01*
X80685Y124709D01*
X80013Y124797D01*
X79340Y124709D01*
X78714Y124449D01*
X78176Y124037D01*
X77981Y123783D01*
X77481Y123952D01*
Y124622D01*
X81516Y128656D01*
X96336D01*
Y127335D01*
X95022Y126022D01*
X94542Y125395D01*
X94239Y124665D01*
X94136Y123882D01*
Y119382D01*
X94239Y118599D01*
X94542Y117869D01*
X95022Y117242D01*
X95649Y116762D01*
X96379Y116459D01*
X97162Y116356D01*
X97945Y116459D01*
X98675Y116762D01*
X99302Y117242D01*
X99783Y117869D01*
X100085Y118599D01*
X100188Y119382D01*
Y122629D01*
X101502Y123942D01*
X101983Y124569D01*
X102285Y125299D01*
X102388Y126082D01*
Y131682D01*
Y137529D01*
X111816Y146956D01*
X112862D01*
X113645Y147059D01*
X114375Y147362D01*
X115002Y147842D01*
X115483Y148469D01*
X115785Y149199D01*
X115888Y149982D01*
X115785Y150765D01*
X115483Y151495D01*
X115002Y152122D01*
X114375Y152603D01*
X113645Y152905D01*
X112862Y153008D01*
X110562D01*
X109779Y152905D01*
X109049Y152603D01*
X108423Y152122D01*
X97223Y140922D01*
X96742Y140295D01*
X96439Y139565D01*
X96336Y138782D01*
Y134708D01*
X82446D01*
Y145682D01*
X82311Y146365D01*
X81924Y146944D01*
X81924Y146944D01*
X79246Y149621D01*
Y149649D01*
X79546Y150039D01*
X79805Y150665D01*
X79894Y151338D01*
X79805Y152010D01*
X79546Y152636D01*
X79345Y152898D01*
X79591Y153398D01*
X97562D01*
X98245Y153533D01*
X98824Y153920D01*
X100150Y155246D01*
X123475D01*
X138601Y140120D01*
D02*
G37*
G36*
X126758Y92943D02*
X124932Y92832D01*
X124671Y94332D01*
X124840Y94336D01*
X124994Y94349D01*
X125131Y94370D01*
X125252Y94399D01*
X125356Y94436D01*
X125445Y94482D01*
X125517Y94536D01*
X125573Y94598D01*
X125613Y94669D01*
X125637Y94748D01*
X126758Y92943D01*
D02*
G37*
G36*
X99142Y65742D02*
X99121Y65757D01*
X99087Y65770D01*
X99040Y65781D01*
X98981Y65791D01*
X98826Y65807D01*
X98620Y65816D01*
X98364Y65819D01*
Y67319D01*
X98498Y67320D01*
X99040Y67356D01*
X99087Y67368D01*
X99121Y67381D01*
X99142Y67396D01*
Y65742D01*
D02*
G37*
G36*
X78228Y120220D02*
Y111932D01*
X78364Y111249D01*
X78751Y110670D01*
X88174Y101247D01*
X88165Y101182D01*
X88254Y100510D01*
X88513Y99884D01*
X88926Y99346D01*
X89431Y98958D01*
X89433Y98904D01*
X89161Y98458D01*
X73805D01*
X73022Y98355D01*
X72292Y98053D01*
X71666Y97572D01*
X71666Y97572D01*
X69323Y95228D01*
X68842Y94602D01*
X68539Y93872D01*
X68436Y93089D01*
Y71982D01*
X68539Y71199D01*
X68842Y70469D01*
X69323Y69842D01*
X69949Y69362D01*
X70679Y69059D01*
X71462Y68956D01*
X72245Y69059D01*
X72975Y69362D01*
X73602Y69842D01*
X73953Y70300D01*
X74453Y70130D01*
Y59683D01*
X73953Y59475D01*
X59801Y73627D01*
Y92565D01*
X59902Y92642D01*
X59902Y92642D01*
X60002Y92742D01*
X60483Y93369D01*
X60785Y94099D01*
X60888Y94882D01*
Y107769D01*
X68375D01*
X69158Y107872D01*
X69888Y108174D01*
X70514Y108655D01*
X76595Y114735D01*
X77076Y115362D01*
X77378Y116092D01*
X77481Y116875D01*
Y120229D01*
X77981Y120434D01*
X78228Y120220D01*
D02*
G37*
G36*
X89944Y58416D02*
X89981Y57874D01*
X89993Y57828D01*
X90006Y57794D01*
X90020Y57772D01*
X88367D01*
X88381Y57794D01*
X88394Y57828D01*
X88406Y57874D01*
X88416Y57933D01*
X88431Y58088D01*
X88441Y58294D01*
X88444Y58550D01*
X89944D01*
X89944Y58416D01*
D02*
G37*
G36*
X96382Y59004D02*
X96791Y58647D01*
X96832Y58623D01*
X96865Y58608D01*
X96890Y58603D01*
X95721Y57434D01*
X95717Y57459D01*
X95702Y57493D01*
X95677Y57534D01*
X95643Y57582D01*
X95543Y57703D01*
X95404Y57855D01*
X95226Y58038D01*
X96286Y59099D01*
X96382Y59004D01*
D02*
G37*
G36*
X60033Y48402D02*
Y33687D01*
X60149Y33101D01*
X60481Y32605D01*
X67565Y25521D01*
X67537Y25321D01*
X67389Y25021D01*
X40764D01*
X37468Y28317D01*
Y31357D01*
X37525Y31379D01*
X37968Y31440D01*
X38390Y30810D01*
X39111Y30327D01*
X39962Y30158D01*
X40813Y30327D01*
X41535Y30810D01*
X42017Y31531D01*
X42186Y32382D01*
X42017Y33233D01*
X41794Y33566D01*
X43958Y35729D01*
X44289Y36225D01*
X44406Y36810D01*
Y47803D01*
X44352Y48072D01*
X44723Y48572D01*
X58975D01*
X59560Y48688D01*
X60033Y48402D01*
D02*
G37*
D11*
X75362Y158922D02*
X76221Y159782D01*
X75107Y158922D02*
X75362D01*
X34162Y54282D02*
X40055Y48389D01*
X42876Y36810D02*
Y47803D01*
X40055Y48389D02*
X42291D01*
X42876Y47803D01*
X40223Y34157D02*
X42876Y36810D01*
X30762Y54282D02*
X34162D01*
X185662Y86882D02*
Y148482D01*
X171568Y74906D02*
X173686D01*
X178362Y79582D01*
X178362D02*
X185662Y86882D01*
X178362Y79582D02*
X178362D01*
X174362Y159782D02*
X185662Y148482D01*
X76221Y159782D02*
X174362D01*
X58975Y50101D02*
X62002Y53128D01*
X42943Y50101D02*
X58975D01*
X40062Y52982D02*
X42943Y50101D01*
X31988Y45587D02*
X32166Y45766D01*
X31988Y40322D02*
Y45587D01*
X40223Y32643D02*
Y34157D01*
X39962Y32382D02*
X40223Y32643D01*
X65123Y52194D02*
Y55459D01*
X68694Y26554D02*
X69162D01*
X69327Y26390D02*
X72952D01*
X69162Y26554D02*
X69327Y26390D01*
X62228Y58354D02*
X65123Y55459D01*
X61562Y48633D02*
X65123Y52194D01*
X61562Y33687D02*
Y48633D01*
Y33687D02*
X68694Y26554D01*
X170262Y74182D02*
X170844D01*
X171568Y74906D01*
D14*
X234651Y112D02*
X236221Y1683D01*
X1Y179001D02*
X2200Y181200D01*
X2288Y112D02*
X234651D01*
X1Y2399D02*
X2288Y112D01*
X2200Y181200D02*
X234862D01*
X236221Y179841D01*
X1Y2399D02*
Y179001D01*
X236221Y1683D02*
Y179841D01*
D75*
X73805Y95432D02*
X92212D01*
X101262Y104482D02*
X134362D01*
X92212Y95432D02*
X101262Y104482D01*
X71462Y71982D02*
Y93089D01*
X73805Y95432D01*
X134362Y104482D02*
X147592Y117711D01*
X57862Y110682D02*
Y125982D01*
Y94882D02*
Y110682D01*
X57975Y110795D02*
X68375D01*
X57862Y110682D02*
X57975Y110795D01*
X57762Y94782D02*
Y94782D01*
X57862Y94882D01*
X68375Y110795D02*
X74455Y116875D01*
Y125875D02*
X80262Y131682D01*
X80662D01*
X74455Y116875D02*
Y125875D01*
X99362Y138782D02*
X110562Y149982D01*
X99362Y131682D02*
Y138782D01*
X110562Y149982D02*
X112862D01*
X150862Y141382D02*
Y141482D01*
Y127782D02*
Y141382D01*
Y141482D02*
X159662Y150282D01*
X80662Y131682D02*
X99362D01*
X147592Y117711D02*
Y120745D01*
X99362Y126082D02*
Y131682D01*
X147592Y120745D02*
Y124512D01*
X150862Y127782D01*
X159662Y150282D02*
X163462D01*
X97162Y119382D02*
Y123882D01*
X99362Y126082D01*
D76*
X170716Y42035D02*
X171709D01*
X164626Y35946D02*
X170716Y42035D01*
X77297Y151338D02*
X77462Y151172D01*
Y148882D02*
Y151172D01*
X71895Y156749D02*
X73462Y155182D01*
X97562D02*
X99410Y157030D01*
X73462Y155182D02*
X97562D01*
X64962Y157782D02*
X70622D01*
X71654Y156749D01*
X71895D01*
X80662Y131682D02*
Y145682D01*
X77462Y148882D02*
X80662Y145682D01*
X64496Y148248D02*
X64962Y147782D01*
X62596Y148248D02*
X64496D01*
X60162Y150682D02*
X62596Y148248D01*
X60162Y159682D02*
X62762Y162282D01*
X60162Y150682D02*
Y159682D01*
X83367Y38877D02*
X104062D01*
X80862Y41382D02*
Y54382D01*
Y41382D02*
X83367Y38877D01*
X76237Y59007D02*
Y90213D01*
Y59007D02*
X80862Y54382D01*
X81818Y35946D02*
X164626D01*
X80828Y36936D02*
X81818Y35946D01*
X94362Y68382D02*
X96175Y66569D01*
X89194Y56929D02*
Y86713D01*
X94362Y68382D02*
Y84182D01*
X91662Y62662D02*
X96902Y57422D01*
X96175Y66569D02*
X99985D01*
X100162Y97682D02*
X104762D01*
X94362Y84182D02*
X100662Y90482D01*
X89194Y86713D02*
X100162Y97682D01*
X91662Y85382D02*
X99862Y93582D01*
X91662Y62662D02*
Y85382D01*
X175945Y162282D02*
X187862Y150365D01*
X170917Y68836D02*
X187862Y85782D01*
Y150365D01*
X170917Y64937D02*
Y68836D01*
X170762Y64782D02*
X170917Y64937D01*
X62762Y162282D02*
X175945Y162282D01*
X99410Y157030D02*
X124214D01*
X139862Y141382D02*
X150862D01*
X124214Y157030D02*
X139862Y141382D01*
X80013Y111932D02*
Y122200D01*
Y111932D02*
X90762Y101182D01*
X83762Y114876D02*
X94217Y104421D01*
X83762Y114876D02*
Y125382D01*
X100662Y90482D02*
X160762D01*
X161969Y91689D02*
Y94243D01*
X160762Y90482D02*
X161969Y91689D01*
Y94243D02*
X162285Y94559D01*
X126662Y93582D02*
X127362Y94282D01*
X99862Y93582D02*
X126662D01*
D79*
X77462Y34154D02*
Y53082D01*
X57762Y72782D02*
Y94782D01*
Y72782D02*
X77462Y53082D01*
X167412Y33032D02*
X171162Y36782D01*
X78584Y33032D02*
X167412D01*
X79362Y26882D02*
Y32982D01*
X39919Y22982D02*
X75462D01*
X79362Y26882D01*
X77462Y34154D02*
X78634Y32982D01*
X79362D01*
X35429Y27472D02*
X39919Y22982D01*
X35429Y27472D02*
Y37095D01*
D80*
X216535Y11811D02*
D03*
X19685D02*
D03*
D81*
X38062Y150482D02*
D03*
X20739D02*
D03*
D82*
X69962Y137782D02*
D03*
X64962D02*
D03*
X69962Y142782D02*
D03*
X64962D02*
D03*
X69962Y147782D02*
D03*
X64962D02*
D03*
X69962Y152782D02*
D03*
X64962D02*
D03*
X69962Y157782D02*
D03*
X64962D02*
D03*
D83*
X6313Y56882D02*
D03*
Y29225D02*
D03*
D84*
X18124Y52601D02*
D03*
Y33506D02*
D03*
D85*
X57700Y53300D02*
D03*
X171469Y37189D02*
D03*
X171709Y42035D02*
D03*
X80828Y36936D02*
D03*
X61269Y59199D02*
D03*
X62002Y53128D02*
D03*
X30762Y54282D02*
D03*
X35429Y37095D02*
D03*
X51794Y27660D02*
D03*
X34329Y48901D02*
D03*
X25462Y27582D02*
D03*
X32166Y45766D02*
D03*
X40062Y52982D02*
D03*
X32123Y40216D02*
D03*
X57362Y33182D02*
D03*
X39962Y32382D02*
D03*
X104062Y38877D02*
D03*
X89194Y56929D02*
D03*
X96902Y57422D02*
D03*
X72952Y26390D02*
D03*
X99985Y66569D02*
D03*
X160898Y139639D02*
D03*
X156361Y134849D02*
D03*
X144271Y137499D02*
D03*
X151747Y155399D02*
D03*
X151871Y149928D02*
D03*
X151847Y152707D02*
D03*
X101170Y151407D02*
D03*
X101195Y148628D02*
D03*
X101071Y154099D02*
D03*
X110114Y138921D02*
D03*
X93325Y136400D02*
D03*
X106362Y133982D02*
D03*
D86*
X44314Y136421D02*
D03*
X38386Y128485D02*
D03*
X50085Y128485D02*
D03*
X26463D02*
D03*
X14764Y128485D02*
D03*
X20692Y136421D02*
D03*
X75107Y158922D02*
D03*
X173262Y103482D02*
D03*
X185162Y31035D02*
D03*
X77297Y151338D02*
D03*
X61503Y75456D02*
D03*
X57762Y94782D02*
D03*
X57862Y125982D02*
D03*
X65262Y119182D02*
D03*
X76237Y90213D02*
D03*
X71462Y71982D02*
D03*
X69859Y103079D02*
D03*
X7673Y115042D02*
D03*
X15188Y119229D02*
D03*
X48241Y115333D02*
D03*
X5878Y70659D02*
D03*
X52779Y119138D02*
D03*
X43358Y119115D02*
D03*
X11917Y65856D02*
D03*
X103458Y28316D02*
D03*
X104762Y97682D02*
D03*
X90762Y101182D02*
D03*
X170762Y64782D02*
D03*
X170262Y74182D02*
D03*
X80013Y122200D02*
D03*
X83762Y125382D02*
D03*
X94217Y104421D02*
D03*
X165462Y111782D02*
D03*
X165616Y117835D02*
D03*
X165662Y124482D02*
D03*
X162285Y94559D02*
D03*
X127185Y94459D02*
D03*
X147592Y120745D02*
D03*
X163462Y150282D02*
D03*
X112862Y149982D02*
D03*
X97162Y119382D02*
D03*
X88362Y115082D02*
D03*
X176494Y137682D02*
D03*
X153806Y120686D02*
D03*
X159706Y120786D02*
D03*
X139054Y117764D02*
D03*
X139076Y126130D02*
D03*
X133397Y121861D02*
D03*
X176040Y150603D02*
D03*
X180136Y145402D02*
D03*
X171770Y145120D02*
D03*
X126654Y137021D02*
D03*
X121171Y144520D02*
D03*
X129537Y144802D02*
D03*
X125441Y150004D02*
D03*
X88356Y124277D02*
D03*
X109162Y119382D02*
D03*
X103262Y119282D02*
D03*
M02*
